<svg width="406" height="292" viewBox="0 0 406 292" fill="none" xmlns="http://www.w3.org/2000/svg">
<path d="M79.5646 49.0331C87.3916 49.0331 93.7366 42.6812 93.7366 34.8457C93.7366 27.0101 87.3916 20.6582 79.5646 20.6582C71.7377 20.6582 65.3927 27.0101 65.3927 34.8457C65.3927 42.6812 71.7377 49.0331 79.5646 49.0331Z" fill="#603556"/>
<path d="M36.4005 205.651L45.1074 175.422L48.0715 176.349C48.0715 176.349 44.5516 198.975 38.994 204.724L36.4005 205.651Z" fill="#2F2E41"/>
<path d="M69.5609 43.3767C69.5609 43.3767 70.6725 55.2459 68.0789 58.5841C65.4853 61.9224 69.7462 68.4134 69.7462 68.4134L77.5269 77.6862L89.0126 72.4934L90.6799 62.8497L89.5684 56.1732C89.5684 56.1732 85.6781 52.2786 87.3453 45.2312C89.0126 38.1839 69.5609 43.3767 69.5609 43.3767Z" fill="#FFB9B9"/>
<path opacity="0.1" d="M69.5609 43.3767C69.5609 43.3767 70.6725 55.2459 68.0789 58.5841C65.4853 61.9224 69.7462 68.4134 69.7462 68.4134L77.5269 77.6862L89.0126 72.4934L90.6799 62.8497L89.5684 56.1732C89.5684 56.1732 85.6781 52.2786 87.3453 45.2312C89.0126 38.1839 69.5609 43.3767 69.5609 43.3767Z" fill="black"/>
<path d="M76.2302 265.369V272.972L86.419 275.012L85.4927 262.401L76.2302 265.369Z" fill="#FFB9B9"/>
<path d="M106.797 262.402L104.574 272.972L109.02 276.125L116.801 270.376L115.875 261.289L106.797 262.402Z" fill="#FFB9B9"/>
<path d="M87.3453 274.085C87.3453 274.085 83.455 267.502 76.2301 271.628C76.2301 271.628 74.9333 278.907 73.6365 279.464C72.3398 280.02 65.1149 290.591 73.6365 291.518C82.1582 292.446 86.4191 289.664 86.4191 289.664C86.4191 289.664 84.7518 291.1 87.3453 290.358C89.9389 289.616 88.8274 285.536 88.8274 285.536L87.3453 274.085Z" fill="#2F2E41"/>
<path d="M112.725 269.634C112.725 269.634 106.982 273.714 106.056 271.86C105.13 270.005 103.648 270.191 103.648 270.191C103.648 270.191 98.4606 289.766 101.795 290.693C103.942 291.222 106.198 291.106 108.279 290.358C108.279 290.358 112.725 287.241 112.725 289.652C112.725 292.063 125.137 291.889 130.324 291.704C135.511 291.518 132.733 287.623 132.733 287.623L125.878 280.947L118.097 269.634C118.097 269.634 114.578 266.481 112.725 269.634Z" fill="#2F2E41"/>
<path d="M58.0752 145.564L65.8558 220.303C65.8558 220.303 70.1167 265.925 70.8577 266.667C71.5987 267.409 76.4153 269.82 86.9748 266.667L84.5665 206.95L89.0126 169.858L99.2016 195.451C99.2016 195.451 101.61 264.256 103.277 264.256C104.944 264.256 115.133 267.594 117.542 263.514C119.95 259.434 119.579 215.481 119.579 215.481C119.579 215.481 118.468 146.12 110.317 143.894C102.166 141.669 58.0752 145.564 58.0752 145.564Z" fill="#2F2E41"/>
<path d="M79.5646 50.239C86.6242 50.239 92.3472 44.5098 92.3472 37.4425C92.3472 30.3752 86.6242 24.646 79.5646 24.646C72.505 24.646 66.7821 30.3752 66.7821 37.4425C66.7821 44.5098 72.505 50.239 79.5646 50.239Z" fill="#FFB9B9"/>
<path d="M80.3057 73.0499C80.3057 73.0499 79.0089 65.0752 79.0089 63.5916C79.0089 62.1079 73.266 61.1806 73.266 61.1806C73.266 61.1806 68.8199 56.1733 67.8936 56.9151C66.9674 57.6569 52.8881 67.1152 50.665 68.4134C48.442 69.7116 46.0337 75.2753 46.2189 75.6463C46.4042 76.0172 57.8899 100.127 57.8899 100.127C57.8899 100.127 62.8918 114.963 59.372 122.752C55.8521 130.541 51.406 145.934 57.8899 149.087C64.3738 152.24 95.867 159.102 101.61 153.167C107.353 147.233 111.428 145.563 112.91 145.563C114.392 145.563 106.797 119.785 108.464 117.374C110.132 114.963 107.723 99.9411 107.723 99.9411L116.245 76.0172C116.245 76.0172 115.504 62.6643 98.6458 59.697L88.5606 54.8018L80.3057 73.0499Z" fill="#575A89"/>
<path d="M45.6631 148.902C45.6631 148.902 44.7369 157.804 44.7369 160.4C44.7369 162.996 40.2908 178.204 46.7746 180.058C53.2585 181.913 52.7028 159.844 52.7028 159.844V148.531L45.6631 148.902Z" fill="#FFB9B9"/>
<path d="M122.544 140.556C122.544 140.556 123.655 149.087 123.099 150.942C122.544 152.796 128.472 168.931 120.506 169.858C112.54 170.786 114.578 150.571 114.578 150.571V140.556L122.544 140.556Z" fill="#FFB9B9"/>
<path d="M43.9959 202.684L49.3682 174.124H51.0355C52.2013 175.629 52.9659 177.405 53.2575 179.287C53.5492 181.168 53.3583 183.093 52.7028 184.881C50.4798 191.186 48.6272 202.684 48.6272 202.684H43.9959Z" fill="#2F2E41"/>
<path d="M48.9977 73.4209L46.2189 75.6464C46.2189 75.6464 42.5138 134.622 43.4401 139.073C44.3664 143.524 40.1055 149.829 43.8106 150.386C47.5157 150.942 51.9618 153.353 53.9996 151.869C56.0374 150.386 56.4079 145.007 57.1489 143.709C57.8899 142.411 59.1867 127.018 59.1867 127.018C59.1867 127.018 63.077 111.625 60.6687 100.127C58.2604 88.6284 56.0374 76.9446 56.0374 76.9446L48.9977 73.4209Z" fill="#575A89"/>
<path d="M107.723 68.7842L116.245 76.017L122.729 113.85C122.729 113.85 126.804 143.338 123.655 143.709C120.506 144.08 115.689 143.152 113.651 143.709C111.614 144.265 109.946 142.781 109.946 142.781C109.946 142.781 107.723 130.912 107.723 130.727C107.723 130.541 106.241 117.003 106.241 117.003L104.389 101.796L107.167 85.1044L107.723 68.7842Z" fill="#575A89"/>
<path d="M67.5231 243.855C67.5231 243.855 66.319 247.318 64.6591 252.032C63.8884 254.224 63.0196 256.689 62.1248 259.202C61.5487 260.827 60.9633 262.472 60.3871 264.078C59.4683 266.646 58.5753 269.113 57.7954 271.231C56.7654 274.026 55.9299 276.216 55.4816 277.238C53.4438 281.874 16.2077 274.456 13.2437 272.601C10.2796 270.747 9.5386 264.441 9.16809 255.539C9.16624 255.493 9.16438 255.446 9.16438 255.4C9.11621 253.603 9.57379 250.927 10.3389 247.787C10.7205 246.218 11.1799 244.534 11.6913 242.785C12.3767 240.439 13.1548 237.98 13.968 235.532C17.4619 225.017 21.5801 214.739 21.5801 214.739C21.5801 214.739 28.805 209.731 31.3986 206.393C33.9921 203.055 48.2567 200.458 48.2567 200.458C52.3323 200.644 61.595 216.408 65.3001 221.23C69.0052 226.052 67.5231 243.855 67.5231 243.855Z" fill="#3F3D56"/>
<path d="M46.7747 215.666C47.6955 215.666 48.442 214.919 48.442 213.997C48.442 213.075 47.6955 212.328 46.7747 212.328C45.8539 212.328 45.1074 213.075 45.1074 213.997C45.1074 214.919 45.8539 215.666 46.7747 215.666Z" fill="#2F2E41"/>
<path d="M49.3682 216.779C49.8798 216.779 50.2945 216.364 50.2945 215.852C50.2945 215.339 49.8798 214.924 49.3682 214.924C48.8567 214.924 48.442 215.339 48.442 215.852C48.442 216.364 48.8567 216.779 49.3682 216.779Z" fill="#2F2E41"/>
<path d="M64.6591 252.032C63.8884 254.224 63.0196 256.689 62.1248 259.202L11.6913 242.785C12.3767 240.439 13.1548 237.98 13.968 235.532L64.6591 252.032Z" fill="#F2F2F2"/>
<path d="M60.3872 264.078C59.4683 266.646 58.5754 269.113 57.7955 271.231L9.16441 255.4C9.11625 253.603 9.57382 250.927 10.3389 247.787L60.3872 264.078Z" fill="#F2F2F2"/>
<path d="M46.7747 214.368C46.7747 214.368 50.4798 230.688 48.2567 245.154C46.0337 259.62 53.8143 273.158 53.8143 273.158" stroke="#2F2E41" stroke-width="3" stroke-miterlimit="10"/>
<path d="M49.3682 215.667C49.3682 215.667 42.1433 242.001 41.9581 245.711C41.7728 249.42 38.8087 275.94 35.1037 278.722" stroke="#2F2E41" stroke-width="3" stroke-miterlimit="10"/>
<path d="M69.7513 29.6335C69.7513 29.6335 66.8579 22.1024 71.0533 19.6403L72.2107 22.9713C72.2107 22.9713 82.7717 16.5989 85.5204 18.0471L82.9163 21.523C82.9163 21.523 95.2134 21.523 96.0814 26.3024L91.7413 26.4473C91.7413 26.4473 96.3707 29.4887 96.5154 34.4129L87.2565 34.9922L91.7413 37.5991C91.7413 37.5991 74.9595 39.9164 70.9087 33.2542L69.7513 29.6335Z" fill="#603556"/>
<path d="M67.2452 29.9315C67.2452 29.9315 70.5798 36.608 75.0259 34.9389C79.472 33.2697 75.0259 27.1497 75.0259 27.1497L72.0618 25.666L67.2452 29.9315Z" fill="#603556"/>
<path d="M354.793 135.259L294.327 59.6166C291.581 62.1302 288.199 63.8402 284.548 64.5597C273.165 66.804 262.048 59.022 259.718 47.1781C258.915 43.2611 259.195 39.199 260.53 35.43C261.864 31.6611 264.201 28.3285 267.289 25.7919L246.671 0L129.214 100.496L237.335 235.755L354.793 135.259Z" fill="#F2F2F2"/>
<path d="M279.662 60.966C289.076 60.966 296.708 53.3257 296.708 43.9009C296.708 34.4762 289.076 26.8359 279.662 26.8359C270.247 26.8359 262.615 34.4762 262.615 43.9009C262.615 53.3257 270.247 60.966 279.662 60.966Z" fill="#F2F2F2"/>
<path d="M173 119.94L167.785 125.982L185.356 141.182L190.572 135.14L173 119.94Z" fill="#42DFF4"/>
<path d="M285.958 228.005L280.743 234.047L296.318 247.521L301.534 241.478L285.958 228.005Z" fill="#42DFF4"/>
<path d="M314.101 182.996V183.465C314.091 184.641 314.057 185.813 314 186.979C312.986 206.933 304.388 225.743 289.966 239.555C275.544 253.367 256.392 261.134 236.435 261.265C216.477 261.396 197.225 253.88 182.624 240.258C168.023 226.636 159.179 207.94 157.905 188.001C157.798 186.345 157.745 184.677 157.745 182.996C157.717 166.787 162.742 150.972 172.12 137.758C172.87 136.693 173.65 135.648 174.46 134.622C175.019 133.908 175.593 133.211 176.173 132.519C189.37 116.867 208.169 107.018 228.537 105.083C248.906 103.148 269.22 109.282 285.122 122.169C286.064 122.93 286.989 123.718 287.893 124.522C288.616 125.166 289.327 125.825 290.026 126.497C303.782 139.67 312.248 157.425 313.83 176.416C314.011 178.588 314.101 180.781 314.101 182.996Z" fill="#3F3D56"/>
<path d="M235.923 271.109C187.391 271.109 147.907 231.582 147.907 182.996C147.878 160.767 156.27 139.354 171.391 123.075L173.341 124.886C158.676 140.673 150.538 161.439 150.566 182.996C150.566 230.114 188.857 268.447 235.923 268.447C247.359 268.486 258.685 266.205 269.216 261.743C279.748 257.281 289.267 250.729 297.201 242.484L299.11 244.337C290.929 252.839 281.113 259.595 270.253 264.196C259.394 268.798 247.716 271.149 235.923 271.109Z" fill="#42DFF4"/>
<path d="M248.687 269.246H226.35V291.607H248.687V269.246Z" fill="#42DFF4"/>
<path d="M174.461 134.622C174.499 134.638 174.535 134.66 174.567 134.686C174.987 135.032 174.461 135.697 174.524 136.246C174.599 136.949 175.535 137.103 176.242 137.172C176.949 137.247 177.843 137.816 177.508 138.445C175.732 139.057 173.934 138.455 172.12 137.758C162.743 150.972 157.717 166.787 157.745 182.996C157.745 184.679 157.798 186.347 157.905 188.001C158.054 188.11 158.216 188.197 158.389 188.262C158.921 188.464 159.538 188.427 160.027 188.714C160.415 188.943 160.676 189.348 161.064 189.561C162.175 190.168 163.718 189.002 164.755 189.726C165.023 189.97 165.277 190.23 165.515 190.503C166.473 191.334 168.047 190.775 169.153 191.398C169.866 191.797 170.233 192.596 170.615 193.32C171.567 195.13 173.11 196.908 175.147 197.052C175.789 197.022 176.433 197.044 177.072 197.116C177.699 197.26 178.316 197.808 178.215 198.441C178.04 199.533 178.577 200.726 178.433 201.817C178.173 203.813 175.349 204.687 175.109 206.683C175.109 207.123 175.084 207.562 175.035 207.998C174.907 208.52 174.514 208.946 174.375 209.468C174.11 210.453 174.817 211.438 175.588 212.098C176.364 212.763 177.29 213.338 177.715 214.265C178.162 215.25 177.944 216.394 178.088 217.464C178.407 219.802 180.422 221.532 182.496 222.65C183.161 222.928 183.751 223.358 184.219 223.906C184.751 224.678 184.698 225.695 184.879 226.616C185.315 228.868 187.208 230.727 187.262 233.021C187.299 234.656 186.395 236.136 185.852 237.674C185.294 239.287 185.128 241.01 185.368 242.7C188.401 245.275 191.624 247.615 195.01 249.702C195.194 249.429 195.329 249.126 195.409 248.807C195.473 248.454 195.429 248.09 195.282 247.763C195.135 247.436 194.891 247.161 194.585 246.976C195.156 246.759 195.676 246.426 196.111 245.996C196.325 245.776 196.466 245.496 196.515 245.193C196.565 244.89 196.52 244.58 196.388 244.303C197.324 244.42 198.435 244.479 199.052 243.76C199.547 243.185 199.515 242.322 199.318 241.593C199.048 240.884 198.869 240.143 198.786 239.389C200.955 239.494 203.128 239.421 205.285 239.171C204.973 238.117 204.263 237.227 203.307 236.69C204.285 236.524 205.173 235.353 205.482 234.411C205.749 233.449 205.763 232.435 205.524 231.467C205.45 231.218 205.439 230.954 205.492 230.7C205.65 230.362 205.926 230.095 206.269 229.949C207.886 229.018 209.502 228.088 211.119 227.159C211.408 227.014 211.67 226.821 211.896 226.59C212.401 225.988 212.326 225.088 212.066 224.348C211.805 223.608 211.39 222.911 211.289 222.134C210.991 219.807 213.48 218.135 214.321 215.942C214.606 215.066 214.761 214.153 214.778 213.232C214.847 212.241 214.853 211.097 214.097 210.463C213.369 209.851 212.236 209.989 211.475 209.42C210.779 208.898 210.539 207.892 209.779 207.471C209.088 207.088 208.226 207.333 207.455 207.152C206.104 206.838 205.253 205.278 203.87 205.134C203.094 205.049 202.211 205.432 201.573 204.979C201.009 204.575 200.988 203.771 200.881 203.089C200.693 202.028 200.184 201.05 199.423 200.286C198.663 199.523 197.687 199.011 196.627 198.819C195.824 198.692 194.952 198.74 194.266 198.298C193.574 197.851 193.26 197.015 192.713 196.392C191.84 195.396 190.458 195.039 189.165 194.736C187.41 194.326 185.657 193.914 183.906 193.501C182.975 193.277 181.773 193.16 181.268 193.98C181.118 194.292 181.014 194.623 180.959 194.965C180.769 195.579 180.391 196.118 179.877 196.504C179.363 196.89 178.741 197.105 178.098 197.116C177.658 196.364 176.946 195.811 176.109 195.572C175.562 195.48 175.022 195.352 174.492 195.188C174.216 195.053 173.97 194.862 173.769 194.628C173.569 194.393 173.418 194.121 173.326 193.826C173.235 193.532 173.204 193.222 173.236 192.915C173.269 192.608 173.363 192.311 173.514 192.042C173.815 191.502 173.931 190.877 173.844 190.264C173.757 189.652 173.471 189.085 173.03 188.651C172.136 187.847 170.844 187.65 169.642 187.729C169.328 187.043 169.855 186.271 170.419 185.77C170.988 185.275 171.674 184.785 171.796 184.04C171.993 182.869 170.498 181.979 169.366 182.326C168.233 182.677 167.51 183.779 167.031 184.865C166.799 185.506 166.482 186.113 166.09 186.67C165.888 186.946 165.615 187.16 165.3 187.29C164.984 187.419 164.639 187.459 164.303 187.405C163.367 187.165 163.01 186.052 162.803 185.115C162.471 183.863 162.303 182.573 162.303 181.277C162.311 179.968 162.83 178.715 163.75 177.784C165.297 176.357 167.68 176.496 169.77 176.725C169.546 176.426 169.439 176.055 169.468 175.683C169.497 175.31 169.661 174.962 169.929 174.702C170.209 174.453 170.545 174.276 170.909 174.187C171.272 174.098 171.651 174.099 172.014 174.19C172.644 174.321 173.212 174.661 173.626 175.154C174.221 175.878 174.391 176.863 174.838 177.683C175.29 178.508 176.301 179.211 177.125 178.769C177.843 178.386 177.955 177.395 177.779 176.602C177.598 175.814 177.221 175.042 177.285 174.233C177.407 172.694 179.008 171.763 180.417 171.129C181.826 170.496 183.438 169.638 183.661 168.105C183.671 167.807 183.729 167.512 183.831 167.232C183.987 166.982 184.205 166.776 184.464 166.636C188.575 163.915 192.761 161.157 197.462 159.672C197.707 159.592 197.733 159.677 197.983 159.618C198.334 159.416 198.1 158.857 197.765 158.633C197.43 158.41 196.983 158.234 196.898 157.84C196.84 157.553 197.01 157.265 197.052 156.972C197.064 156.796 197.031 156.619 196.958 156.457C196.885 156.296 196.774 156.155 196.633 156.047C196.493 155.938 196.329 155.866 196.154 155.836C195.98 155.806 195.801 155.82 195.632 155.876C195.255 155.375 195.999 154.795 196.606 154.624C198.421 154.127 200.284 153.823 202.163 153.719C202.38 153.684 202.603 153.721 202.796 153.826C202.934 153.959 203.016 154.141 203.025 154.333C203.034 154.525 202.969 154.713 202.844 154.859C202.588 155.143 202.305 155.402 201.998 155.631C201.693 155.927 201.475 156.302 201.368 156.714C201.262 157.127 201.27 157.56 201.392 157.968C202.376 158.468 203.44 158.985 204.53 158.809C205.615 158.633 206.577 157.409 206.067 156.435C205.594 155.524 204.163 155.317 203.918 154.321C203.631 153.155 205.28 152.117 204.907 150.978C204.748 150.477 204.248 150.179 203.865 149.822C203.414 149.378 203.108 148.808 202.986 148.187C202.863 147.566 202.931 146.922 203.179 146.34C202.556 146.449 201.917 146.407 201.314 146.218C200.71 146.03 200.161 145.699 199.712 145.254C198.882 144.418 198.222 143.093 197.042 143.135C195.962 143.167 195.031 144.429 194.021 144.046C193.771 143.95 193.51 143.758 193.271 143.87C193.192 143.921 193.126 143.989 193.077 144.069C193.028 144.149 192.998 144.24 192.989 144.333C192.734 145.563 193.175 146.963 192.505 148.028C191.777 149.183 190.091 149.343 189.208 150.387C188.729 150.951 188.543 151.712 188.102 152.309C187.66 152.905 186.73 153.288 186.198 152.766C186.458 152.232 186.53 151.625 186.4 151.044C186.271 150.464 185.948 149.945 185.485 149.572C184.995 149.25 184.466 148.992 183.911 148.805C183.291 148.543 182.701 148.215 182.151 147.826C181.877 147.659 181.654 147.419 181.507 147.134C181.391 146.775 181.406 146.386 181.55 146.037C181.819 145.268 182.293 144.587 182.919 144.067C183.546 143.548 184.303 143.209 185.108 143.087C185.81 142.991 186.629 143.023 187.097 142.486C187.341 142.203 187.469 141.772 187.831 141.66C188.058 141.613 188.296 141.641 188.506 141.74C189.384 142.049 190.256 142.358 191.133 142.667C191.426 142.801 191.749 142.854 192.069 142.821C192.228 142.801 192.373 142.72 192.475 142.597C192.576 142.473 192.627 142.315 192.617 142.156C192.532 141.719 191.862 141.511 191.926 141.069C191.957 140.925 192.033 140.794 192.144 140.697C193.092 139.687 194.252 138.899 195.54 138.39C196.828 137.881 198.213 137.663 199.595 137.753C199.924 138.301 199.403 138.945 198.962 139.408C198.526 139.877 198.175 140.707 198.706 141.064C198.921 141.177 199.161 141.232 199.403 141.224C200.05 141.311 200.678 141.501 201.264 141.788C202.174 142.182 203.067 142.619 203.94 143.087C203.811 142.516 203.833 141.922 204.003 141.362C204.099 141.088 204.294 140.858 204.55 140.72C204.806 140.581 205.104 140.542 205.386 140.612C205.907 140.814 206.173 141.506 206.732 141.57C207.471 141.655 207.763 140.558 207.455 139.877C207.146 139.195 206.529 138.631 206.482 137.88C206.444 137.38 206.636 136.757 206.237 136.454C206.095 136.359 205.933 136.301 205.764 136.283C202.424 135.671 199.082 135.057 195.739 134.441C195.143 134.329 194.287 134.414 194.26 135.016C194.244 135.357 194.548 135.692 194.415 136.001C194.271 136.331 193.803 136.304 193.463 136.422C193.207 136.538 192.996 136.734 192.862 136.981C192.727 137.228 192.677 137.512 192.718 137.79C192.809 138.343 193.023 138.869 193.346 139.328C192.691 139.057 191.708 139.009 191.053 138.732C190.958 137.974 190.765 137.231 190.479 136.523C190.463 136.41 190.422 136.302 190.359 136.207C190.297 136.112 190.214 136.031 190.118 135.971C190.021 135.911 189.912 135.874 189.799 135.86C189.686 135.847 189.571 135.859 189.463 135.894C188.602 136.028 187.74 136.155 186.879 136.288C186.662 136.299 186.455 136.379 186.288 136.517C185.953 136.874 186.283 137.444 186.272 137.934C186.241 138.207 186.126 138.465 185.942 138.67C185.758 138.875 185.515 139.018 185.246 139.078C184.705 139.188 184.146 139.181 183.608 139.057C182.401 138.871 181.199 138.684 179.992 138.498C181.057 138.158 182.005 137.523 182.725 136.666C183.204 136.102 183.459 135.048 182.768 134.782C182.563 134.726 182.35 134.709 182.14 134.734C180.502 134.744 179.21 133.376 177.678 132.796C177.196 132.616 176.687 132.522 176.173 132.519L174.461 134.622Z" fill="#42DFF4"/>
<path d="M314 186.978C313.813 187.23 313.566 187.433 313.283 187.567C312.999 187.702 312.687 187.765 312.373 187.75C310.708 187.607 310.006 185.206 308.358 184.934C308.212 184.897 308.057 184.912 307.922 184.977C307.677 185.11 307.634 185.44 307.618 185.717C307.549 187.09 307.491 188.517 308.028 189.784C308.81 191.637 310.836 193.192 310.411 195.156C308.124 194.097 306.932 191.525 306.395 189.06C305.853 186.595 305.768 184.008 304.8 181.676C304.061 182.618 302.518 181.841 301.848 180.85C301.21 179.913 300.816 178.827 300.2 177.874C299.583 176.927 298.636 176.075 297.508 176.021C296.323 175.968 295.291 176.783 294.387 177.555C293.6 178.136 292.94 178.872 292.446 179.716C291.813 180.994 291.978 182.496 291.946 183.917C291.914 185.45 291.589 187.074 290.542 188.203C289.494 189.326 287.563 189.72 286.409 188.703C285.851 188.121 285.454 187.404 285.255 186.622C284.001 182.961 282.957 179.232 282.128 175.452C281.937 176.314 281.176 177.427 280.453 176.921C280.291 176.784 280.161 176.613 280.07 176.421C278.719 174.137 276.225 172.763 273.699 171.938C271.178 171.118 268.524 170.735 266.03 169.83C264.631 169.321 263.295 168.655 262.046 167.844C261.729 168.311 261.544 168.856 261.511 169.42C261.477 169.984 261.596 170.547 261.855 171.049C262.135 171.54 262.57 171.925 263.091 172.143C263.612 172.362 264.191 172.402 264.737 172.257C265.291 172.076 265.759 171.693 266.306 171.501C266.854 171.315 267.593 171.406 267.833 171.938C268.067 172.444 267.716 173.056 267.891 173.588C268.152 174.392 269.37 174.456 269.795 175.191C269.92 175.482 269.949 175.805 269.877 176.114C269.805 176.422 269.637 176.7 269.396 176.905C268.907 177.305 268.367 177.638 267.79 177.896C266.003 178.891 264.732 180.59 263.169 181.91C261.605 183.236 259.398 184.199 257.537 183.353C257.978 181.101 255.303 179.45 254.808 177.209C254.643 176.469 254.729 175.686 254.5 174.967C254.165 173.924 253.239 173.21 252.484 172.422C251.567 171.455 250.852 170.314 250.381 169.066C249.911 167.818 249.695 166.488 249.745 165.155C249.788 164.229 249.958 163.286 249.745 162.381C249.538 161.481 248.788 160.608 247.863 160.646C245.751 160.741 243.087 160.901 241.981 159.096C241.582 158.452 241.412 157.51 241.986 157.015C242.211 156.872 242.461 156.776 242.723 156.731C242.985 156.686 243.253 156.694 243.512 156.754C245.103 156.908 246.687 157.068 248.278 157.222C249.389 157.329 250.591 157.419 251.548 156.839C252.506 156.259 252.92 154.709 252.032 154.022C251.389 153.522 250.229 153.549 250.038 152.755C249.884 152.09 250.618 151.339 250.219 150.78C249.937 150.386 249.299 150.493 248.91 150.791C248.572 151.143 248.203 151.465 247.81 151.754C247.049 152.148 246.145 151.77 245.326 151.515C244.507 151.259 243.411 151.238 243.018 151.999C242.571 152.846 243.406 153.964 242.97 154.816C242.385 155.939 240.417 155.3 239.598 156.269C238.662 157.377 240.236 159.038 239.923 160.454C239.519 160.655 239.07 160.747 238.619 160.722C238.169 160.696 237.733 160.555 237.354 160.31C236.982 160.057 236.685 159.707 236.496 159.298C236.307 158.889 236.232 158.437 236.28 157.989C236.354 157.35 236.689 156.695 236.466 156.094C236.225 155.629 235.827 155.265 235.344 155.066C233.801 154.209 232.259 153.355 230.717 152.505C230.286 153.304 230.828 154.289 231.509 154.89C232.185 155.487 233.035 155.939 233.482 156.727C233.765 157.273 233.829 157.907 233.661 158.498C233.493 159.09 233.106 159.595 232.578 159.911C232.511 159.957 232.435 159.988 232.356 160.002C232.276 160.015 232.194 160.012 232.115 159.991C232.042 159.947 231.977 159.89 231.926 159.821C231.875 159.753 231.838 159.674 231.818 159.591C231.004 157.499 229.775 155.439 227.818 154.347C225.856 153.25 223.043 153.479 221.755 155.316C221.452 155.753 221.245 156.253 220.979 156.716C219.57 159.171 216.538 160.331 213.709 160.257C213.432 160.275 213.157 160.21 212.917 160.071C212.459 159.756 212.481 159.086 212.55 158.532C212.651 157.749 212.746 156.972 212.847 156.189C212.85 155.711 213.034 155.253 213.363 154.906C213.89 154.491 214.645 154.752 215.315 154.741C215.821 154.719 216.307 154.54 216.708 154.231C217.109 153.921 217.404 153.495 217.554 153.011C217.689 152.522 217.688 152.006 217.551 151.518C217.414 151.03 217.147 150.589 216.778 150.242C216.475 149.955 216.065 149.593 216.225 149.204C216.289 149.097 216.377 149.005 216.48 148.936C216.584 148.866 216.702 148.819 216.825 148.8C218.022 148.453 219.293 148.363 220.468 147.948C221.649 147.538 222.793 146.697 223.074 145.477C223.16 145.105 223.197 144.652 223.532 144.466C223.701 144.398 223.881 144.362 224.064 144.359C224.703 144.268 225.285 143.94 225.695 143.44C226.106 142.941 226.315 142.306 226.281 141.66C226.845 141.266 227.637 141.559 228.185 141.979C228.728 142.4 229.212 142.954 229.876 143.135C231.116 143.476 232.312 142.373 233.599 142.368C234.142 142.368 234.7 142.56 235.205 142.373C235.721 142.187 236.03 141.676 236.423 141.298C236.822 140.915 237.513 140.686 237.88 141.096C237.774 140.324 237.673 139.557 237.567 138.79C238.193 138.948 238.846 138.97 239.482 138.854C240.118 138.739 240.721 138.488 241.252 138.12C239.912 137.667 238.577 137.214 237.237 136.762C237.096 136.727 236.966 136.658 236.859 136.56C236.567 136.245 236.859 135.756 237.093 135.399C237.662 134.542 237.758 133.131 236.822 132.705C236.184 132.412 235.455 132.764 234.844 133.104C233.865 133.647 232.887 134.196 231.908 134.739C231.818 135.298 232.498 135.617 232.919 135.99C233.175 136.217 233.356 136.517 233.438 136.849C233.521 137.182 233.501 137.532 233.381 137.852C233.262 138.173 233.048 138.451 232.768 138.647C232.488 138.844 232.155 138.952 231.812 138.955C232.005 139.207 232.139 139.499 232.204 139.81C232.27 140.12 232.265 140.441 232.19 140.75C231.536 140.797 230.876 140.845 230.217 140.893C230.107 140.915 229.995 140.915 229.885 140.893C229.775 140.871 229.671 140.828 229.579 140.766C229.366 140.579 229.398 140.249 229.345 139.972C229.257 139.641 229.072 139.344 228.815 139.119C228.557 138.895 228.238 138.752 227.898 138.71C227.221 138.634 226.535 138.698 225.882 138.897C225.599 138.997 225.289 138.989 225.01 138.876C224.852 138.771 224.733 138.618 224.67 138.439C224.554 138.074 224.534 137.685 224.613 137.31C224.691 136.935 224.865 136.587 225.117 136.299C225.627 135.731 226.19 135.212 226.797 134.749C228.173 133.543 229.185 131.976 229.717 130.224C230.802 129.766 231.924 129.148 233.014 128.691C233.891 128.284 234.809 127.975 235.753 127.77C236.642 127.634 237.542 127.591 238.439 127.642C239.662 127.663 240.891 127.684 242.114 127.711C243.206 127.665 244.297 127.822 245.331 128.174C246.336 128.589 247.225 129.489 247.294 130.575C247.315 130.699 247.304 130.826 247.262 130.944C247.22 131.063 247.148 131.168 247.054 131.251C246.913 131.33 246.753 131.367 246.592 131.358C245.576 131.39 245.145 131.645 244.129 131.683C244.773 132.37 245.496 133.094 246.432 133.216C248.081 133.429 249.267 131.72 250.027 130.235C250.054 130.613 250.228 130.965 250.511 131.217C250.795 131.468 251.165 131.599 251.543 131.582C251.95 131.511 252.339 131.359 252.686 131.134C255.958 129.345 259.622 128.397 263.349 128.376C263.313 128.094 263.382 127.808 263.544 127.574C263.707 127.34 263.95 127.174 264.227 127.109C264.987 126.96 265.668 127.615 266.035 128.297C266.397 128.978 266.625 129.766 267.211 130.277C267.79 130.788 268.912 130.762 269.141 130.027C269.364 129.319 268.625 128.712 268.014 128.291C267.397 127.876 266.753 127.104 267.168 126.486C270.295 125.789 273.449 125.097 276.656 124.958C277.201 124.975 277.743 124.881 278.251 124.682C278.503 124.575 278.712 124.388 278.846 124.151C278.981 123.913 279.033 123.637 278.996 123.367C278.296 123.53 277.563 123.482 276.891 123.228C276.219 122.974 275.637 122.525 275.22 121.94C278.512 121.668 281.958 121.429 285.122 122.169L287.893 124.522C287.367 125.07 286.665 125.587 287.048 126.135C287.174 126.261 287.327 126.357 287.496 126.415C287.664 126.473 287.844 126.492 288.021 126.47C288.691 126.481 289.361 126.497 290.026 126.497C303.782 139.669 312.249 157.425 313.83 176.415C312.713 176.373 311.687 177.789 311.83 179.024C312.001 180.456 313.032 181.606 313.772 182.842C313.894 183.042 314.004 183.25 314.101 183.465L314 186.978Z" fill="#42DFF4"/>
<path d="M167.499 36.6281C171.225 36.6281 174.245 33.6043 174.245 29.8743C174.245 26.1444 171.225 23.1206 167.499 23.1206C163.773 23.1206 160.753 26.1444 160.753 29.8743C160.753 33.6043 163.773 36.6281 167.499 36.6281Z" stroke="#3F3D56" stroke-width="2" stroke-miterlimit="10"/>
<path d="M366.841 165.244C370.567 165.244 373.588 162.22 373.588 158.49C373.588 154.76 370.567 151.736 366.841 151.736C363.115 151.736 360.095 154.76 360.095 158.49C360.095 162.22 363.115 165.244 366.841 165.244Z" stroke="#3F3D56" stroke-width="2" stroke-miterlimit="10"/>
<path d="M320.785 97.9611C324.511 97.9611 327.532 94.9373 327.532 91.2073C327.532 87.4774 324.511 84.4536 320.785 84.4536C317.059 84.4536 314.039 87.4774 314.039 91.2073C314.039 94.9373 317.059 97.9611 320.785 97.9611Z" stroke="#3F3D56" stroke-width="2" stroke-miterlimit="10"/>
<path d="M219.5 152C218.672 152 218 151.328 218 150.5C218 149.672 218.672 149 219.5 149C220.328 149 221 149.672 221 150.5C221 151.328 220.328 152 219.5 152Z" fill="#3F3D56"/>
<path d="M300.842 133.891C306.353 133.891 310.822 129.418 310.822 123.9C310.822 118.383 306.353 113.91 300.842 113.91C295.33 113.91 290.862 118.383 290.862 123.9C290.862 129.418 295.33 133.891 300.842 133.891Z" fill="white"/>
<path d="M219.068 103.802C215.325 103.847 211.753 105.376 209.14 108.055C206.527 110.734 205.087 114.342 205.135 118.086C205.236 125.882 219.683 151.315 219.683 151.315C219.683 151.315 233.468 125.547 233.367 117.751C233.319 114.008 231.785 110.435 229.103 107.819C226.422 105.203 222.812 103.758 219.068 103.802ZM219.34 124.804C218.046 124.82 216.777 124.451 215.691 123.745C214.606 123.039 213.755 122.027 213.244 120.838C212.734 119.648 212.587 118.334 212.823 117.062C213.059 115.791 213.667 114.618 214.57 113.692C215.473 112.766 216.631 112.129 217.896 111.862C219.162 111.594 220.479 111.708 221.681 112.189C222.882 112.67 223.915 113.497 224.648 114.564C225.38 115.631 225.78 116.891 225.797 118.185C225.819 119.92 225.152 121.592 223.941 122.834C222.73 124.075 221.075 124.784 219.34 124.804Z" fill="#57B894"/>
</svg>
