<svg width="81" height="81" fill="none" xmlns="http://www.w3.org/2000/svg"><path d="M14.175 8.269A6.082 6.082 0 0 0 8.1 14.344a6.082 6.082 0 0 0 6.075 6.075 6.082 6.082 0 0 0 6.075-6.075 6.082 6.082 0 0 0-6.075-6.075zm0 9.45a3.379 3.379 0 0 1-3.375-3.375 3.379 3.379 0 0 1 3.375-3.375 3.379 3.379 0 0 1 3.375 3.375 3.379 3.379 0 0 1-3.375 3.375zM67.5 13.669a1.35 1.35 0 1 0 0-2.7 1.35 1.35 0 0 0 0 2.7zM62.1 13.669a1.35 1.35 0 1 0 0-2.7 1.35 1.35 0 0 0 0 2.7zM70.2 17.719a1.35 1.35 0 1 0 0-2.7 1.35 1.35 0 0 0 0 2.7zM64.8 17.719a1.35 1.35 0 1 0 0-2.7 1.35 1.35 0 0 0 0 2.7zM56.7 13.669a1.35 1.35 0 1 0 0-2.7 1.35 1.35 0 0 0 0 2.7zM59.4 17.719a1.35 1.35 0 1 0 0-2.7 1.35 1.35 0 0 0 0 2.7zM51.3 13.669a1.35 1.35 0 1 0 0-2.7 1.35 1.35 0 0 0 0 2.7zM54 17.719a1.35 1.35 0 1 0 0-2.7 1.35 1.35 0 0 0 0 2.7zM45.9 13.669a1.35 1.35 0 1 0 0-2.7 1.35 1.35 0 0 0 0 2.7zM48.6 17.719a1.35 1.35 0 1 0 0-2.7 1.35 1.35 0 0 0 0 2.7zM14.175 33.919A6.082 6.082 0 0 0 8.1 39.994a6.082 6.082 0 0 0 6.075 6.075 6.082 6.082 0 0 0 6.075-6.075 6.082 6.082 0 0 0-6.075-6.075zm0 9.45a3.379 3.379 0 0 1-3.375-3.375 3.379 3.379 0 0 1 3.375-3.375 3.379 3.379 0 0 1 3.375 3.375 3.379 3.379 0 0 1-3.375 3.375zM14.175 59.569A6.082 6.082 0 0 0 8.1 65.644a6.082 6.082 0 0 0 6.075 6.075 6.082 6.082 0 0 0 6.075-6.075 6.082 6.082 0 0 0-6.075-6.075zm0 9.45a3.379 3.379 0 0 1-3.375-3.375 3.379 3.379 0 0 1 3.375-3.375 3.379 3.379 0 0 1 3.375 3.375 3.379 3.379 0 0 1-3.375 3.375z" fill="#42DFF4"/><path d="M81 22.298V6.39C81 2.96 78.21.168 74.78.168H6.22C2.79.169 0 2.959 0 6.389v15.908c0 1.983.949 3.731 2.399 4.87C.949 28.308 0 30.057 0 32.04v15.908c0 1.983.949 3.731 2.399 4.87C.949 53.958 0 55.707 0 57.69v15.907c0 3.43 2.79 6.22 6.22 6.22h37.632c3.62.667 7.59 1.013 11.498 1.013 11.707 0 24.052-3.036 25.508-8.847.09-.18.142-.385.142-.602V33.92c0-.203-.05-.39-.13-.562-.468-1.976-2.224-3.64-4.808-4.975C78.878 27.79 81 25.288 81 22.298zM2.7 47.948V32.039c0-1.94 1.58-3.52 3.52-3.52h28.162c-2.442 1.31-4.1 2.928-4.552 4.838-.08.173-.13.36-.13.562v17.55H6.22a3.525 3.525 0 0 1-3.52-3.521zm30.545-8.285c.06.04.126.078.188.117.237.149.484.295.742.438.075.04.146.082.22.121.315.17.641.334.982.492l.166.074c.298.136.605.267.92.395l.279.113a28.92 28.92 0 0 0 2.363.815l.319.094c.389.114.783.225 1.187.33l.096.026c.434.112.878.216 1.33.317l.34.074c.387.084.777.163 1.171.239l.235.046c.463.086.932.166 1.405.242l.34.052c.392.06.788.118 1.187.17l.328.044c.484.06.97.117 1.46.168.098.011.198.02.297.029.412.04.826.077 1.24.11l.376.03c.495.036.993.069 1.492.095.07.004.141.005.213.009.439.022.879.038 1.319.05a70.441 70.441 0 0 0 1.907.03c.502 0 1.006-.009 1.51-.02.132-.002.264-.006.398-.01.44-.012.879-.029 1.319-.05.071-.004.142-.005.213-.01a68.652 68.652 0 0 0 3.108-.234l.297-.029c.49-.051.976-.106 1.46-.169a55.282 55.282 0 0 0 1.516-.213l.338-.052c.474-.076.942-.156 1.405-.242l.235-.046c.396-.076.786-.155 1.17-.239.115-.026.229-.05.342-.074.45-.101.895-.205 1.33-.317l.096-.026c.404-.104.798-.215 1.187-.33a34.194 34.194 0 0 0 1.473-.464c.021-.007.043-.013.064-.022.393-.136.774-.278 1.145-.423l.278-.112c.316-.129.622-.26.92-.396.056-.026.113-.049.167-.074.34-.158.665-.323.981-.492.076-.04.147-.08.22-.121.257-.142.504-.288.743-.438.062-.039.127-.077.188-.117.279-.18.544-.367.795-.559l.051-.035v6.734a1.315 1.315 0 0 0-.028.476c.019.099.032.196.032.296 0 .148-.042.3-.078.45a2.335 2.335 0 0 1-.114.35 2.723 2.723 0 0 1-.156.304 3.488 3.488 0 0 1-.195.305c-.104.14-.221.281-.355.422-.05.053-.1.108-.154.162-2.858 2.764-11.291 5.262-21.897 5.262-10.599 0-19.028-2.495-21.891-5.258a4.86 4.86 0 0 1-.168-.177 3.397 3.397 0 0 1-.547-.726 2.813 2.813 0 0 1-.148-.29 2.304 2.304 0 0 1-.119-.365c-.036-.146-.078-.293-.078-.439 0-.096.012-.192.028-.286.029-.176.011-.351-.028-.52v-6.701l.051.035c.25.191.515.378.794.56zm44.862 19.861a2.713 2.713 0 0 1-.157.305 3.519 3.519 0 0 1-.194.305c-.104.14-.221.281-.355.422-.05.054-.1.108-.154.162-2.858 2.764-11.291 5.262-21.897 5.262-10.599 0-19.028-2.495-21.892-5.258a5.04 5.04 0 0 1-.167-.177 3.358 3.358 0 0 1-.547-.726 2.774 2.774 0 0 1-.148-.29 2.305 2.305 0 0 1-.12-.365c-.03-.127-.063-.255-.066-.382v-.162c.005-.061.008-.122.017-.183.019-.116-.007-.23-.019-.344L32.4 51.47v-.251c.054.041.117.08.174.121a13.714 13.714 0 0 0 .99.667c.241.148.484.296.744.437l.006.004c2.816 1.535 6.688 2.644 10.97 3.315l.096.015c1.381.214 2.799.382 4.24.505.307.025.612.052.921.074a73.593 73.593 0 0 0 2.128.116c.238.01.475.02.714.027.657.019 1.314.032 1.968.032.654 0 1.31-.012 1.965-.03.24-.008.479-.018.72-.028a71.648 71.648 0 0 0 2.124-.116c.304-.022.604-.047.906-.073a62.06 62.06 0 0 0 4.28-.509c.02-.002.041-.006.061-.01 4.678-.731 8.862-1.988 11.72-3.75.155-.097.309-.193.456-.291.182-.122.36-.246.53-.373.06-.044.129-.086.188-.132v6.734a1.317 1.317 0 0 0-.028.476c.014.099.027.196.027.296 0 .148-.042.3-.078.45-.03.116-.065.233-.115.35zM6.22 77.12A3.525 3.525 0 0 1 2.7 73.598V57.69c0-1.942 1.58-3.521 3.52-3.521H29.7V72.73h.4c.021.05.052.099.077.149a5.584 5.584 0 0 0 .529.89 8.235 8.235 0 0 0 .715.853 10.733 10.733 0 0 0 1.855 1.5c.024.017.05.033.076.05.518.333 1.078.649 1.684.947H6.221v-.001zM78.3 71.036c-.01.041-.02.085-.027.126-.552 3.366-9.895 6.97-22.923 6.97-4.157 0-7.931-.37-11.173-.978l.002-.011c-6.714-1.27-10.429-3.415-11.468-5.225-.002 0-.003-.002-.003-.005-.047-.084-.081-.166-.118-.247a2.305 2.305 0 0 1-.163-.504l-.01-7.782c.048.038.106.073.156.11a13.533 13.533 0 0 0 .99.667c.241.149.484.296.743.438.003.001.006.002.007.004 2.816 1.535 6.688 2.643 10.969 3.314l.097.015c1.38.215 2.799.382 4.24.505.307.025.612.052.921.074a74.637 74.637 0 0 0 2.128.116 68.526 68.526 0 0 0 2.682.06c.653 0 1.31-.013 1.964-.032.24-.006.48-.017.72-.026a72.644 72.644 0 0 0 2.125-.117c.303-.021.603-.047.906-.072a61.988 61.988 0 0 0 4.279-.51l.062-.009c4.678-.732 8.862-1.988 11.72-3.752.155-.095.309-.191.456-.29.182-.121.36-.245.529-.372.06-.045.13-.087.189-.133v7.666zm0-36.611c0 3.425-9.816 7.256-22.95 7.256-13.136 0-22.95-3.831-22.95-7.256 0-.173.042-.348.092-.524.054-.174.127-.352.235-.536l.012-.024c.45-.75 1.355-1.558 2.75-2.337l.18-.097c.24-.13.492-.258.758-.385.31-.144.627-.289.967-.428.066-.028.135-.055.203-.082 1.57-.625 3.46-1.18 5.587-1.634.665-.14 1.343-.272 2.04-.389.185-.03.366-.063.553-.093 6.044-.931 13.095-.931 19.14 0 .19.03.373.064.56.095.693.115 1.367.246 2.027.386 6.581 1.401 10.796 3.808 10.796 6.048zm0-12.127c0 1.941-1.58 3.52-3.52 3.52h-6.251c-.079-.017-.165-.028-.243-.045a50.446 50.446 0 0 0-2.729-.512l-.271-.042a65.496 65.496 0 0 0-9.936-.75 65.46 65.46 0 0 0-9.933.75c-.093.014-.185.029-.278.042-.93.149-1.838.32-2.72.51-.08.018-.17.029-.25.046H6.222a3.523 3.523 0 0 1-3.521-3.52V6.39c0-1.94 1.58-3.52 3.52-3.52h68.558a3.525 3.525 0 0 1 3.522 3.52v15.909z" fill="#42DFF4"/></svg>