<svg width="81" height="81" viewBox="0 0 81 81" fill="none" xmlns="http://www.w3.org/2000/svg">
<path d="M64.5481 9.70347C62.5785 7.73503 60.188 6.75054 57.3751 6.75054C54.5635 6.75054 52.1728 7.73448 50.2038 9.70347C48.2355 11.6719 47.2514 14.0622 47.2514 16.8753C47.2514 18.7034 47.7071 20.3998 48.6212 21.9641C49.5351 23.5285 50.7646 24.7506 52.3126 25.629C52.3126 27.4571 52.1639 29.0661 51.8656 30.4545C51.566 31.843 51.0743 33.0641 50.389 34.1195C49.7019 35.1744 48.9915 36.0702 48.2527 36.8089C47.5137 37.5475 46.4766 38.2413 45.1407 38.892C43.8051 39.5424 42.565 40.0867 41.4227 40.5269C40.2805 40.9656 38.7419 41.484 36.8084 42.0819C33.2923 43.1723 30.5857 44.1734 28.6871 45.0881V18.8783C30.234 18 31.4646 16.7782 32.3785 15.2137C33.2922 13.6492 33.7492 11.9527 33.7492 10.1246C33.7492 7.31242 32.7653 4.92156 30.7963 2.95312C28.828 0.984865 26.4377 0 23.6248 0C20.8117 0 18.4214 0.984127 16.4524 2.95312C14.4841 4.92156 13.4995 7.31242 13.4995 10.1246C13.4995 11.9527 13.9564 13.6492 14.8702 15.2137C15.7841 16.7782 17.0145 18 18.5616 18.8783V62.1217C17.0145 62.9996 15.7841 64.2228 14.8702 65.7867C13.9564 67.3517 13.4995 69.0483 13.4995 70.8758C13.4995 73.688 14.4834 76.0786 16.4524 78.0469C18.4214 80.0151 20.8122 81 23.6248 81C26.4372 81 28.828 80.0151 30.7963 78.0469C32.7647 76.0786 33.7492 73.6878 33.7492 70.8758C33.7492 69.0483 33.2922 67.3517 32.3785 65.7867C31.4644 64.2228 30.234 62.9996 28.6871 62.1217V60.7506C28.6871 58.3252 29.4165 56.5679 30.8753 55.4783C32.3342 54.3872 35.3137 53.1395 39.8143 51.7337C44.5611 50.2217 48.1301 48.797 50.5206 47.4606C58.3952 42.9968 62.3681 35.7191 62.4381 25.6289C63.9862 24.7506 65.2156 23.5283 66.1295 21.9639C67.0429 20.3994 67.5006 18.7032 67.5006 16.8751C67.5012 14.0628 66.5165 11.6725 64.5481 9.70347ZM27.2115 74.463C26.2266 75.4477 25.0314 75.9395 23.6255 75.9395C22.2188 75.9395 21.0235 75.4477 20.0391 74.463C19.0551 73.4794 18.5625 72.2834 18.5625 70.8776C18.5625 69.4707 19.0546 68.276 20.0391 67.2911C21.0235 66.307 22.2188 65.8146 23.6255 65.8146C25.0314 65.8146 26.2268 66.3076 27.2115 67.2911C28.196 68.276 28.6878 69.4707 28.6878 70.8776C28.6877 72.2834 28.196 73.4792 27.2115 74.463ZM27.2115 13.7113C26.2266 14.6958 25.0314 15.1878 23.6255 15.1878C22.2188 15.1878 21.0235 14.6958 20.0391 13.7113C19.0551 12.7268 18.5625 11.5321 18.5625 10.1253C18.5625 8.71898 19.0546 7.52336 20.0391 6.53979C21.0235 5.55548 22.2188 5.06323 23.6255 5.06323C25.0314 5.06323 26.2268 5.55566 27.2115 6.53979C28.196 7.52336 28.6878 8.71898 28.6878 10.1253C28.6877 11.5321 28.196 12.7273 27.2115 13.7113ZM60.9616 20.4618C59.9774 21.4458 58.7827 21.9382 57.3764 21.9382C55.9693 21.9382 54.7738 21.4458 53.7905 20.4618C52.8063 19.4779 52.3139 18.2824 52.3139 16.8759C52.3139 15.4695 52.8063 14.2746 53.7905 13.29C54.7746 12.3053 55.9693 11.8136 57.3764 11.8136C58.7827 11.8136 59.9774 12.3055 60.9616 13.29C61.9457 14.2737 62.4381 15.4693 62.4381 16.8759C62.4381 18.2823 61.9464 19.4779 60.9616 20.4618Z" fill="#42DFF4"/>
</svg>
