<svg width="81" height="81" viewBox="0 0 81 81" fill="none" xmlns="http://www.w3.org/2000/svg">
<path d="M8.74258 4.55017C6.82436 4.55017 5.26396 6.11119 5.26396 8.02879C5.26396 9.947 6.82436 11.508 8.74258 11.508C10.6608 11.508 12.2218 9.947 12.2218 8.02879C12.2218 6.11119 10.6608 4.55017 8.74258 4.55017ZM8.74258 9.13683C8.13201 9.13683 7.63454 8.63997 7.63454 8.02879C7.63454 7.41822 8.13201 6.92136 8.74258 6.92136C9.35376 6.92136 9.85062 7.41822 9.85062 8.02879C9.85062 8.63997 9.35376 9.13683 8.74258 9.13683Z" fill="#42DFF4"/>
<path d="M17.6001 4.55017C15.6819 4.55017 14.1209 6.11119 14.1209 8.02879C14.1209 9.947 15.6819 11.508 17.6001 11.508C19.5183 11.508 21.0787 9.947 21.0787 8.02879C21.0787 6.11119 19.5183 4.55017 17.6001 4.55017ZM17.6001 9.13683C16.9889 9.13683 16.4921 8.63997 16.4921 8.02879C16.4921 7.41822 16.9889 6.92136 17.6001 6.92136C18.2107 6.92136 18.7081 7.41822 18.7081 8.02879C18.7081 8.63997 18.2107 9.13683 17.6001 9.13683Z" fill="#42DFF4"/>
<path d="M26.457 4.55017C24.5388 4.55017 22.9784 6.11119 22.9784 8.02879C22.9784 9.947 24.5388 11.508 26.457 11.508C28.3752 11.508 29.9362 9.947 29.9362 8.02879C29.9362 6.11119 28.3752 4.55017 26.457 4.55017ZM26.457 9.13683C25.8464 9.13683 25.349 8.63997 25.349 8.02879C25.349 7.41822 25.8464 6.92136 26.457 6.92136C27.0682 6.92136 27.565 7.41822 27.565 8.02879C27.565 8.63997 27.0682 9.13683 26.457 9.13683Z" fill="#42DFF4"/>
<path d="M79.7243 23.3862C80.3794 23.3862 80.9102 22.8554 80.9102 22.2003L80.9998 5.21698C80.9998 2.34029 78.6596 0 75.7829 0H5.2176C2.34091 0 0 2.34091 0 5.2176V62.5766C0 65.1839 1.92253 67.3505 4.42412 67.7337C4.68305 67.7738 4.94816 67.7942 5.2176 67.7942H28.2843V72.0459H24.705C22.3177 72.0459 20.3748 73.9882 20.3748 76.3755V78.937C20.3748 80.0265 21.261 80.9127 22.3505 80.9127H28.0038C28.6582 80.9127 29.189 80.3819 29.189 79.7268C29.189 79.0724 28.6582 78.5415 28.0038 78.5415H22.746V76.3755C22.746 75.2953 23.6247 74.4165 24.705 74.4165H56.2053C57.2855 74.4165 58.1643 75.2953 58.1643 76.3755V78.5415H35.3633C34.7088 78.5415 34.178 79.0724 34.178 79.7268C34.178 80.3819 34.7088 80.9127 35.3633 80.9127H58.5591C59.6486 80.9127 60.5348 80.0265 60.5348 78.937V76.3755C60.5348 73.9882 58.5925 72.0459 56.2046 72.0459H52.6253V67.7942H75.6926C75.9621 67.7942 76.2272 67.7738 76.4855 67.7337C78.9877 67.3505 80.9096 65.1839 80.9096 62.5766V29.5506C80.9096 28.8955 80.3794 28.3647 79.7243 28.3647C79.0699 28.3647 78.539 28.8955 78.539 29.5506V55.709H41.4825V16.1256H78.539V22.2003C78.539 22.8554 79.0699 23.3862 79.7243 23.3862ZM2.45832 16.1256H39.1113V55.6237H2.45832V16.1256ZM50.2547 72.0459H30.6555V67.7942H50.2547V72.0459ZM78.539 58.0802V62.5766C78.539 64.048 77.4168 65.2624 75.9831 65.4088C75.8873 65.4181 75.7909 65.423 75.6926 65.423H5.2176C5.11934 65.423 5.02232 65.4181 4.92715 65.4088C3.49344 65.2624 2.37119 64.048 2.37119 62.5766V58.0802H78.539ZM40.2972 13.7544H2.45832V5.21698C2.45832 3.64793 3.73507 2.37119 5.30474 2.37119H75.6926C77.2623 2.37119 78.539 3.64793 78.539 5.2176V13.7544H40.2972Z" fill="#42DFF4"/>
<path d="M7.42072 20.8501H13.4269C14.0813 20.8501 14.6122 20.3198 14.6122 19.6648C14.6122 19.0103 14.0813 18.4795 13.4269 18.4795H7.42072C6.76566 18.4795 6.23481 19.0103 6.23481 19.6648C6.23481 20.3198 6.76566 20.8501 7.42072 20.8501Z" fill="#42DFF4"/>
<path d="M17.5364 20.8501H20.3816C21.0361 20.8501 21.5669 20.3198 21.5669 19.6648C21.5669 19.0103 21.0361 18.4795 20.3816 18.4795H17.5364C16.8814 18.4795 16.3512 19.0103 16.3512 19.6648C16.3512 20.3198 16.8814 20.8501 17.5364 20.8501Z" fill="#42DFF4"/>
<path d="M16.4296 22.6638H12.4783C11.8238 22.6638 11.293 23.1947 11.293 23.8497C11.293 24.5042 11.8238 25.035 12.4783 25.035H16.4296C17.0847 25.035 17.6155 24.5042 17.6155 23.8497C17.6155 23.1947 17.0847 22.6638 16.4296 22.6638Z" fill="#42DFF4"/>
<path d="M35.0809 26.9984H31.1296C30.4751 26.9984 29.9443 27.5293 29.9443 28.1837C29.9443 28.8381 30.4751 29.369 31.1296 29.369H35.0809C35.736 29.369 36.2662 28.8381 36.2662 28.1837C36.2662 27.5293 35.736 26.9984 35.0809 26.9984Z" fill="#42DFF4"/>
<path d="M18.8799 23.8497C18.8799 24.5042 19.4108 25.035 20.0652 25.035H29.5488C30.2038 25.035 30.7347 24.5042 30.7347 23.8497C30.7347 23.1947 30.2038 22.6638 29.5488 22.6638H20.0652C19.4108 22.6638 18.8799 23.1947 18.8799 23.8497Z" fill="#42DFF4"/>
<path d="M15.0862 28.1837C15.0862 28.8381 15.617 29.369 16.2721 29.369H18.3268C18.9813 29.369 19.5121 28.8381 19.5121 28.1837C19.5121 27.5293 18.9813 26.9984 18.3268 26.9984H16.2721C15.617 26.9984 15.0862 27.5293 15.0862 28.1837Z" fill="#42DFF4"/>
<path d="M27.494 29.369C28.149 29.369 28.6799 28.8381 28.6799 28.1837C28.6799 27.5293 28.149 26.9984 27.494 26.9984H21.8042C21.1492 26.9984 20.6183 27.5293 20.6183 28.1837C20.6183 28.8381 21.1492 29.369 21.8042 29.369H27.494Z" fill="#42DFF4"/>
<path d="M14.6122 43.5484C14.6122 42.8934 14.0813 42.3632 13.4269 42.3632H7.42072C6.76566 42.3632 6.23481 42.8934 6.23481 43.5484C6.23481 44.2029 6.76566 44.7337 7.42072 44.7337H13.4269C14.0813 44.7337 14.6122 44.2029 14.6122 43.5484Z" fill="#42DFF4"/>
<path d="M17.5364 42.3632C16.8814 42.3632 16.3512 42.8934 16.3512 43.5484C16.3512 44.2029 16.8814 44.7337 17.5364 44.7337H20.3816C21.0361 44.7337 21.5669 44.2029 21.5669 43.5484C21.5669 42.8934 21.0361 42.3632 20.3816 42.3632H17.5364Z" fill="#42DFF4"/>
<path d="M17.6155 47.7329C17.6155 47.0785 17.0847 46.5476 16.4296 46.5476H12.4783C11.8238 46.5476 11.293 47.0785 11.293 47.7329C11.293 48.388 11.8238 48.9188 12.4783 48.9188H16.4296C17.0847 48.9188 17.6155 48.388 17.6155 47.7329Z" fill="#42DFF4"/>
<path d="M18.3268 50.8821H16.2721C15.617 50.8821 15.0862 51.4123 15.0862 52.0674C15.0862 52.7218 15.617 53.2527 16.2721 53.2527H18.3268C18.9813 53.2527 19.5121 52.7218 19.5121 52.0674C19.5121 51.4123 18.9813 50.8821 18.3268 50.8821Z" fill="#42DFF4"/>
<path d="M35.0809 50.8821H31.1296C30.4751 50.8821 29.9443 51.4123 29.9443 52.0674C29.9443 52.7218 30.4751 53.2527 31.1296 53.2527H35.0809C35.736 53.2527 36.2662 52.7218 36.2662 52.0674C36.2662 51.4123 35.736 50.8821 35.0809 50.8821Z" fill="#42DFF4"/>
<path d="M30.7347 47.7329C30.7347 47.0785 30.2038 46.5476 29.5488 46.5476H20.0652C19.4108 46.5476 18.8799 47.0785 18.8799 47.7329C18.8799 48.388 19.4108 48.9188 20.0652 48.9188H29.5488C30.2038 48.9188 30.7347 48.388 30.7347 47.7329Z" fill="#42DFF4"/>
<path d="M27.494 50.8821H21.8042C21.1492 50.8821 20.6183 51.4123 20.6183 52.0674C20.6183 52.7218 21.1492 53.2527 21.8042 53.2527H27.494C28.149 53.2527 28.6799 52.7218 28.6799 52.0674C28.6799 51.4123 28.149 50.8821 27.494 50.8821Z" fill="#42DFF4"/>
<path d="M7.42072 34.801H10.7399C11.3943 34.801 11.9252 34.2701 11.9252 33.6157C11.9252 32.9606 11.3943 32.4304 10.7399 32.4304H7.42072C6.76566 32.4304 6.23481 32.9606 6.23481 33.6157C6.23481 34.2701 6.76566 34.801 7.42072 34.801Z" fill="#42DFF4"/>
<path d="M27.4149 33.6157C27.4149 32.9606 26.8846 32.4304 26.2296 32.4304H14.0591C13.4046 32.4304 12.8738 32.9606 12.8738 33.6157C12.8738 34.2701 13.4046 34.801 14.0591 34.801H26.2296C26.8846 34.801 27.4149 34.2701 27.4149 33.6157Z" fill="#42DFF4"/>
<path d="M25.2025 37.8C25.2025 37.1456 24.6717 36.6147 24.0166 36.6147H12.4783C11.8238 36.6147 11.293 37.1456 11.293 37.8C11.293 38.4551 11.8238 38.9859 12.4783 38.9859H24.0166C24.6717 38.9859 25.2025 38.4551 25.2025 37.8Z" fill="#42DFF4"/>
<path d="M27.3364 38.9859H29.5488C30.2038 38.9859 30.7347 38.4551 30.7347 37.8C30.7347 37.1456 30.2038 36.6147 29.5488 36.6147H27.3364C26.6813 36.6147 26.1505 37.1456 26.1505 37.8C26.1505 38.4551 26.6813 38.9859 27.3364 38.9859Z" fill="#42DFF4"/>
<path d="M54.2661 45.8239H46.6798C46.0247 45.8239 45.4939 46.3547 45.4939 47.0091C45.4939 47.6642 46.0247 48.1944 46.6798 48.1944H54.2661C54.9212 48.1944 55.452 47.6642 55.452 47.0091C55.452 46.3547 54.9212 45.8239 54.2661 45.8239Z" fill="#42DFF4"/>
<path d="M73.5496 45.8239H58.5339C57.8795 45.8239 57.3486 46.3547 57.3486 47.0091C57.3486 47.6642 57.8795 48.1944 58.5339 48.1944H73.5496C74.2047 48.1944 74.7355 47.6642 74.7355 47.0091C74.7355 46.3547 74.2047 45.8239 73.5496 45.8239Z" fill="#42DFF4"/>
<path d="M54.2661 50.4075H46.6798C46.0247 50.4075 45.4939 50.9383 45.4939 51.5934C45.4939 52.2478 46.0247 52.7787 46.6798 52.7787H54.2661C54.9212 52.7787 55.452 52.2478 55.452 51.5934C55.452 50.9383 54.9212 50.4075 54.2661 50.4075Z" fill="#42DFF4"/>
<path d="M73.5496 50.4075H58.5339C57.8795 50.4075 57.3486 50.9383 57.3486 51.5934C57.3486 52.2478 57.8795 52.7787 58.5339 52.7787H73.5496C74.2047 52.7787 74.7355 52.2478 74.7355 51.5934C74.7355 50.9383 74.2047 50.4075 73.5496 50.4075Z" fill="#42DFF4"/>
<path d="M74.7714 21.5428C74.7714 19.8539 73.3976 18.4795 71.7087 18.4795H48.5208C46.8318 18.4795 45.4574 19.8539 45.4574 21.5428V37.598V37.5992V40.4073C45.4574 42.0963 46.8318 43.4706 48.5208 43.4706H71.7087C73.3976 43.4706 74.7714 42.0963 74.7714 40.4073V21.5428ZM72.4008 40.4073C72.4008 40.7892 72.09 41.0994 71.7087 41.0994H48.5208C48.1389 41.0994 47.8286 40.7892 47.8286 40.4073V38.0899L56.5113 29.4116L62.5038 36.1649C62.9383 36.6549 63.6879 36.6994 64.1773 36.265C64.6674 35.8305 64.7119 35.0815 64.2774 34.5915L63.7336 33.9791L66.4132 31.3007L72.4008 38.0491V40.4073ZM72.4008 34.4765L67.8382 29.3349C67.4965 28.9499 67.0052 28.7201 66.4904 28.7046C65.9732 28.6898 65.4714 28.8894 65.1074 29.2534L62.1571 32.2018L57.9363 27.4458C57.5946 27.0602 57.1033 26.8303 56.5885 26.8154C56.0744 26.8012 55.5695 26.9996 55.2055 27.3636L47.8286 34.7373V21.5428C47.8286 21.1609 48.1389 20.8501 48.5208 20.8501H71.7087C72.0906 20.8501 72.4008 21.1609 72.4008 21.5428V34.4765Z" fill="#42DFF4"/>
</svg>
