<svg width="414" height="284" viewBox="0 0 414 284" fill="none" xmlns="http://www.w3.org/2000/svg">
<g clip-path="url(#clip0)">
<path d="M405.035 100.32C405.035 98.8721 404.653 97.4492 403.927 96.1949C403.202 94.9406 402.159 93.899 400.903 93.1748V69.9855H400.752V69.903H382.919L195.592 21.8447L0 76.8641V86.4904L93.6125 121.772L88.1576 215.772C137.961 229.932 177.166 235.068 207.96 234.83H208.646H209.584C300.138 233.607 316.955 185.534 316.955 185.534C312.05 160.053 312.735 131.782 313.552 117.636L395.331 81.0098L394.169 74.0583H395.404V92.1845C393.672 92.4766 392.079 93.3117 390.855 94.5688C389.631 95.8259 388.84 97.4396 388.596 99.176C388.352 100.912 388.669 102.681 389.499 104.226C390.33 105.77 391.632 107.011 393.216 107.767L387.139 122.33C387.774 123.135 388.631 123.737 389.604 124.063L373.366 167.719C375.107 169.112 376.972 170.344 378.937 171.398L381.558 173.141L381.621 172.709C386.055 174.651 391.641 175.874 396.692 173.486L398.063 173.141L397.845 172.869C398.961 172.194 399.986 171.379 400.893 170.442L399.517 123.68L398.34 108.398C400.221 108.035 401.916 107.031 403.138 105.557C404.359 104.084 405.029 102.233 405.035 100.32Z" fill="url(#paint0_linear)"/>
<path d="M313.819 184.02C313.819 184.02 284.309 268.403 91.1524 213.486L96.5295 121.068L245.425 99.636L311.155 109.01C311.155 109.01 307.11 149.194 313.819 184.02Z" fill="#42DFF4"/>
<path opacity="0.15" d="M96.5052 121.068V129.102L207.844 167.947L305.768 126.427L307.11 118.388L207.844 154.553L96.5052 121.068Z" fill="black"/>
<path opacity="0.15" d="M311.286 109.015L245.556 99.6409L243.402 99.9515L306.959 109.019C306.959 109.019 302.934 149.199 309.643 184.024C309.643 184.024 293.113 231.301 203.779 232.049C296.896 232.82 313.965 184.024 313.965 184.024C307.261 149.194 311.286 109.015 311.286 109.015Z" fill="black"/>
<path d="M395.72 71.5098H390.353V95.6942H395.72V71.5098Z" fill="#42DFF4"/>
<path opacity="0.1" d="M395.72 71.5098H390.353V95.6942H395.72V71.5098Z" fill="black"/>
<path d="M368.893 166.68C368.893 166.68 384.99 180.223 395.72 169.359L394.378 123.82L386.332 119.801L368.893 166.68Z" fill="#42DFF4"/>
<path opacity="0.1" d="M368.893 166.68C368.893 166.68 384.99 180.223 395.72 169.359L394.378 123.82L386.332 119.801L368.893 166.68Z" fill="black"/>
<path d="M5.28955 78.2089V87.5827L207.844 163.927L390.275 82.2283L388.938 74.1895L206.502 154.554L5.28955 78.2089Z" fill="#42DFF4"/>
<path opacity="0.07" d="M5.28955 78.2089V87.5827L207.844 163.927L390.275 82.2283L388.938 74.1895L206.502 154.554L5.28955 78.2089Z" fill="black"/>
<path d="M5.28955 78.2088L207.474 156.495L388.938 74.1894L195.772 24.6311L5.28955 78.2088Z" fill="#42DFF4"/>
<path d="M199.758 79.4758C207.145 79.4758 213.133 75.5941 213.133 70.8059C213.133 66.0176 207.145 62.136 199.758 62.136C192.372 62.136 186.384 66.0176 186.384 70.8059C186.384 75.5941 192.372 79.4758 199.758 79.4758Z" fill="#42DFF4"/>
<path opacity="0.1" d="M199.758 79.4758C207.145 79.4758 213.133 75.5941 213.133 70.8059C213.133 66.0176 207.145 62.136 199.758 62.136C192.372 62.136 186.384 66.0176 186.384 70.8059C186.384 75.5941 192.372 79.4758 199.758 79.4758Z" fill="black"/>
<path d="M395.569 71.4368H209.112V75.4562H395.569V71.4368Z" fill="#42DFF4"/>
<path opacity="0.1" d="M395.569 71.4368H209.112V75.4562H395.569V71.4368Z" fill="black"/>
<path d="M391.694 109.088C396.138 109.088 399.741 105.491 399.741 101.054C399.741 96.6165 396.138 93.0195 391.694 93.0195C387.251 93.0195 383.648 96.6165 383.648 101.054C383.648 105.491 387.251 109.088 391.694 109.088Z" fill="#42DFF4"/>
<path opacity="0.1" d="M391.694 109.088C396.138 109.088 399.741 105.491 399.741 101.054C399.741 96.6165 396.138 93.0195 391.694 93.0195C387.251 93.0195 383.648 96.6165 383.648 101.054C383.648 105.491 387.251 109.088 391.694 109.088Z" fill="black"/>
<path d="M382.306 122.481C382.306 122.481 384.99 126.646 394.378 123.82L393.036 106.408H389.011L382.306 122.481Z" fill="#42DFF4"/>
<path opacity="0.1" d="M382.306 122.481C382.306 122.481 384.99 126.646 394.378 123.82L393.036 106.408H389.011L382.306 122.481Z" fill="black"/>
<path opacity="0.2" d="M372.841 169.286L378.203 162.587L376.861 171.966L372.841 169.286Z" fill="white"/>
<path opacity="0.2" d="M387.596 165.267V173.306L392.958 171.966L387.596 165.267Z" fill="white"/>
<path opacity="0.15" d="M117.97 169.286C117.97 169.286 158.21 182.68 182.358 174.626L117.97 169.286Z" fill="black"/>
<path opacity="0.15" d="M227.417 178.641C227.417 178.641 269.753 181.291 291.032 167.35L227.417 178.641Z" fill="black"/>
<path opacity="0.15" d="M256.48 210.437C256.48 210.437 281.095 201.136 293.711 191.65L256.48 210.437Z" fill="black"/>
<path opacity="0.15" d="M107.225 189.379C107.225 189.379 150.164 206.796 160.899 200.092L107.225 189.379Z" fill="black"/>
<path d="M18.9551 176.108C22.3807 167.344 24.0911 159.824 22.7754 159.311C21.4597 158.798 17.6162 165.487 14.1906 174.251C10.765 183.015 9.05465 190.535 10.3703 191.048C11.686 191.56 15.5296 184.872 18.9551 176.108Z" fill="#E0E0E0"/>
<path d="M239.903 262.312C243.329 253.549 245.38 246.161 244.484 245.812C243.589 245.463 240.086 252.285 236.66 261.049C233.235 269.813 231.184 277.2 232.079 277.549C232.975 277.898 236.478 271.076 239.903 262.312Z" fill="#E0E0E0"/>
<path d="M122.421 229.958L113.981 224.171L94.6623 252.258L103.102 258.046L122.421 229.958Z" fill="#F55F44"/>
<path opacity="0.05" d="M106.814 259.827L118.215 261.459L123.058 227.732L111.657 226.099L106.814 259.827Z" fill="black"/>
<path d="M107.446 260.328L117.582 261.76L122.36 228.027L112.223 226.596L107.446 260.328Z" fill="#F55F44"/>
<path d="M23.0803 158.514L10.053 191.843L231.78 278.248L244.807 244.92L23.0803 158.514Z" fill="url(#paint1_linear)"/>
<path d="M232.094 277.476C227.762 275.854 7.19048 189.82 10.37 191.068C20.5116 172.136 22.7772 159.33 22.7772 159.33L244.501 245.738C244.501 245.738 238.205 259.466 232.094 277.476Z" fill="#F5F5F5"/>
<path opacity="0.05" d="M138.74 203.063L120.491 196.01L108.206 227.697L126.455 234.751L138.74 203.063Z" fill="black"/>
<path d="M137.229 203.918L120.539 197.414L108.132 229.155L124.822 235.659L137.229 203.918Z" fill="#F55F44"/>
<path opacity="0.05" d="M134.05 202.681L122.923 198.344L110.516 230.085L121.643 234.422L134.05 202.681Z" fill="black"/>
<path d="M133.258 202.372L123.72 198.655L111.313 230.396L120.851 234.113L133.258 202.372Z" fill="#F55F44"/>
<path d="M154.354 275.176C155.141 275.164 155.769 274.518 155.757 273.733C155.745 272.947 155.098 272.32 154.311 272.332C153.525 272.344 152.897 272.99 152.908 273.775C152.92 274.561 153.567 275.188 154.354 275.176Z" fill="#DBDBDB"/>
<g opacity="0.5">
<path opacity="0.5" d="M43.0506 233.98H41.592V242.233H43.0506V233.98Z" fill="#47E6B1"/>
<path opacity="0.5" d="M46.4538 238.835V237.378H38.1888V238.835H46.4538Z" fill="#47E6B1"/>
</g>
<g opacity="0.5">
<path opacity="0.5" d="M410.597 131.068H409.138V139.32H410.597V131.068Z" fill="#47E6B1"/>
<path opacity="0.5" d="M414 135.922V134.466H405.735V135.922H414Z" fill="#47E6B1"/>
</g>
<g opacity="0.5">
<path opacity="0.5" d="M51.8017 28.6409H50.3432V36.8933H51.8017V28.6409Z" fill="#47E6B1"/>
<path opacity="0.5" d="M55.2049 33.4951V32.0388H46.9399V33.4951H55.2049Z" fill="#47E6B1"/>
</g>
<g opacity="0.5">
<path opacity="0.5" d="M366.841 16.0195H365.383V24.272H366.841V16.0195Z" fill="#47E6B1"/>
<path opacity="0.5" d="M370.244 20.8738V19.4175H361.98V20.8738H370.244Z" fill="#47E6B1"/>
</g>
<path opacity="0.5" d="M33.2785 123.039C32.8805 122.86 32.5619 122.542 32.3827 122.145C32.2036 121.748 32.1763 121.299 32.3061 120.883C32.3269 120.819 32.34 120.752 32.345 120.684C32.3574 120.492 32.3073 120.301 32.2022 120.14C32.0971 119.978 31.9426 119.855 31.7617 119.789C31.5808 119.722 31.3832 119.716 31.1983 119.77C31.0135 119.825 30.8512 119.938 30.7358 120.092C30.6967 120.146 30.6641 120.205 30.6386 120.267C30.4598 120.664 30.1415 120.982 29.7438 121.161C29.346 121.34 28.8964 121.367 28.48 121.238C28.4153 121.217 28.3484 121.204 28.2806 121.199C28.0882 121.187 27.897 121.237 27.7353 121.341C27.5737 121.446 27.4504 121.601 27.3837 121.781C27.317 121.962 27.3106 122.159 27.3653 122.344C27.4201 122.528 27.5331 122.69 27.6875 122.806C27.7418 122.845 27.8006 122.877 27.8625 122.903C28.2604 123.081 28.5791 123.399 28.7583 123.796C28.9374 124.193 28.9647 124.642 28.8349 125.058C28.8141 125.123 28.801 125.19 28.796 125.257C28.7756 125.453 28.8205 125.65 28.9235 125.817C29.0266 125.985 29.1822 126.113 29.3661 126.184C29.55 126.254 29.7521 126.262 29.9408 126.206C30.1296 126.15 30.2945 126.033 30.4101 125.874C30.4492 125.819 30.4818 125.761 30.5073 125.699C30.686 125.302 31.0044 124.983 31.4021 124.804C31.7998 124.626 32.2494 124.598 32.6659 124.728C32.7306 124.749 32.7975 124.762 32.8652 124.767C33.0576 124.779 33.2489 124.729 33.4105 124.624C33.5721 124.519 33.6955 124.365 33.7622 124.184C33.8288 124.004 33.8353 123.806 33.7805 123.622C33.7258 123.437 33.6128 123.275 33.4584 123.16C33.4038 123.112 33.3433 123.071 33.2785 123.039Z" fill="#4D8AF0"/>
<path opacity="0.5" d="M116.9 27.4078C116.502 27.2294 116.184 26.9115 116.004 26.5144C115.825 26.1173 115.798 25.6683 115.928 25.2525C115.949 25.1879 115.962 25.1211 115.967 25.0535C115.979 24.8614 115.929 24.6704 115.824 24.509C115.719 24.3476 115.564 24.2245 115.383 24.1579C115.202 24.0913 115.005 24.0849 114.82 24.1395C114.635 24.1942 114.473 24.307 114.357 24.4612C114.318 24.5155 114.286 24.5742 114.26 24.636C114.081 25.0333 113.763 25.3515 113.365 25.5304C112.968 25.7093 112.518 25.7365 112.102 25.6069C112.037 25.5861 111.97 25.5731 111.902 25.568C111.71 25.5556 111.519 25.6057 111.357 25.7106C111.195 25.8156 111.072 25.9699 111.005 26.1505C110.939 26.3311 110.932 26.5284 110.987 26.713C111.042 26.8976 111.155 27.0596 111.309 27.1748C111.363 27.2139 111.422 27.2465 111.484 27.2719C111.882 27.4504 112.201 27.7682 112.38 28.1654C112.559 28.5625 112.586 29.0114 112.457 29.4273C112.436 29.4918 112.423 29.5586 112.418 29.6263C112.397 29.8219 112.442 30.0187 112.545 30.1862C112.648 30.3537 112.804 30.4826 112.988 30.5529C113.172 30.6231 113.374 30.6308 113.562 30.5748C113.751 30.5187 113.916 30.402 114.032 30.2428C114.071 30.1885 114.103 30.1299 114.129 30.068C114.308 29.6707 114.626 29.3525 115.024 29.1736C115.421 28.9947 115.871 28.9675 116.288 29.0972C116.352 29.1179 116.419 29.131 116.487 29.136C116.679 29.1484 116.871 29.0984 117.032 28.9934C117.194 28.8885 117.317 28.7342 117.384 28.5536C117.45 28.3729 117.457 28.1756 117.402 27.991C117.347 27.8064 117.234 27.6445 117.08 27.5292C117.025 27.4813 116.965 27.4406 116.9 27.4078Z" fill="#4D8AF0"/>
<path opacity="0.5" d="M138.778 280.806C138.38 280.627 138.061 280.309 137.882 279.912C137.703 279.515 137.676 279.066 137.806 278.65C137.826 278.586 137.839 278.519 137.844 278.451C137.857 278.259 137.807 278.068 137.702 277.907C137.597 277.746 137.442 277.622 137.261 277.556C137.08 277.489 136.883 277.483 136.698 277.537C136.513 277.592 136.351 277.705 136.235 277.859C136.196 277.913 136.163 277.972 136.138 278.034C135.959 278.431 135.641 278.749 135.243 278.928C134.845 279.107 134.396 279.134 133.979 279.005C133.915 278.984 133.848 278.971 133.78 278.966C133.588 278.954 133.396 279.004 133.235 279.109C133.073 279.213 132.95 279.368 132.883 279.548C132.816 279.729 132.81 279.926 132.865 280.111C132.919 280.296 133.032 280.457 133.187 280.573C133.241 280.612 133.3 280.644 133.362 280.67C133.76 280.848 134.079 281.166 134.258 281.563C134.437 281.96 134.464 282.409 134.334 282.825C134.313 282.89 134.3 282.957 134.295 283.024C134.275 283.22 134.32 283.417 134.423 283.584C134.526 283.752 134.682 283.881 134.866 283.951C135.049 284.021 135.251 284.029 135.44 283.973C135.629 283.917 135.794 283.8 135.909 283.641C135.949 283.586 135.981 283.528 136.007 283.466C136.185 283.069 136.504 282.75 136.901 282.572C137.299 282.393 137.749 282.365 138.165 282.495C138.23 282.516 138.297 282.529 138.365 282.534C138.557 282.546 138.748 282.496 138.91 282.391C139.072 282.286 139.195 282.132 139.262 281.951C139.328 281.771 139.335 281.574 139.28 281.389C139.225 281.204 139.112 281.042 138.958 280.927C138.903 280.879 138.843 280.838 138.778 280.806Z" fill="#4D8AF0"/>
<path opacity="0.5" d="M396.498 218.447C398.109 218.447 399.415 217.143 399.415 215.534C399.415 213.925 398.109 212.621 396.498 212.621C394.887 212.621 393.581 213.925 393.581 215.534C393.581 217.143 394.887 218.447 396.498 218.447Z" fill="#F55F44"/>
<path opacity="0.5" d="M268.148 281.553C269.759 281.553 271.065 280.249 271.065 278.641C271.065 277.032 269.759 275.728 268.148 275.728C266.537 275.728 265.231 277.032 265.231 278.641C265.231 280.249 266.537 281.553 268.148 281.553Z" fill="#4D8AF0"/>
<path opacity="0.5" d="M317.738 227.67C319.349 227.67 320.655 226.366 320.655 224.757C320.655 223.149 319.349 221.845 317.738 221.845C316.127 221.845 314.821 223.149 314.821 224.757C314.821 226.366 316.127 227.67 317.738 227.67Z" fill="#47E6B1"/>
<path opacity="0.5" d="M227.31 5.82524C228.921 5.82524 230.227 4.52122 230.227 2.91262C230.227 1.30403 228.921 0 227.31 0C225.699 0 224.393 1.30403 224.393 2.91262C224.393 4.52122 225.699 5.82524 227.31 5.82524Z" fill="#F55F44"/>
</g>
<defs>
<linearGradient id="paint0_linear" x1="202.52" y1="234.835" x2="202.52" y2="21.8496" gradientUnits="userSpaceOnUse">
<stop stop-color="#808080" stop-opacity="0.25"/>
<stop offset="0.54" stop-color="#808080" stop-opacity="0.12"/>
<stop offset="1" stop-color="#808080" stop-opacity="0.1"/>
</linearGradient>
<linearGradient id="paint1_linear" x1="-262538" y1="613225" x2="-256177" y2="596901" gradientUnits="userSpaceOnUse">
<stop stop-color="#808080" stop-opacity="0.25"/>
<stop offset="0.54" stop-color="#808080" stop-opacity="0.12"/>
<stop offset="1" stop-color="#808080" stop-opacity="0.1"/>
</linearGradient>
<clipPath id="clip0">
<rect width="414" height="284" fill="white"/>
</clipPath>
</defs>
</svg>
