<svg width="258" height="258" viewBox="0 0 258 258" fill="none" xmlns="http://www.w3.org/2000/svg">
<path d="M129.251 254.455C198.994 254.455 255.531 197.918 255.531 128.176C255.531 58.4335 198.994 1.89618 129.251 1.89618C59.5091 1.89618 2.9718 58.4335 2.9718 128.176C2.9718 197.918 59.5091 254.455 129.251 254.455Z" fill="#F9FBFF"/>
<path d="M129.37 254.954C154.045 254.994 178.186 247.77 198.782 234.181C194.128 208.751 176.419 207.302 176.419 207.302H78.7639C78.7639 207.302 62.0531 208.673 56.8339 232.067C78.0687 247.004 103.408 254.999 129.37 254.954Z" fill="#42DFF4"/>
<path d="M128.028 186.466C161.69 186.466 188.979 159.177 188.979 125.514C188.979 91.8518 161.69 64.5629 128.028 64.5629C94.3652 64.5629 67.0763 91.8518 67.0763 125.514C67.0763 159.177 94.3652 186.466 128.028 186.466Z" fill="#603456"/>
<path opacity="0.1" d="M108.356 176.283H147.411V207.527C147.411 212.705 145.355 217.671 141.694 221.333C138.034 224.995 133.069 227.053 127.891 227.055C122.712 227.055 117.745 224.997 114.083 221.335C110.421 217.673 108.364 212.706 108.364 207.527V176.283H108.356Z" fill="black"/>
<path d="M109.595 174.834H146.188C146.516 174.834 146.831 174.964 147.063 175.197C147.295 175.429 147.426 175.744 147.426 176.072V206.078C147.426 208.644 146.921 211.184 145.94 213.554C144.958 215.924 143.519 218.078 141.705 219.891C139.891 221.705 137.737 223.144 135.367 224.125C132.997 225.106 130.456 225.611 127.891 225.61C122.712 225.61 117.745 223.552 114.083 219.89C110.421 216.228 108.364 211.261 108.364 206.082V176.072C108.364 175.745 108.493 175.431 108.724 175.199C108.954 174.967 109.267 174.836 109.595 174.834Z" fill="#FDB797"/>
<path opacity="0.1" d="M108.427 191.031C121.014 195.733 134.869 195.771 147.481 191.138V186.333H108.427V191.031Z" fill="black"/>
<path d="M128.028 193.644C158.945 193.644 184.008 168.581 184.008 137.664C184.008 106.747 158.945 81.684 128.028 81.684C97.1109 81.684 72.0478 106.747 72.0478 137.664C72.0478 168.581 97.1109 193.644 128.028 193.644Z" fill="#FDB797"/>
<path opacity="0.1" d="M88.1525 86.7442C88.1525 86.7442 111.746 134.633 178.297 106.822L162.802 82.5267L135.335 72.6688L88.1525 86.7442Z" fill="black"/>
<path d="M88.1525 86.0419C88.1525 86.0419 111.746 133.931 178.297 106.113L162.802 81.8171L135.335 71.9591L88.1525 86.0419Z" fill="#603456"/>
<path d="M87.9455 82.7966C89.5363 77.8721 92.2857 73.4013 95.9627 69.7598C106.974 58.8743 125.027 56.5789 134.286 44.1668C136.503 47.6117 134.788 52.9085 130.959 54.387C139.83 54.3279 150.109 53.5516 155.125 46.2552C156.365 49.141 156.76 52.3193 156.265 55.4208C155.769 58.5222 154.404 61.4194 152.327 63.7755C160.189 64.1452 168.591 69.4678 169.086 77.3224C169.426 82.5563 166.129 87.5093 161.845 90.5107C157.561 93.5121 152.342 94.8908 147.223 96.0182C132.275 99.3189 78.191 113.132 87.9455 82.7966Z" fill="#603456"/>
<path d="M72.0256 147.378C74.9019 147.378 77.2337 143.006 77.2337 137.612C77.2337 132.219 74.9019 127.847 72.0256 127.847C69.1493 127.847 66.8176 132.219 66.8176 137.612C66.8176 143.006 69.1493 147.378 72.0256 147.378Z" fill="#FDB797"/>
<path d="M184.001 147.378C186.877 147.378 189.209 143.006 189.209 137.612C189.209 132.219 186.877 127.847 184.001 127.847C181.124 127.847 178.792 132.219 178.792 137.612C178.792 143.006 181.124 147.378 184.001 147.378Z" fill="#FDB797"/>
</svg>
