<svg width="1090" height="857" viewBox="0 0 1090 857" fill="none" xmlns="http://www.w3.org/2000/svg">
<path d="M17.6317 635.751C-13.1107 356.526 228.458 95.5734 353.086 0H1090V672.777C944.968 574.524 673.621 680.001 556.076 745.021C389.404 824.942 48.3741 914.976 17.6317 635.751Z" fill="url(#paint0_linear)" fill-opacity="0.45"/>
<g filter="url(#filter0_f)">
<path d="M317.823 398.505C417.504 266.905 691.692 89.683 967.482 398.505C938.89 398.505 520.503 395.58 317.823 398.505Z" fill="#FDCA40" fill-opacity="0.21"/>
</g>
<path d="M245.918 345.279C245.918 345.279 243.807 338.13 246.315 332.87C247.381 330.668 247.701 328.18 247.226 325.78C246.995 324.642 246.658 323.527 246.222 322.45" fill="#42AFF4"/>
<path d="M247.784 319.129C247.784 319.972 246.196 322.501 246.196 322.501C246.196 322.501 244.601 319.972 244.601 319.129C244.585 318.91 244.614 318.691 244.687 318.484C244.76 318.278 244.874 318.089 245.024 317.928C245.173 317.768 245.354 317.64 245.555 317.552C245.756 317.465 245.973 317.42 246.192 317.42C246.411 317.42 246.628 317.465 246.829 317.552C247.031 317.64 247.211 317.768 247.361 317.928C247.51 318.089 247.625 318.278 247.697 318.484C247.77 318.691 247.8 318.91 247.784 319.129Z" fill="#42AFF4"/>
<path d="M250.409 323.985C249.937 324.718 247.218 325.991 247.218 325.991C247.218 325.991 247.269 322.99 247.741 322.256C247.971 321.903 248.332 321.655 248.744 321.568C249.157 321.48 249.587 321.559 249.941 321.789C250.295 322.018 250.543 322.378 250.631 322.79C250.718 323.202 250.639 323.631 250.409 323.985V323.985Z" fill="#42AFF4"/>
<path d="M250.3 332.28C249.514 332.676 246.526 332.398 246.526 332.398C246.526 332.398 248.079 329.869 248.864 329.447C249.051 329.353 249.254 329.297 249.462 329.281C249.67 329.265 249.879 329.291 250.077 329.356C250.276 329.421 250.459 329.524 250.618 329.66C250.776 329.795 250.906 329.961 251 330.147C251.095 330.333 251.151 330.536 251.167 330.744C251.183 330.951 251.157 331.16 251.092 331.358C251.027 331.556 250.924 331.74 250.788 331.898C250.652 332.056 250.486 332.186 250.3 332.28V332.28Z" fill="#42AFF4"/>
<path d="M248.797 338.535C248.088 339.058 245.099 339.294 245.099 339.294C245.099 339.294 246.196 336.503 246.906 335.981C247.243 335.775 247.646 335.702 248.034 335.776C248.423 335.851 248.769 336.068 249.006 336.384C249.243 336.701 249.352 337.094 249.314 337.488C249.275 337.881 249.091 338.245 248.797 338.51V338.535Z" fill="#42AFF4"/>
<path d="M243.875 326.16C244.508 326.767 247.437 327.399 247.437 327.399C247.437 327.399 246.72 324.49 246.095 323.883C245.793 323.589 245.386 323.427 244.964 323.433C244.542 323.438 244.139 323.611 243.845 323.913C243.551 324.215 243.388 324.621 243.394 325.042C243.399 325.464 243.572 325.866 243.875 326.16V326.16Z" fill="#42AFF4"/>
<path d="M242.211 333.502C242.997 333.89 245.985 333.62 245.985 333.62C245.985 333.62 244.432 331.091 243.647 330.661C243.273 330.498 242.85 330.483 242.466 330.621C242.082 330.759 241.765 331.039 241.581 331.403C241.397 331.767 241.36 332.187 241.477 332.578C241.595 332.968 241.857 333.299 242.211 333.502V333.502Z" fill="#42AFF4"/>
<path d="M241.578 340.853C242.279 341.376 245.276 341.612 245.276 341.612C245.276 341.612 244.17 338.822 243.469 338.307C243.305 338.16 243.112 338.048 242.903 337.979C242.693 337.91 242.471 337.886 242.251 337.907C242.032 337.929 241.819 337.996 241.627 338.104C241.434 338.213 241.267 338.36 241.135 338.536C241.003 338.713 240.909 338.915 240.86 339.13C240.81 339.345 240.806 339.568 240.848 339.784C240.89 340.001 240.976 340.206 241.102 340.387C241.228 340.568 241.39 340.721 241.578 340.836V340.853Z" fill="#42AFF4"/>
<g opacity="0.7">
<path opacity="0.7" d="M245.918 345.279C245.918 345.279 243.807 338.13 246.315 332.87C247.381 330.668 247.702 328.18 247.226 325.78C246.995 324.642 246.658 323.527 246.222 322.45" fill="#00BFB2"/>
<path opacity="0.7" d="M247.784 319.129C247.784 319.972 246.196 322.501 246.196 322.501C246.196 322.501 244.601 319.972 244.601 319.129C244.585 318.91 244.614 318.691 244.687 318.484C244.76 318.278 244.874 318.089 245.024 317.928C245.173 317.768 245.354 317.64 245.555 317.552C245.756 317.465 245.973 317.42 246.192 317.42C246.411 317.42 246.628 317.465 246.83 317.552C247.031 317.64 247.211 317.768 247.361 317.928C247.51 318.089 247.625 318.278 247.697 318.484C247.77 318.691 247.8 318.91 247.784 319.129Z" fill="#00BFB2"/>
<path opacity="0.7" d="M250.409 323.985C249.937 324.718 247.218 325.991 247.218 325.991C247.218 325.991 247.269 322.99 247.741 322.256C247.971 321.903 248.332 321.655 248.744 321.568C249.157 321.48 249.587 321.559 249.941 321.789C250.295 322.018 250.543 322.378 250.631 322.79C250.719 323.202 250.639 323.631 250.409 323.985V323.985Z" fill="#00BFB2"/>
<path opacity="0.7" d="M250.3 332.28C249.514 332.676 246.526 332.398 246.526 332.398C246.526 332.398 248.079 329.869 248.864 329.447C249.051 329.353 249.254 329.297 249.462 329.281C249.67 329.265 249.879 329.291 250.077 329.356C250.276 329.42 250.459 329.524 250.618 329.66C250.776 329.795 250.906 329.961 251 330.147C251.095 330.333 251.151 330.536 251.167 330.744C251.183 330.951 251.157 331.16 251.092 331.358C251.027 331.556 250.924 331.74 250.788 331.898C250.652 332.056 250.486 332.186 250.3 332.28V332.28Z" fill="#00BFB2"/>
<path opacity="0.7" d="M248.797 338.535C248.088 339.058 245.099 339.294 245.099 339.294C245.099 339.294 246.196 336.503 246.906 335.981C247.243 335.775 247.645 335.702 248.034 335.776C248.423 335.851 248.769 336.068 249.006 336.384C249.243 336.701 249.352 337.094 249.314 337.488C249.275 337.881 249.091 338.245 248.797 338.51V338.535Z" fill="#00BFB2"/>
<path opacity="0.7" d="M243.875 326.16C244.508 326.767 247.437 327.399 247.437 327.399C247.437 327.399 246.72 324.49 246.095 323.883C245.793 323.589 245.386 323.427 244.964 323.433C244.542 323.438 244.139 323.611 243.845 323.913C243.551 324.215 243.388 324.621 243.394 325.042C243.399 325.464 243.572 325.866 243.875 326.16V326.16Z" fill="#00BFB2"/>
<path opacity="0.7" d="M242.211 333.502C242.997 333.89 245.985 333.62 245.985 333.62C245.985 333.62 244.432 331.091 243.647 330.661C243.273 330.498 242.85 330.483 242.466 330.621C242.082 330.759 241.765 331.039 241.581 331.403C241.397 331.767 241.36 332.187 241.477 332.578C241.595 332.968 241.857 333.299 242.211 333.502V333.502Z" fill="#00BFB2"/>
<path opacity="0.7" d="M241.578 340.853C242.279 341.376 245.276 341.612 245.276 341.612C245.276 341.612 244.17 338.822 243.469 338.307C243.305 338.16 243.112 338.048 242.903 337.979C242.693 337.91 242.471 337.886 242.251 337.907C242.032 337.929 241.819 337.996 241.627 338.104C241.434 338.213 241.267 338.36 241.135 338.536C241.003 338.713 240.909 338.915 240.86 339.13C240.81 339.345 240.806 339.568 240.848 339.784C240.89 340.001 240.976 340.206 241.102 340.387C241.228 340.568 241.39 340.721 241.578 340.836V340.853Z" fill="#00BFB2"/>
</g>
<path d="M455.139 314.914C455.139 314.914 453.029 307.757 455.536 302.496C456.604 300.295 456.924 297.806 456.448 295.406C456.216 294.271 455.88 293.159 455.443 292.085" fill="#42AFF4"/>
<path d="M457.005 288.755C457.005 289.598 455.418 292.178 455.418 292.178C455.418 292.178 453.822 289.649 453.822 288.755C453.852 288.354 454.032 287.978 454.327 287.704C454.623 287.43 455.011 287.278 455.414 287.278C455.817 287.278 456.205 287.43 456.5 287.704C456.796 287.978 456.976 288.354 457.005 288.755V288.755Z" fill="#42AFF4"/>
<path d="M459.631 293.611C459.158 294.344 456.44 295.617 456.44 295.617C456.44 295.617 456.49 292.624 456.963 291.883C457.193 291.529 457.553 291.282 457.966 291.194C458.378 291.106 458.809 291.186 459.162 291.415C459.516 291.644 459.764 292.004 459.852 292.416C459.94 292.828 459.861 293.258 459.631 293.611V293.611Z" fill="#42AFF4"/>
<path d="M459.521 301.906C458.736 302.302 455.747 302.033 455.747 302.033C455.747 302.033 457.301 299.503 458.086 299.074C458.462 298.883 458.899 298.85 459.299 298.982C459.7 299.113 460.032 299.398 460.222 299.773C460.412 300.149 460.445 300.585 460.314 300.985C460.183 301.385 459.897 301.716 459.521 301.906V301.906Z" fill="#42AFF4"/>
<path d="M458.018 308.17C457.309 308.684 454.32 308.92 454.32 308.92C454.32 308.92 455.418 306.138 456.127 305.615C456.465 305.409 456.867 305.336 457.256 305.411C457.644 305.486 457.991 305.702 458.227 306.019C458.464 306.336 458.574 306.729 458.535 307.122C458.497 307.515 458.312 307.88 458.018 308.144V308.17Z" fill="#42AFF4"/>
<path d="M453.096 295.786C453.73 296.401 456.659 297.033 456.659 297.033C456.659 297.033 455.942 294.125 455.317 293.51C455.167 293.364 454.99 293.249 454.796 293.172C454.602 293.095 454.395 293.056 454.186 293.059C453.977 293.062 453.77 293.106 453.578 293.188C453.386 293.27 453.213 293.39 453.067 293.539C452.921 293.689 452.806 293.865 452.729 294.059C452.651 294.253 452.613 294.46 452.616 294.669C452.618 294.877 452.662 295.083 452.745 295.275C452.827 295.467 452.947 295.64 453.096 295.786V295.786Z" fill="#42AFF4"/>
<path d="M451.433 303.128C452.218 303.525 455.207 303.246 455.207 303.246C455.207 303.246 453.653 300.717 452.868 300.296C452.682 300.202 452.479 300.145 452.271 300.13C452.063 300.114 451.853 300.139 451.655 300.204C451.457 300.269 451.273 300.372 451.115 300.508C450.957 300.644 450.827 300.81 450.732 300.996C450.638 301.182 450.581 301.384 450.566 301.592C450.55 301.8 450.575 302.009 450.64 302.207C450.705 302.405 450.809 302.588 450.945 302.746C451.081 302.905 451.247 303.034 451.433 303.128V303.128Z" fill="#42AFF4"/>
<path d="M450.8 310.488C451.501 311.011 454.498 311.238 454.498 311.238C454.498 311.238 453.392 308.456 452.691 307.934C452.527 307.786 452.334 307.674 452.124 307.605C451.915 307.536 451.693 307.512 451.473 307.533C451.253 307.555 451.041 307.622 450.848 307.73C450.656 307.839 450.489 307.986 450.356 308.163C450.224 308.339 450.131 308.541 450.081 308.756C450.032 308.971 450.028 309.194 450.07 309.41C450.111 309.627 450.198 309.832 450.324 310.013C450.449 310.195 450.612 310.348 450.8 310.463V310.488Z" fill="#42AFF4"/>
<g opacity="0.7">
<path opacity="0.7" d="M455.139 314.914C455.139 314.914 453.029 307.757 455.536 302.496C456.604 300.295 456.924 297.806 456.448 295.406C456.216 294.271 455.88 293.159 455.443 292.085" fill="#00BFB2"/>
<path opacity="0.7" d="M457.005 288.755C457.005 289.598 455.418 292.178 455.418 292.178C455.418 292.178 453.822 289.649 453.822 288.755C453.852 288.354 454.032 287.978 454.327 287.704C454.623 287.43 455.011 287.278 455.414 287.278C455.817 287.278 456.205 287.43 456.5 287.704C456.796 287.978 456.976 288.354 457.005 288.755V288.755Z" fill="#00BFB2"/>
<path opacity="0.7" d="M459.631 293.611C459.158 294.344 456.44 295.617 456.44 295.617C456.44 295.617 456.49 292.624 456.963 291.883C457.193 291.529 457.553 291.282 457.966 291.194C458.378 291.106 458.809 291.186 459.162 291.415C459.516 291.644 459.764 292.004 459.852 292.416C459.94 292.828 459.861 293.258 459.631 293.611V293.611Z" fill="#00BFB2"/>
<path opacity="0.7" d="M459.521 301.906C458.736 302.302 455.747 302.033 455.747 302.033C455.747 302.033 457.301 299.503 458.086 299.074C458.462 298.883 458.899 298.85 459.299 298.982C459.7 299.113 460.032 299.398 460.222 299.773C460.412 300.149 460.445 300.585 460.314 300.985C460.183 301.385 459.897 301.716 459.521 301.906V301.906Z" fill="#00BFB2"/>
<path opacity="0.7" d="M458.018 308.17C457.309 308.684 454.321 308.92 454.321 308.92C454.321 308.92 455.418 306.138 456.127 305.615C456.465 305.409 456.867 305.336 457.256 305.411C457.644 305.486 457.991 305.702 458.228 306.019C458.464 306.336 458.574 306.729 458.535 307.122C458.497 307.515 458.312 307.88 458.018 308.144V308.17Z" fill="#00BFB2"/>
<path opacity="0.7" d="M453.096 295.786C453.73 296.401 456.659 297.033 456.659 297.033C456.659 297.033 455.942 294.125 455.317 293.51C455.167 293.364 454.99 293.249 454.796 293.172C454.602 293.095 454.395 293.056 454.186 293.059C453.977 293.062 453.77 293.106 453.578 293.188C453.386 293.27 453.213 293.39 453.067 293.539C452.921 293.689 452.806 293.865 452.729 294.059C452.651 294.253 452.613 294.46 452.616 294.669C452.618 294.877 452.662 295.083 452.745 295.275C452.827 295.467 452.947 295.64 453.096 295.786V295.786Z" fill="#00BFB2"/>
<path opacity="0.7" d="M451.433 303.128C452.218 303.525 455.207 303.246 455.207 303.246C455.207 303.246 453.653 300.717 452.868 300.296C452.682 300.202 452.479 300.145 452.271 300.13C452.063 300.114 451.853 300.139 451.655 300.204C451.457 300.269 451.273 300.372 451.115 300.508C450.957 300.644 450.827 300.81 450.732 300.996C450.638 301.182 450.581 301.384 450.566 301.592C450.55 301.8 450.575 302.009 450.64 302.207C450.705 302.405 450.809 302.588 450.945 302.746C451.081 302.905 451.247 303.034 451.433 303.128V303.128Z" fill="#00BFB2"/>
<path opacity="0.7" d="M450.8 310.488C451.501 311.011 454.498 311.238 454.498 311.238C454.498 311.238 453.392 308.456 452.691 307.934C452.527 307.786 452.334 307.674 452.124 307.605C451.915 307.536 451.693 307.512 451.473 307.533C451.253 307.555 451.041 307.622 450.848 307.73C450.656 307.839 450.489 307.986 450.356 308.163C450.224 308.339 450.131 308.541 450.081 308.756C450.032 308.971 450.028 309.194 450.07 309.41C450.111 309.627 450.198 309.832 450.324 310.013C450.449 310.195 450.612 310.348 450.8 310.463V310.488Z" fill="#00BFB2"/>
</g>
<path d="M646.572 335.922C646.572 335.922 645.179 331.192 646.834 327.711C647.541 326.256 647.754 324.61 647.442 323.024C647.29 322.271 647.067 321.534 646.775 320.823" fill="#42AFF4"/>
<path d="M647.805 318.623C647.57 319.424 647.217 320.185 646.758 320.882C646.296 320.186 645.94 319.424 645.703 318.623C645.689 318.477 645.707 318.33 645.754 318.192C645.801 318.053 645.876 317.926 645.975 317.818C646.074 317.71 646.194 317.624 646.328 317.565C646.462 317.506 646.607 317.475 646.754 317.475C646.9 317.475 647.045 317.506 647.179 317.565C647.313 317.624 647.434 317.71 647.533 317.818C647.631 317.926 647.707 318.053 647.754 318.192C647.8 318.33 647.818 318.477 647.805 318.623V318.623Z" fill="#42AFF4"/>
<path d="M649.544 321.835C648.91 322.378 648.198 322.824 647.433 323.158C647.425 322.323 647.542 321.49 647.779 320.688C647.85 320.562 647.945 320.451 648.06 320.363C648.175 320.274 648.307 320.211 648.448 320.176C648.588 320.141 648.735 320.135 648.878 320.159C649.021 320.183 649.157 320.236 649.279 320.315C649.4 320.394 649.504 320.497 649.584 320.618C649.664 320.739 649.718 320.875 649.743 321.017C649.768 321.16 649.763 321.306 649.729 321.447C649.694 321.587 649.631 321.72 649.544 321.835Z" fill="#42AFF4"/>
<path d="M649.443 327.323C648.621 327.474 647.781 327.499 646.952 327.399C647.367 326.674 647.888 326.015 648.497 325.443C648.744 325.337 649.022 325.33 649.275 325.422C649.528 325.514 649.735 325.699 649.856 325.939C649.977 326.178 650.001 326.455 649.924 326.713C649.847 326.97 649.675 327.188 649.443 327.323V327.323Z" fill="#42AFF4"/>
<path d="M648.48 331.462C647.694 331.75 646.868 331.918 646.031 331.96C646.317 331.174 646.718 330.435 647.222 329.768C647.447 329.623 647.718 329.57 647.981 329.617C648.244 329.665 648.479 329.811 648.639 330.025C648.798 330.239 648.871 330.505 648.841 330.77C648.812 331.036 648.683 331.28 648.48 331.454V331.462Z" fill="#42AFF4"/>
<path d="M645.221 323.268C645.963 323.665 646.76 323.949 647.585 324.111C647.404 323.296 647.103 322.511 646.69 321.784C646.595 321.678 646.479 321.591 646.349 321.531C646.22 321.471 646.079 321.438 645.936 321.434C645.793 321.43 645.65 321.456 645.518 321.509C645.385 321.563 645.264 321.643 645.164 321.744C645.063 321.846 644.984 321.967 644.933 322.1C644.881 322.233 644.857 322.376 644.862 322.519C644.867 322.661 644.902 322.802 644.964 322.931C645.026 323.059 645.113 323.174 645.221 323.268V323.268Z" fill="#42AFF4"/>
<path d="M644.124 328.124C644.959 328.28 645.813 328.308 646.656 328.208C646.241 327.481 645.717 326.822 645.103 326.252C644.854 326.127 644.566 326.106 644.302 326.193C644.037 326.28 643.818 326.468 643.693 326.716C643.568 326.964 643.546 327.252 643.633 327.516C643.72 327.78 643.909 327.999 644.157 328.124H644.124Z" fill="#42AFF4"/>
<path d="M643.701 332.996C644.488 333.285 645.313 333.453 646.15 333.494C645.866 332.708 645.462 331.972 644.951 331.31C644.84 331.229 644.714 331.169 644.58 331.136C644.446 331.103 644.307 331.096 644.171 331.116C643.895 331.157 643.648 331.306 643.482 331.53C643.316 331.753 643.246 332.033 643.287 332.308C643.329 332.584 643.478 332.831 643.701 332.996Z" fill="#42AFF4"/>
<g opacity="0.7">
<path opacity="0.7" d="M646.572 335.922C646.572 335.922 645.179 331.192 646.834 327.711C647.541 326.256 647.754 324.61 647.442 323.024C647.29 322.271 647.066 321.534 646.775 320.823" fill="#00BFB2"/>
<path opacity="0.7" d="M647.805 318.623C647.57 319.424 647.217 320.185 646.758 320.882C646.296 320.186 645.94 319.424 645.702 318.623C645.689 318.477 645.707 318.33 645.754 318.192C645.801 318.053 645.876 317.926 645.975 317.818C646.074 317.71 646.194 317.624 646.328 317.565C646.462 317.506 646.607 317.475 646.754 317.475C646.9 317.475 647.045 317.506 647.179 317.565C647.313 317.624 647.434 317.71 647.532 317.818C647.631 317.926 647.707 318.053 647.753 318.192C647.8 318.33 647.818 318.477 647.805 318.623V318.623Z" fill="#00BFB2"/>
<path opacity="0.7" d="M649.544 321.835C648.91 322.378 648.198 322.824 647.433 323.158C647.425 322.323 647.542 321.49 647.779 320.688C647.85 320.562 647.945 320.451 648.06 320.363C648.175 320.274 648.307 320.211 648.448 320.176C648.588 320.141 648.735 320.135 648.878 320.159C649.021 320.183 649.157 320.236 649.279 320.315C649.4 320.394 649.504 320.497 649.584 320.618C649.664 320.739 649.718 320.875 649.743 321.017C649.768 321.16 649.763 321.306 649.729 321.447C649.694 321.587 649.631 321.72 649.544 321.835Z" fill="#00BFB2"/>
<path opacity="0.7" d="M649.443 327.323C648.621 327.474 647.781 327.499 646.952 327.399C647.367 326.674 647.888 326.015 648.497 325.443C648.744 325.337 649.022 325.33 649.275 325.422C649.528 325.514 649.735 325.699 649.856 325.939C649.977 326.178 650.001 326.455 649.924 326.713C649.847 326.97 649.675 327.188 649.443 327.323V327.323Z" fill="#00BFB2"/>
<path opacity="0.7" d="M648.48 331.462C647.694 331.75 646.868 331.918 646.031 331.96C646.317 331.174 646.718 330.435 647.222 329.768C647.447 329.623 647.718 329.57 647.981 329.617C648.244 329.665 648.479 329.811 648.639 330.025C648.798 330.239 648.871 330.505 648.841 330.77C648.812 331.036 648.683 331.28 648.48 331.454V331.462Z" fill="#00BFB2"/>
<path opacity="0.7" d="M645.221 323.268C645.963 323.665 646.759 323.949 647.585 324.111C647.404 323.295 647.102 322.511 646.69 321.784C646.595 321.678 646.479 321.591 646.349 321.531C646.219 321.471 646.079 321.438 645.936 321.434C645.792 321.43 645.65 321.456 645.517 321.509C645.385 321.563 645.264 321.643 645.163 321.744C645.063 321.846 644.984 321.967 644.932 322.1C644.88 322.233 644.856 322.376 644.862 322.519C644.867 322.661 644.902 322.802 644.964 322.93C645.025 323.059 645.113 323.174 645.221 323.268V323.268Z" fill="#00BFB2"/>
<path opacity="0.7" d="M644.124 328.124C644.959 328.28 645.813 328.308 646.656 328.208C646.241 327.481 645.717 326.822 645.103 326.252C644.854 326.127 644.566 326.106 644.302 326.193C644.037 326.28 643.818 326.468 643.693 326.716C643.568 326.964 643.546 327.252 643.633 327.516C643.72 327.78 643.909 327.999 644.157 328.124H644.124Z" fill="#00BFB2"/>
<path opacity="0.7" d="M643.701 332.996C644.488 333.285 645.313 333.453 646.15 333.494C645.866 332.708 645.462 331.972 644.951 331.31C644.84 331.229 644.714 331.169 644.58 331.136C644.446 331.103 644.307 331.096 644.171 331.116C643.895 331.157 643.648 331.306 643.482 331.53C643.316 331.753 643.246 332.033 643.287 332.308C643.329 332.584 643.478 332.831 643.701 332.996Z" fill="#00BFB2"/>
</g>
<path d="M251.169 258.12V299.714C251.169 306.568 242.684 309.94 238.074 304.865L237.914 304.688C236.42 303.002 234.376 300.987 232.325 301.872C231.724 302.213 231.159 302.611 230.636 303.061C231.049 303.968 231.404 304.9 231.7 305.851C233.473 311.752 232.088 318.05 230.197 323.883C228.306 329.717 225.874 335.483 225.554 341.587C225.485 344.53 225.657 347.473 226.069 350.388C226.71 355.943 227.377 361.6 229.699 366.683C230.974 369.465 232.772 372.273 232.392 375.307C222.378 375.752 212.361 374.483 202.775 371.556C209.403 364.879 209.394 354.299 208.955 344.917L207.883 322.24C207.773 320.022 207.655 317.738 206.642 315.757C205.257 313.068 202.42 311.382 199.448 310.699C196.464 310.166 193.419 310.067 190.406 310.404C190.181 309.225 190.404 308.005 191.031 306.981C195.751 309.017 200.797 310.196 205.933 310.463C206.25 310.563 206.588 310.579 206.913 310.508C207.239 310.437 207.539 310.282 207.786 310.058C208.032 309.834 208.215 309.55 208.316 309.233C208.418 308.917 208.434 308.579 208.364 308.254C208.558 304.498 208.214 300.734 207.342 297.076C204.615 297.725 202.201 299.874 199.398 299.664C195.717 299.385 193.538 295.272 190.111 294.007C187.451 293.029 184.53 293.889 181.752 294.395C178.975 294.901 175.665 294.867 173.833 292.709C171.528 289.986 172.989 285.67 171.477 282.432C169.35 277.813 162.916 277.728 157.859 278.361C159.887 275.311 162.899 273.047 166.395 271.945C164.563 268.674 158.028 268.894 158.374 264.957C158.479 264.023 158.931 263.163 159.64 262.546C161.515 260.826 163.395 259.112 165.28 257.403L156.913 254.242C154.549 253.357 151.848 252.109 152.16 249.007C152.308 247.844 152.851 246.767 153.697 245.955L154.229 245.416C156.448 243.237 159.441 242.024 162.553 242.044L211.522 227.932C216.159 226.596 221.044 226.357 225.79 227.234C230.536 228.112 235.012 230.081 238.863 232.986C242.714 235.892 245.834 239.653 247.976 243.971C250.118 248.29 251.223 253.048 251.203 257.867L251.169 258.12Z" fill="#134074" fill-opacity="0.69"/>
<path d="M643.997 277.256V300.304C643.984 301.139 643.723 301.951 643.247 302.637C642.771 303.323 642.102 303.853 641.324 304.159C640.546 304.465 639.695 304.534 638.878 304.356C638.062 304.179 637.316 303.763 636.736 303.162L636.652 303.061C635.807 302.134 634.693 301.012 633.553 301.501C633.219 301.688 632.905 301.908 632.616 302.159C632.843 302.664 633.04 303.182 633.207 303.71C634.186 306.956 633.418 310.454 632.363 313.7C631.307 316.945 629.973 320.124 629.83 323.521C629.791 325.15 629.887 326.78 630.117 328.394C630.472 331.471 630.843 334.607 632.126 337.422C632.835 338.965 633.815 340.525 633.621 342.202C628.071 342.454 622.519 341.749 617.208 340.12C620.88 336.428 620.88 330.56 620.636 325.359C620.433 321.172 620.236 316.982 620.045 312.789C620.073 311.557 619.837 310.332 619.352 309.198C618.929 308.472 618.354 307.845 617.666 307.361C616.979 306.876 616.195 306.546 615.367 306.391C613.715 306.097 612.029 306.043 610.361 306.231C610.235 305.577 610.358 304.901 610.707 304.334C613.322 305.465 616.118 306.119 618.964 306.264C619.14 306.319 619.327 306.326 619.507 306.285C619.687 306.245 619.853 306.158 619.989 306.034C620.125 305.909 620.225 305.751 620.281 305.576C620.337 305.4 620.346 305.214 620.306 305.034C620.418 302.955 620.23 300.871 619.749 298.846V298.846C618.238 299.2 616.895 300.397 615.342 300.279C613.307 300.119 612.092 297.843 610.175 297.143C608.698 296.604 607.085 297.076 605.54 297.354C603.995 297.632 602.163 297.615 601.158 296.426C599.875 294.917 600.677 292.523 599.849 290.728C598.667 288.199 595.105 288.123 592.302 288.468C593.426 286.781 595.094 285.529 597.03 284.919C596.016 283.098 592.394 283.233 592.58 281.05C592.641 280.53 592.894 280.052 593.289 279.709L596.413 276.86L591.778 275.107C590.47 274.618 588.958 273.926 589.144 272.207C589.224 271.565 589.522 270.97 589.988 270.521L590.292 270.217C590.899 269.616 591.618 269.14 592.409 268.818C593.2 268.495 594.047 268.332 594.902 268.337L622.012 260.548C624.579 259.814 627.283 259.687 629.908 260.176C632.533 260.666 635.009 261.758 637.138 263.368C639.267 264.977 640.993 267.059 642.177 269.449C643.362 271.839 643.973 274.472 643.963 277.138L643.997 277.256Z" fill="#134074" fill-opacity="0.62"/>
<path d="M936.693 263.777V279.937C936.698 280.521 936.877 281.091 937.209 281.572C937.54 282.054 938.007 282.426 938.552 282.64C939.096 282.855 939.692 282.903 940.263 282.777C940.834 282.651 941.355 282.358 941.759 281.935L941.818 281.868C942.4 281.218 943.194 280.426 943.996 280.772C944.229 280.906 944.45 281.061 944.654 281.235C944.492 281.588 944.354 281.951 944.241 282.323C943.548 284.607 944.089 287.069 944.832 289.345C945.575 291.621 946.52 293.855 946.639 296.241C946.664 297.385 946.596 298.53 946.436 299.664C946.296 301.838 945.818 303.976 945.018 306.003C944.528 307.091 943.827 308.186 943.971 309.375C947.871 309.547 951.771 309.051 955.504 307.908C952.92 305.312 952.92 301.164 953.097 297.539C953.232 294.597 953.376 291.638 953.511 288.713C953.489 287.845 953.653 286.983 953.992 286.184C954.29 285.673 954.694 285.232 955.178 284.892C955.662 284.551 956.213 284.319 956.795 284.211C957.957 284.003 959.143 283.963 960.316 284.093C960.397 283.634 960.31 283.161 960.071 282.761C958.234 283.556 956.27 284.015 954.271 284.118C954.147 284.14 954.019 284.138 953.896 284.11C953.773 284.083 953.656 284.031 953.553 283.958C953.469 283.863 953.406 283.752 953.367 283.632C953.328 283.512 953.313 283.385 953.325 283.259C953.245 281.797 953.379 280.332 953.722 278.909C954.777 279.162 955.723 279.996 956.812 279.912C958.247 279.802 959.092 278.226 960.443 277.712C961.481 277.332 962.612 277.669 963.701 277.863C964.791 278.057 966.065 278.049 966.775 277.206C967.678 276.152 967.112 274.466 967.695 273.21C968.539 271.414 971.072 271.381 972.997 271.625C972.215 270.423 971.039 269.529 969.671 269.096C970.388 267.815 972.93 267.907 972.794 266.373C972.758 266.01 972.583 265.675 972.305 265.437L970.11 263.431L973.369 262.2C974.289 261.854 975.344 261.357 975.218 260.16C975.156 259.71 974.945 259.295 974.618 258.98L974.407 258.769C973.981 258.346 973.475 258.011 972.919 257.783C972.362 257.556 971.766 257.441 971.165 257.446L952.109 251.949C950.304 251.429 948.403 251.337 946.555 251.678C944.708 252.019 942.966 252.786 941.466 253.916C939.967 255.047 938.752 256.51 937.918 258.191C937.083 259.872 936.652 261.724 936.659 263.6L936.693 263.777Z" fill="#134074" fill-opacity="0.5"/>
<path opacity="0.3" d="M761.702 402.256H800.545C814.852 402.256 760.351 437.669 748.329 446.185C734.532 455.94 715.833 459.583 698.153 463.672C673.355 469.406 648.951 476.703 625.088 485.518C620.772 487.12 616.338 488.848 613.33 491.799C609.983 495.088 608.853 499.43 606.839 503.359C598.955 518.688 578.404 526.681 560.248 534.649C542.092 542.616 522.866 554.378 522.017 570.904C521.66 577.481 525.321 584.842 533.061 587.118C542.407 589.892 555.711 584.968 561.463 591.511C563.757 594.133 563.604 597.632 563.009 600.786C559.186 620.912 541.769 637.362 525.763 653.179C518.074 660.768 510.938 672.892 520.351 679.132C527.87 684.115 541.438 681.012 546.969 687.445C548.872 689.671 549.212 692.504 549.229 695.194C549.348 714.51 534.743 733.422 513.096 741.955C499.095 747.486 483.148 748.776 467.575 749.653C447.882 750.775 410.37 751.34 408.401 751.34C406.433 751.34 393.568 753.17 384.28 755.406C371.199 758.555 375.691 755.858 351.73 766.694C327.769 777.531 316.466 796.269 293.862 809.589C271.257 822.91 266.284 824.49 229.664 824.941C193.044 825.393 143.741 810.667 139.697 807.783C63.7454 781.143 35.3344 709.515 33.9071 704.835C52.8951 742.312 19.8922 691.741 15.8233 612.272C14.3872 584.223 14.9192 577.956 17.1796 538.221C22.1527 496.681 24.8652 489.908 29.8383 466.88L38.4281 436.176L43.4011 420.824L48.3741 405.472C234.196 399.047 498.602 391.666 684.313 399.938C729.97 401.936 716.368 407.037 761.702 402.256Z" fill="#42AFF4"/>
<path d="M772.868 402.284C771.934 402.284 771.018 402.019 770.23 401.518C769.441 401.017 768.812 400.303 768.416 399.457C768.02 398.612 767.873 397.672 767.993 396.747C768.113 395.821 768.495 394.949 769.094 394.233C778.196 383.367 793.41 364.728 795.436 359.324C798.34 351.518 902.466 324.187 902.466 324.187C902.466 324.187 947.829 305.961 954.229 295.524C958.019 289.362 976.686 274.533 991.293 263.49C1002.58 254.925 1000.69 267.705 1014.38 271.347C1025.06 262.512 1052.93 264.603 1052.93 290.079L1073.1 391.948C1073.35 393.204 1073.32 394.498 1073.01 395.74C1072.7 396.981 1072.11 398.138 1071.3 399.127C1070.49 400.116 1069.47 400.913 1068.31 401.46C1067.15 402.008 1065.88 402.292 1064.6 402.292L772.868 402.284Z" fill="#A3A3A3"/>
<path d="M123.801 403.54C123.801 403.54 184.31 339.791 250.24 342.371C316.17 344.95 438.997 318.025 438.997 318.025C438.997 318.025 537.432 299.107 560.911 309.021C584.391 318.935 620.518 334.564 645.812 334.564C671.107 334.564 693.675 405.614 693.675 405.614C693.675 405.614 123.801 398.33 123.801 403.54Z" fill="#A0A0A0"/>
<path opacity="0.1" d="M780.18 721.163C780.818 722.24 781.073 723.501 780.905 724.742C780.736 725.983 780.154 727.13 779.251 727.999C791.15 731.211 803.292 733.45 815.555 734.693C818.696 735.013 822.36 735.064 824.412 732.67C825.788 731.051 826.1 728.648 827.628 727.198C828.597 726.417 829.742 725.882 830.963 725.639C834.746 724.585 838.748 724.054 842.167 722.132C845.586 720.21 848.347 716.307 847.368 712.513C846.236 708.146 841.145 706.317 836.764 705.179L823.112 701.621C814.968 699.422 806.644 697.952 798.239 697.229C793.562 696.858 785.946 694.861 781.497 696.909C775.992 699.438 778.221 704.378 776.38 709.251C775.477 711.636 771.222 715.295 773.105 718.237C774.177 719.923 778.441 718.397 780.18 721.163Z" fill="#42AFF4"/>
<path opacity="0.1" d="M630.176 691.758C630.176 691.758 579.426 689.693 594.716 701.874C610.006 714.056 623.92 715.675 630.176 723.228C636.432 730.781 637.851 729.635 660.157 731.877C682.463 734.12 704.524 734.002 705.343 725.133C706.162 716.265 708.45 702.532 705.343 698.519C702.236 694.506 630.176 691.758 630.176 691.758Z" fill="#42AFF4"/>
<path d="M986.126 633.767L987.89 633.11L981.676 622.201C985.543 619.765 984.479 615.642 985.493 595.3C986.708 570.912 975.977 569.825 974.356 569.808H974.154C926.747 544.517 816.129 542.224 756.084 543.017C755.984 540.471 755.357 537.974 754.243 535.682C753.25 533.838 752.736 531.774 752.749 529.68V529.68C752.749 529.68 752.749 529.562 752.749 529.36C752.749 528.517 752.749 527.918 752.749 527.918C752.749 527.918 750.968 510.856 750.883 498.033C750.925 492.975 751.272 488.76 752.167 486.906C753.332 484.511 753.813 478.425 753.771 471.301C753.855 458.589 752.082 441.644 749.389 436.856C746.696 432.068 739.148 425.585 733.643 420.552C730.674 417.841 728.788 414.149 728.332 410.158C728.332 410.158 727.286 410.158 725.605 410.352L725.327 409.508V409.424C726.143 409.508 726.961 409.279 727.615 408.783C728.071 408.377 728.454 407.895 728.746 407.359L734.116 398.659C734.807 397.775 735.184 396.686 735.188 395.565C734.994 393.769 732.917 392.311 733.423 390.574C733.643 389.833 734.268 389.31 734.639 388.619C734.928 387.931 735.066 387.189 735.045 386.444C735.146 384.016 735.112 381.259 733.356 379.607C733.026 379.367 732.755 379.055 732.562 378.696C732.466 378.267 732.483 377.819 732.613 377.398C733.06 374.869 731.718 372.281 729.801 370.578C727.885 368.875 725.462 367.897 723.089 366.945C720.717 365.992 718.083 365.082 715.685 365.925C715.795 363.573 713.152 361.912 710.856 361.92C708.559 361.929 706.347 363.025 704.102 363.606C701.766 364.136 699.379 364.402 696.984 364.399C696.095 364.506 695.192 364.39 694.359 364.062C693.947 363.88 693.613 363.558 693.416 363.154C693.22 362.749 693.174 362.288 693.286 361.853C692.921 361.638 692.495 361.55 692.075 361.603C691.654 361.657 691.264 361.848 690.964 362.148C690.371 362.774 689.866 363.477 689.462 364.239C688.618 365.555 687.457 366.639 686.085 367.391C686.55 366.375 686.767 365.263 686.718 364.146C685.873 363.598 684.784 364.289 684.396 365.183C684.119 366.12 683.941 367.083 683.864 368.057C683.341 370.485 681.171 372.222 680.318 374.557C679.925 375.819 679.857 377.159 680.119 378.454C680.382 379.749 680.967 380.958 681.821 381.967C682.792 383.142 683.989 384.111 685.342 384.817C685.257 385.061 685.164 385.306 685.088 385.558C683.601 390.695 684.059 396.198 686.376 401.018C688.694 405.839 692.707 409.638 697.651 411.692L698.2 412.788C699.433 415.258 700.969 418.487 702.236 421.698L702.455 422.246C702.1 422.804 701.776 423.381 701.484 423.975C701.484 423.975 704.971 427.928 701.484 432.177C701.484 432.177 688.82 441.737 689.225 464.557C689.188 468.48 689.496 472.398 690.146 476.267C692.971 493.368 694.57 510.649 694.933 527.977C692.788 529.807 689.664 536.77 686.979 543.581C530.981 541.702 496.349 569.378 488.75 580.463C487.731 581.788 487.014 583.319 486.648 584.948C477.927 603.545 488.826 623.912 488.826 623.912L489.536 624.84C509.976 651.108 541.78 663.863 669.79 667.749V668.145L669.613 682.055C669.526 687.332 668.242 692.52 665.856 697.229V697.229C665.898 697.509 665.898 697.793 665.856 698.072V698.14C665.644 700.188 663.559 705.348 648.674 708.964C648.674 708.964 625.777 705.381 637.631 715.489C647.763 724.164 677.312 724.762 685.502 724.804C685.774 724.802 686.043 724.743 686.291 724.632C686.54 724.521 686.762 724.36 686.945 724.159C687.129 723.958 687.268 723.721 687.355 723.464C687.443 723.206 687.476 722.934 687.452 722.663L685.873 704.724L685.797 703.881H686.321C685.308 693.925 691.843 668.584 691.843 668.584C691.906 668.497 691.966 668.407 692.02 668.314C699.863 668.483 708.011 668.617 716.504 668.727C739.958 669.031 761.893 668.398 782.307 667.083C783.542 668.381 784.687 669.761 785.735 671.214L792.616 683.328L794.381 686.43L796.643 690.409V691.328L796.787 711.114C796.787 711.114 777.233 728.185 797.952 723.051L805.466 722.301C806.409 722.196 807.295 721.798 807.999 721.163C811.051 722.061 814.152 722.784 817.286 723.329C818.581 723.546 819.891 723.656 821.204 723.658C824.84 723.652 828.423 722.779 831.653 721.111C834.884 719.444 837.669 717.031 839.778 714.073C849.909 714.385 862.573 714.916 878.201 715.809C916.472 717.925 954.609 720.969 954.972 721.002C956.095 721.112 982.656 723.624 994.889 705.727C1005.18 690.865 1002.18 666.662 986.126 633.767ZM817.674 721.584C814.828 721.085 812.01 720.438 809.232 719.645C809.228 719.614 809.228 719.583 809.232 719.552L811.764 713.828C817.59 713.651 825.906 713.66 837.777 713.997C835.444 716.98 832.336 719.265 828.79 720.603C825.245 721.941 821.4 722.281 817.674 721.584V721.584ZM839.018 712.311C827.122 711.957 818.612 711.923 812.499 712.1L823.644 686.557C823.918 685.926 824.021 685.233 823.942 684.55C823.864 683.866 823.606 683.215 823.196 682.662C821.398 680.226 817.945 676.162 814.213 674.873C813.667 674.679 813.1 674.552 812.524 674.493L811.351 673.372L810.734 672.773C816.484 672.58 827.198 674.173 837.498 686.068C844.759 694.498 843.543 704.336 839.98 710.76C839.668 711.24 839.356 711.763 839.018 712.269V712.311ZM993.589 704.724C981.938 721.761 955.537 719.283 955.25 719.249C954.963 719.215 915.805 716.104 877.061 713.972C862.59 713.179 850.753 712.657 841.044 712.345C841.196 712.092 841.34 711.847 841.483 711.586C843.899 707.416 844.939 702.592 844.455 697.798C843.972 693.005 841.99 688.485 838.79 684.879C827.046 671.307 814.677 670.548 809.063 671.087L807.855 669.874C806.547 668.542 805.086 667.024 803.634 665.414C907.565 655.888 966.623 629.223 975.589 624.949L976.796 624.351L978.173 623.845L982.031 635.335L984.505 634.408C1000.3 666.737 1003.37 690.393 993.589 704.715V704.724Z" fill="url(#paint1_linear)"/>
<path d="M686.76 721.07C686.782 721.338 686.748 721.608 686.661 721.862C686.573 722.117 686.434 722.35 686.251 722.548C686.069 722.746 685.847 722.905 685.601 723.013C685.354 723.121 685.088 723.177 684.818 723.177C676.671 723.177 647.239 722.545 637.116 713.98C625.296 703.999 648.092 707.539 648.092 707.539C662.926 703.965 664.977 698.873 665.214 696.85C665.21 696.828 665.21 696.805 665.214 696.783C665.258 696.503 665.258 696.219 665.214 695.94L665.805 695.594L668.042 694.27L684.835 699.329L685.181 703.299L686.76 721.07Z" fill="#EC8C9C"/>
<path d="M820.114 722.022C818.81 722.024 817.508 721.917 816.222 721.702C811.641 720.896 807.126 719.752 802.714 718.279C797.395 716.526 795.436 715.245 795.748 713.685C796.044 712.252 796.593 709.554 837.794 710.793C838.131 710.288 838.452 709.773 838.739 709.259C842.285 702.911 843.509 693.166 836.266 684.879C821.33 667.774 805.517 672.234 805.356 672.293L804.858 670.607C805.027 670.556 821.862 665.726 837.574 683.707C840.763 687.257 842.74 691.725 843.221 696.469C843.702 701.213 842.662 705.987 840.251 710.102C840.115 710.355 839.963 710.608 839.82 710.852C849.487 711.164 861.29 711.695 875.702 712.463C914.311 714.562 953.241 717.639 953.629 717.672C954.018 717.706 980.216 720.151 991.824 703.341C1001.75 688.943 998.41 664.992 981.896 632.157L983.449 631.373C1000.28 664.832 1003.58 689.372 993.251 704.328C981.051 722.031 954.592 719.502 953.469 719.409C953.106 719.409 915.105 716.374 876.977 714.275C861.366 713.432 848.795 712.876 838.68 712.589C836.556 715.519 833.765 717.902 830.537 719.542C827.309 721.183 823.736 722.033 820.114 722.022ZM797.488 714.005C797.724 714.292 798.754 715.16 803.237 716.627C807.568 718.08 812.002 719.207 816.501 719.999C820.202 720.682 824.02 720.345 827.543 719.024C831.067 717.704 834.164 715.45 836.502 712.505C804.791 711.561 798.467 713.07 797.488 714.005Z" fill="#535461"/>
<path d="M795.866 684.837L795.579 689.179L795.723 709.638C795.723 709.638 776.237 726.499 796.88 721.441L804.368 720.69C805.172 720.608 805.94 720.315 806.593 719.842C807.247 719.368 807.764 718.73 808.092 717.993L822.444 685.368C822.718 684.746 822.822 684.062 822.745 683.387C822.667 682.712 822.412 682.069 822.005 681.524C819.65 678.363 814.483 672.445 809.552 673.566C802.891 675.075 795.866 684.837 795.866 684.837Z" fill="#EC8C9C"/>
<path d="M983.778 595.309C982.47 621.341 984.623 620.473 975.082 623.971L973.884 624.561C962.671 629.847 873.178 669.789 715.727 667.774C548.779 665.625 512.145 653.275 489.502 624.435C489.265 624.132 489.02 623.828 488.784 623.516C488.784 623.516 477.927 603.41 486.614 585.041C486.987 583.429 487.704 581.917 488.717 580.607C496.729 569.024 534.916 539.097 714.739 544.829C714.739 544.829 905.953 535 972.431 570.12H972.634C974.255 570.162 984.944 571.232 983.778 595.309Z" fill="#42DFF4"/>
<path d="M811.942 673.996L795.579 689.17L793.325 685.242L791.569 682.173L784.714 670.253C773.561 654.784 738.506 636.987 738.506 636.987C731.059 633.919 728.214 630.859 727.133 629.046C726.289 627.622 725.445 626.18 724.474 624.831C721.902 620.949 719.821 616.764 718.277 612.372C716.841 608.372 715.66 604.287 714.739 600.139C713.895 596.523 713.422 593.395 713.11 591.229C712.84 589.29 712.73 588.143 712.73 588.143L715.263 578.971L723.182 550.098L752.732 548.656C752.732 548.656 752.876 565.331 752.85 580.556C752.85 583.422 752.85 586.238 752.85 588.885C752.85 592.257 752.791 595.317 752.749 597.872C752.673 601.041 752.58 603.402 752.462 604.481C752.297 605.795 752.238 607.12 752.285 608.443C752.496 613.442 754.657 618.306 762.416 620.818C772.193 624.005 789.864 640.933 791.459 648.739C792.506 653.873 801.067 663.197 806.8 668.971C808.168 670.346 809.333 671.501 810.27 672.394C811.283 673.389 811.942 673.996 811.942 673.996Z" fill="#565388"/>
<path opacity="0.1" d="M811.942 673.996L795.579 689.17L793.325 685.242L791.569 682.173L784.714 670.253C773.561 654.784 738.506 636.987 738.506 636.987C731.059 633.919 728.214 630.859 727.133 629.046C726.289 627.622 725.445 626.18 724.474 624.831C721.902 620.949 719.821 616.764 718.277 612.372C716.841 608.372 715.66 604.287 714.739 600.139C713.895 596.523 713.422 593.395 713.11 591.229C712.84 589.29 712.73 588.143 712.73 588.143L715.263 578.971L723.182 550.098L752.732 548.656C752.732 548.656 752.876 565.331 752.85 580.556C752.85 583.422 752.85 586.238 752.85 588.885C752.85 592.257 752.791 595.317 752.749 597.872C752.673 601.041 752.58 603.402 752.462 604.481C752.297 605.795 752.238 607.12 752.285 608.443C752.496 613.442 754.657 618.306 762.416 620.818C772.193 624.005 789.864 640.933 791.459 648.739C792.506 653.873 801.067 663.197 806.8 668.971C808.168 670.346 809.333 671.501 810.27 672.394C811.283 673.389 811.942 673.996 811.942 673.996Z" fill="black"/>
<path d="M752.825 580.497C752.825 583.363 752.825 586.179 752.825 588.826C744.315 590.875 724.255 591.178 713.144 591.17C712.874 589.231 712.755 588.084 712.755 588.084L715.288 578.912C726.534 580.935 744.931 580.708 752.825 580.497Z" fill="#DFE5EE"/>
<path d="M752.445 604.422C752.281 605.733 752.221 607.055 752.268 608.376C730.021 606.521 721.477 609.345 718.311 612.312C716.875 608.313 715.694 604.228 714.773 600.08C723.503 597.416 744.323 597.61 752.766 597.813C752.622 600.982 752.529 603.343 752.445 604.422Z" fill="#DFE5EE"/>
<path opacity="0.1" d="M685.181 703.35H684.767L665.214 696.842C665.211 696.822 665.211 696.802 665.214 696.783C665.408 696.403 665.585 696.015 665.771 695.628L668.008 694.304L684.801 699.362L685.181 703.35Z" fill="black"/>
<path d="M748.933 524.875L751.829 528.778C751.829 528.778 751.432 533.55 753.298 536.45C755.164 539.35 761.825 562.625 730.502 569.277C730.502 569.277 712.688 599.625 700.235 611.655L695.456 620.625C695.456 620.625 694.434 631.179 695.456 636.237C696.478 641.295 698.639 657.068 691.108 667.623C691.108 667.623 684.59 692.643 685.603 702.481H684.759L665.205 695.973C667.586 691.312 668.86 686.166 668.929 680.934L669.114 667.193V616.966C669.114 611.24 670.017 605.55 671.791 600.106V600.106C672.731 597.241 673.232 594.251 673.277 591.237C673.361 584.948 674.121 572.843 678.342 563.502C680.419 558.857 682.471 554.229 684.252 549.432C687.224 541.474 691.505 531.037 694.206 528.77L698.428 520.82L720.928 522.987L748.933 524.875Z" fill="#565388"/>
<path d="M728.805 422.988C728.805 422.988 701.425 439.975 703.738 435.204C704.709 433.197 703.359 428.561 701.45 423.848C700.184 420.678 698.656 417.483 697.432 415.047C696.207 412.611 695.194 410.756 695.194 410.756C695.194 410.756 723.444 393.702 722.422 400.21C722.251 402.338 722.448 404.48 723.005 406.541C723.402 408.227 723.917 410.073 724.499 411.852C726.382 417.644 728.805 422.988 728.805 422.988Z" fill="#EC8C9C"/>
<path d="M489.502 624.435C489.265 624.132 489.021 623.828 488.784 623.516C488.784 623.516 477.927 603.41 486.614 585.041C486.987 583.429 487.705 581.917 488.717 580.607L489.502 624.435Z" fill="#535461"/>
<path d="M582.212 607.246C582.212 610.247 581.321 613.181 579.651 615.676C577.981 618.172 575.608 620.117 572.831 621.265C570.054 622.414 566.998 622.714 564.051 622.129C561.103 621.543 558.395 620.098 556.269 617.976C554.144 615.854 552.697 613.15 552.11 610.206C551.524 607.263 551.825 604.212 552.975 601.439C554.125 598.666 556.073 596.296 558.572 594.629C561.071 592.962 564.01 592.072 567.015 592.072C567.48 592.072 567.944 592.072 568.4 592.131C572.176 592.476 575.686 594.217 578.242 597.014C580.797 599.811 582.213 603.46 582.212 607.246V607.246Z" stroke="#535461" stroke-miterlimit="10"/>
<path d="M575.695 615.052L564.398 618.888L556.31 596.455C559.155 593.638 563 592.056 567.007 592.055C567.471 592.055 567.936 592.055 568.391 592.114L575.695 615.052Z" fill="#535461"/>
<path opacity="0.1" d="M720.666 404.526C716.859 410.427 712.544 416.413 704.954 416.413C702.384 416.417 699.835 415.954 697.432 415.047C696.157 412.518 695.194 410.756 695.194 410.756C695.194 410.756 723.444 393.702 722.422 400.21C722.178 401.837 720.109 402.073 720.666 404.526Z" fill="black"/>
<path d="M726.391 394.14C726.391 399.817 724.132 405.261 720.112 409.275C716.092 413.289 710.64 415.544 704.954 415.544C699.269 415.544 693.817 413.289 689.796 409.275C685.776 405.261 683.518 399.817 683.518 394.14C683.512 392.124 683.797 390.116 684.362 388.18C685.803 383.233 688.983 378.97 693.318 376.176C697.653 373.381 702.852 372.241 707.961 372.966C713.069 373.69 717.745 376.231 721.129 380.12C724.513 384.01 726.378 388.988 726.382 394.14H726.391Z" fill="#EC8C9C"/>
<path opacity="0.1" d="M728.805 422.988C728.805 422.988 701.425 439.975 703.738 435.204C704.709 433.197 703.359 428.561 701.45 423.848C706.871 414.853 718.885 412.476 724.499 411.852C726.382 417.644 728.805 422.988 728.805 422.988Z" fill="black"/>
<path opacity="0.1" d="M727.497 414.238C727.497 414.238 709.767 413.243 703.224 426.546C703.454 428.199 703.349 429.883 702.914 431.495C702.479 433.107 701.722 434.615 700.691 435.929C700.691 435.929 684.472 448.076 689.394 477.725C692.344 495.173 693.947 512.822 694.19 530.515C694.19 530.515 698.411 526.612 707.521 530.515C716.631 534.418 751.837 530.515 751.837 530.515C751.837 530.515 748.072 494.796 751.263 488.288C754.455 481.78 752.547 447.689 748.494 440.599C745.767 435.836 738.278 429.471 732.799 424.497C729.849 421.83 727.968 418.185 727.505 414.238H727.497Z" fill="black"/>
<path d="M727.496 412.501C727.496 412.501 707.234 412.788 700.699 426.091C700.699 426.091 704.177 430.002 700.699 434.192C700.699 434.192 684.48 446.34 689.402 475.989C692.349 493.437 693.949 511.085 694.19 528.778C694.19 528.778 698.411 524.875 707.521 528.778C716.631 532.681 751.837 528.778 751.837 528.778C751.837 528.778 748.072 493.06 751.263 486.552C754.454 480.043 752.546 445.952 748.494 438.862C745.767 434.108 738.278 427.734 732.799 422.761C729.848 420.093 727.967 416.448 727.505 412.501H727.496Z" fill="#DFE5EE"/>
<path d="M726.028 540.066L723.74 544.838L725.605 554.01C727.087 561.536 730.486 568.553 735.475 574.385C740.465 580.143 746.451 584.08 749.524 574.916C753.323 563.527 750.368 557.803 747.92 555.215C745.812 552.938 743.9 550.487 742.204 547.889C739.781 544.366 736.404 540.193 732.773 538.743C726.112 536.214 726.028 540.066 726.028 540.066Z" fill="#EC8C9C"/>
<path opacity="0.1" d="M713.304 480.76L713.254 487.631L714.452 500.579C716.833 505.721 718.694 511.086 720.008 516.597C722.541 526.713 722.853 546.54 722.853 546.54C722.853 546.54 736.269 542.233 738.894 543.531C738.894 543.531 739.671 514.025 736.919 504.752C734.166 495.479 735.323 482.935 735.323 482.935L713.304 480.76Z" fill="black"/>
<path d="M714.174 479.032L712.764 487.993L715.297 498.843C717.677 503.984 719.538 509.35 720.852 514.86C723.385 524.976 723.697 544.804 723.697 544.804C723.697 544.804 736.15 541.432 738.759 542.772C738.759 542.772 740.499 512.264 737.746 503.007C734.994 493.751 736.151 481.182 736.151 481.182L714.174 479.032Z" fill="#565388"/>
<path opacity="0.1" d="M726.39 394.14C726.394 397.354 725.671 400.528 724.275 403.424C722.879 406.32 720.846 408.864 718.328 410.866L717.247 410.503C716.729 410.36 716.243 410.123 715.812 409.804C715.318 409.332 714.965 408.734 714.79 408.075C714.005 405.749 713.768 403.253 712.89 400.943C712.012 398.634 710.265 396.433 707.825 396.029C707.555 395.961 707.27 395.994 707.023 396.121C706.757 396.353 706.586 396.674 706.541 397.023C706.234 398.074 705.688 399.04 704.945 399.846C704.203 400.652 703.284 401.275 702.261 401.668C700.986 402.141 698.723 402.511 697.508 401.668C696.452 400.935 696.486 399.687 696.233 398.532C695.549 395.354 693.987 392.142 690.897 390.701C689.841 390.275 688.758 389.92 687.655 389.639C686.507 389.303 685.402 388.837 684.362 388.248C685.803 383.3 688.983 379.038 693.318 376.243C697.653 373.448 702.852 372.309 707.961 373.033C713.069 373.758 717.745 376.298 721.129 380.188C724.513 384.078 726.378 389.055 726.382 394.208L726.39 394.14Z" fill="black"/>
<path d="M690.906 389.765C689.848 389.337 688.762 388.982 687.655 388.703C685.119 388.025 682.842 386.611 681.112 384.64C680.262 383.645 679.678 382.451 679.415 381.17C679.153 379.889 679.219 378.562 679.609 377.314C680.453 375.012 682.623 373.293 683.138 370.89C683.224 369.934 683.402 368.988 683.67 368.066C684.058 367.181 685.19 366.498 685.992 367.037C686.041 368.14 685.824 369.239 685.359 370.241C686.724 369.497 687.884 368.429 688.736 367.13C689.128 366.379 689.629 365.688 690.222 365.082C690.52 364.783 690.91 364.592 691.329 364.54C691.748 364.488 692.173 364.578 692.535 364.795C692.424 365.225 692.47 365.68 692.665 366.078C692.86 366.477 693.191 366.793 693.599 366.97C694.431 367.293 695.329 367.409 696.216 367.307C698.605 367.302 700.986 367.037 703.316 366.515C705.562 365.925 707.732 364.829 710.071 364.829C712.409 364.829 715.001 366.456 714.892 368.782C717.281 367.939 719.898 368.875 722.262 369.811C724.626 370.747 727.041 371.725 728.949 373.402C730.857 375.08 732.199 377.617 731.743 380.146C731.616 380.562 731.602 381.004 731.701 381.428C731.889 381.786 732.158 382.094 732.486 382.33C734.251 383.957 734.276 386.688 734.175 389.074C734.2 389.808 734.065 390.539 733.778 391.215C733.432 391.898 732.782 392.412 732.562 393.146C732.056 394.832 734.124 396.298 734.327 398.077C734.318 399.185 733.941 400.258 733.255 401.129L727.885 409.761C727.593 410.293 727.213 410.772 726.762 411.178C725.378 412.274 723.385 411.751 721.696 411.178L717.256 409.669C716.742 409.522 716.259 409.285 715.829 408.969C715.335 408.488 714.982 407.882 714.807 407.215C714.013 404.88 713.786 402.385 712.916 400.075C712.046 397.765 710.29 395.565 707.85 395.169C707.582 395.094 707.295 395.124 707.048 395.253C706.783 395.485 706.612 395.806 706.567 396.155C706.261 397.207 705.715 398.173 704.972 398.979C704.23 399.785 703.31 400.408 702.286 400.8C701.012 401.272 698.749 401.643 697.533 400.8C696.478 400.058 696.512 398.811 696.258 397.647C695.558 394.418 693.996 391.215 690.906 389.765Z" fill="#603456"/>
<path d="M890.308 572.092C900.389 572.092 908.561 568.597 908.561 564.286C908.561 559.975 900.389 556.48 890.308 556.48C880.227 556.48 872.055 559.975 872.055 564.286C872.055 568.597 880.227 572.092 890.308 572.092Z" fill="#535461"/>
<path d="M890.308 646.075C900.389 646.075 908.561 642.58 908.561 638.269C908.561 633.958 900.389 630.463 890.308 630.463C880.227 630.463 872.055 633.958 872.055 638.269C872.055 642.58 880.227 646.075 890.308 646.075Z" fill="#535461"/>
<path d="M941.151 607.887C951.232 607.887 959.404 604.392 959.404 600.08C959.404 595.769 951.232 592.274 941.151 592.274C931.07 592.274 922.897 595.769 922.897 600.08C922.897 604.392 931.07 607.887 941.151 607.887Z" fill="#535461"/>
<path d="M983.778 595.309C982.47 621.341 984.623 620.473 975.082 623.971L973.883 624.562L972.676 570.17C974.255 570.162 984.944 571.232 983.778 595.309Z" fill="#535461"/>
<path d="M975.26 620.043L980.258 634.796L986.126 632.621L976.999 616.789L975.26 620.043Z" fill="#535461"/>
<path opacity="0.1" d="M711.126 437.783C711.126 437.783 696.647 435.642 704.904 469.919C704.904 469.919 711.709 487.268 711.852 489.73C711.852 489.73 724.744 480.187 735.028 487.42C735.028 487.42 737.054 466.446 731.845 456.608C731.845 456.608 728.324 432.675 711.126 437.783Z" fill="black"/>
<path d="M711.996 436.047C711.996 436.047 697.516 433.905 705.773 468.182C705.773 468.182 712.578 485.54 712.722 487.993C712.722 487.993 725.614 478.45 735.897 485.683C735.897 485.683 737.924 464.709 732.714 454.871C732.714 454.871 729.194 430.938 711.996 436.047Z" fill="#DFE5EE"/>
<path d="M711.278 469.776C711.278 469.776 716.057 466.589 716.783 464.566C717.509 462.543 721.435 466.159 719.755 467.896C718.074 469.632 711.278 469.776 711.278 469.776Z" fill="#565388"/>
<path d="M810.186 672.335L793.3 685.25L791.544 682.182L806.69 668.912C808.083 670.253 809.282 671.467 810.186 672.335Z" fill="#535461"/>
<path opacity="0.1" d="M737.535 452.258C737.535 452.258 742.474 471.959 740.448 479.032Z" fill="black"/>
<path opacity="0.1" d="M795.58 689.179V690.097L813.056 673.819L811.942 673.996L795.58 689.179Z" fill="black"/>
<path opacity="0.1" d="M702.354 430.559C702.354 430.559 724.111 424.093 728.805 419.035Z" fill="black"/>
<path opacity="0.1" d="M251.169 595.225C279.875 594.997 304.182 589.062 321.565 589.425C338.949 589.787 354.594 588.767 371.108 592.316" fill="#42AFF4"/>
<path opacity="0.1" d="M162.351 554.76C191.056 554.541 215.363 548.606 232.747 548.968C250.131 549.331 265.767 548.311 282.281 551.86" fill="#42AFF4"/>
<path opacity="0.1" d="M344.859 675.834C373.565 675.496 397.872 666.493 415.255 667.049C432.639 667.606 448.275 666.046 464.79 671.433" fill="#42AFF4"/>
<path opacity="0.1" d="M358.064 633.455C386.769 632.823 411.085 615.752 428.46 616.806C445.835 617.86 461.488 614.901 478.003 625.109" fill="#42AFF4"/>
<path opacity="0.1" d="M408.763 435.052C437.469 434.942 461.776 431.975 479.159 432.152C496.543 432.329 512.188 431.823 528.702 433.602" fill="#42AFF4"/>
<path opacity="0.1" d="M348.794 489.452C377.499 489.334 401.815 486.366 419.19 486.552C436.565 486.737 452.218 486.223 468.732 487.993" fill="#42AFF4"/>
<path opacity="0.1" d="M178.164 453.708C206.87 453.598 231.185 450.631 248.56 450.808C265.936 450.985 281.589 450.479 298.103 452.258" fill="#42AFF4"/>
<path d="M809.014 218.04L804.685 220.767L807.312 216.021C806.568 215.431 805.648 215.104 804.696 215.092H804.628C804.327 215.095 804.026 215.072 803.729 215.025L802.263 215.95L802.89 214.815C801.852 214.453 800.954 213.775 800.325 212.878L797.702 214.555L799.357 211.557C797.824 209.727 795.774 208.606 793.478 208.606C790.747 208.606 788.318 210.219 786.749 212.732C786.286 213.485 785.63 214.102 784.848 214.52C784.066 214.939 783.186 215.144 782.299 215.114H782.152C779.138 215.114 776.698 218.51 776.698 222.696C776.698 226.883 779.138 230.279 782.152 230.279C782.815 230.277 783.468 230.114 784.054 229.806C785.08 229.311 786.202 229.043 787.342 229.021C788.482 228.999 789.613 229.223 790.658 229.678C791.541 230.07 792.496 230.272 793.463 230.272C794.43 230.272 795.386 230.07 796.269 229.678C797.305 229.231 798.426 229.011 799.555 229.033C800.685 229.054 801.796 229.317 802.815 229.802C803.396 230.104 804.041 230.262 804.696 230.265C807.709 230.265 810.153 226.869 810.153 222.682C810.171 221.064 809.779 219.468 809.014 218.04Z" fill="#F2F2F2" fill-opacity="0.92"/>
<path opacity="0.03" d="M801.112 229.093C799.526 228.777 797.887 228.964 796.403 229.633C795.51 230.055 794.543 230.274 793.565 230.274C792.587 230.274 791.62 230.055 790.727 229.633C789.671 229.144 788.527 228.904 787.375 228.928C786.222 228.951 785.088 229.239 784.051 229.77C783.46 230.102 782.801 230.276 782.132 230.279C779.426 230.279 777.173 227.399 776.698 223.6C777.238 223.186 777.696 222.667 778.05 222.07C779.636 219.369 782.095 217.636 784.856 217.636C787.616 217.636 790.042 219.346 791.629 222.02C792.102 222.827 792.765 223.491 793.552 223.948C794.34 224.405 795.226 224.639 796.124 224.629H796.193C798.337 224.591 800.202 226.416 801.112 229.093Z" fill="black"/>
<path d="M311.68 53.5132L296.94 62.7167L305.884 46.7007C303.352 44.7089 300.218 43.6054 296.977 43.5647H296.745C295.72 43.5738 294.695 43.4974 293.683 43.3365L288.692 46.4604L290.827 42.6276C287.291 41.406 284.234 39.1192 282.091 36.0914L273.16 41.7505L278.797 31.6338C273.574 25.4581 266.595 21.6733 258.774 21.6733C249.476 21.6733 241.204 27.1162 235.859 35.5988C234.282 38.1396 232.048 40.2225 229.386 41.6348C226.723 43.047 223.728 43.7379 220.705 43.6368H220.205C209.943 43.6368 201.634 55.0992 201.634 69.2288C201.634 83.3585 209.943 94.8209 220.205 94.8209C222.464 94.8119 224.687 94.2635 226.684 93.2229C230.177 91.5534 233.997 90.6502 237.879 90.5755C241.762 90.5009 245.614 91.2565 249.171 92.7903C252.177 94.1132 255.433 94.7969 258.725 94.7969C262.018 94.7969 265.273 94.1132 268.279 92.7903C271.808 91.2834 275.625 90.5411 279.471 90.6137C283.318 90.6862 287.103 91.572 290.571 93.2109C292.549 94.2278 294.746 94.7634 296.977 94.7728C307.238 94.7728 315.56 83.3105 315.56 69.1808C315.622 63.7204 314.288 58.3323 311.68 53.5132Z" fill="#F2F2F2"/>
<path opacity="0.03" d="M283.915 89.147C278.572 88.3553 273.048 88.8246 268.045 90.4955C265.037 91.5516 261.777 92.0975 258.48 92.0975C255.183 92.0975 251.924 91.5516 248.915 90.4955C245.357 89.2746 241.502 88.6732 237.618 88.7326C233.733 88.7921 229.911 89.511 226.416 90.8398C224.423 91.668 222.202 92.1045 219.946 92.1117C210.827 92.1117 203.233 84.9105 201.634 75.414C203.451 74.3796 204.997 73.0808 206.188 71.5887C211.535 64.8369 219.824 60.5047 229.126 60.5047C238.429 60.5047 246.608 64.7796 251.955 71.4644C253.551 73.4805 255.784 75.1401 258.438 76.2826C261.092 77.4252 264.077 78.0121 267.105 77.9866H267.337C274.564 77.8909 280.851 82.4527 283.915 89.147Z" fill="black"/>
<path d="M534.172 126.661L519.666 135.864L528.468 119.848C525.976 117.856 522.892 116.753 519.703 116.712H519.474C518.465 116.721 517.457 116.645 516.46 116.484L511.549 119.608L513.651 115.775C510.17 114.554 507.162 112.267 505.053 109.239L496.263 114.898L501.811 104.781C496.671 98.6056 489.803 94.8209 482.106 94.8209C472.956 94.8209 464.815 100.264 459.555 108.746C458.003 111.287 455.804 113.37 453.184 114.782C450.564 116.195 447.616 116.885 444.641 116.784H444.149C434.05 116.784 425.873 128.247 425.873 142.376C425.873 156.506 434.05 167.968 444.149 167.968C446.372 167.959 448.56 167.411 450.525 166.37C453.963 164.701 457.722 163.798 461.543 163.723C465.364 163.648 469.155 164.404 472.656 165.938C475.614 167.261 478.818 167.944 482.058 167.944C485.298 167.944 488.502 167.261 491.46 165.938C494.933 164.431 498.69 163.689 502.475 163.761C506.26 163.834 509.985 164.719 513.398 166.358C515.345 167.375 517.507 167.911 519.703 167.92C529.801 167.92 537.99 156.458 537.99 142.328C538.052 136.868 536.739 131.48 534.172 126.661Z" fill="#F2F2F2" fill-opacity="0.92"/>
<path opacity="0.03" d="M507.25 164.241C501.965 163.246 496.502 163.836 491.554 165.937C488.579 167.264 485.355 167.951 482.094 167.951C478.834 167.951 475.61 167.264 472.635 165.937C469.115 164.402 465.303 163.646 461.461 163.72C457.619 163.795 453.84 164.699 450.383 166.369C448.411 167.411 446.215 167.959 443.984 167.968C434.965 167.968 427.455 158.915 425.873 146.977C427.67 145.677 429.199 144.044 430.377 142.168C435.665 133.68 443.863 128.234 453.063 128.234C462.263 128.234 470.353 133.608 475.641 142.012C477.219 144.546 479.428 146.633 482.052 148.069C484.677 149.505 487.63 150.243 490.625 150.211H490.854C498.002 150.091 504.22 155.826 507.25 164.241Z" fill="black"/>
<path d="M757.239 110.47L748.582 116.037L753.835 106.349C752.348 105.144 750.507 104.476 748.604 104.452H748.468C747.865 104.457 747.264 104.411 746.669 104.313L743.738 106.203L744.992 103.885C742.915 103.146 741.12 101.762 739.861 99.9307L734.616 103.354L737.927 97.2341C734.859 93.4982 730.761 91.2086 726.167 91.2086C720.707 91.2086 715.848 94.5012 712.709 99.6327C711.783 101.17 710.471 102.43 708.907 103.284C707.344 104.138 705.584 104.556 703.809 104.495H703.515C697.489 104.495 692.609 111.429 692.609 119.977C692.609 128.524 697.489 135.458 703.515 135.458C704.842 135.453 706.148 135.121 707.321 134.492C709.372 133.482 711.616 132.935 713.896 132.89C716.176 132.845 718.439 133.302 720.528 134.23C722.293 135.03 724.205 135.444 726.138 135.444C728.072 135.444 729.984 135.03 731.749 134.23C733.822 133.318 736.064 132.869 738.323 132.913C740.582 132.957 742.805 133.493 744.842 134.484C746.003 135.1 747.293 135.424 748.604 135.429C754.63 135.429 759.518 128.495 759.518 119.948C759.554 116.645 758.771 113.385 757.239 110.47Z" fill="#F2F2F2" fill-opacity="0.92"/>
<path opacity="0.03" d="M741.435 133.171C738.264 132.561 734.986 132.923 732.018 134.212C730.232 135.026 728.298 135.447 726.342 135.447C724.385 135.447 722.451 135.026 720.666 134.212C718.554 133.27 716.267 132.806 713.962 132.852C711.657 132.898 709.389 133.452 707.315 134.477C706.132 135.116 704.814 135.453 703.475 135.458C698.064 135.458 693.558 129.903 692.609 122.577C693.687 121.779 694.605 120.777 695.311 119.626C698.484 114.418 703.403 111.076 708.923 111.076C714.443 111.076 719.297 114.374 722.47 119.53C723.417 121.086 724.742 122.366 726.316 123.247C727.891 124.129 729.663 124.582 731.46 124.562H731.597C735.886 124.488 739.617 128.007 741.435 133.171Z" fill="black"/>
<path d="M953.187 64.5685L942.265 71.4859L948.892 59.4482C947.016 57.9511 944.693 57.1217 942.292 57.0912H942.12C941.36 57.098 940.601 57.0406 939.85 56.9196L936.152 59.2676L937.735 56.3868C935.114 55.4687 932.849 53.7499 931.261 51.4742L924.642 55.7276L928.819 48.1239C924.949 43.4821 919.777 40.6375 913.982 40.6375C907.092 40.6375 900.961 44.7284 897.001 51.1039C895.832 53.0136 894.176 54.5792 892.203 55.6406C890.23 56.7021 888.011 57.2213 885.771 57.1454H885.4C877.796 57.1454 871.638 65.7605 871.638 76.3805C871.638 87.0004 877.796 95.6156 885.4 95.6156C887.074 95.6088 888.722 95.1967 890.201 94.4145C892.79 93.1597 895.621 92.4809 898.498 92.4248C901.375 92.3686 904.23 92.9366 906.866 94.0894C909.093 95.0837 911.505 95.5976 913.945 95.5976C916.385 95.5976 918.798 95.0837 921.025 94.0894C923.641 92.9568 926.469 92.3989 929.319 92.4534C932.169 92.5079 934.975 93.1737 937.545 94.4055C939.01 95.1698 940.638 95.5723 942.292 95.5794C949.896 95.5794 956.062 86.9643 956.062 76.3444C956.109 72.2403 955.12 68.1906 953.187 64.5685Z" fill="#F2F2F2" fill-opacity="0.92"/>
<path opacity="0.03" d="M932.608 92.7529C928.65 92.0052 924.559 92.4484 920.853 94.0262C918.625 95.0234 916.211 95.539 913.769 95.539C911.327 95.539 908.913 95.0234 906.685 94.0262C904.049 92.8734 901.194 92.3054 898.317 92.3615C895.44 92.4177 892.609 93.0965 890.02 94.3513C888.544 95.1334 886.899 95.5456 885.228 95.5524C878.474 95.5524 872.85 88.7523 871.665 79.785C873.011 78.8082 874.156 77.5818 875.038 76.1728C878.998 69.7972 885.138 65.7064 892.028 65.7064C898.918 65.7064 904.976 69.743 908.936 76.0554C910.118 77.9592 911.772 79.5263 913.737 80.6052C915.703 81.6841 917.914 82.2383 920.157 82.2142H920.329C925.682 82.1239 930.338 86.4315 932.608 92.7529Z" fill="black"/>
<defs>
<filter id="filter0_f" x="267.823" y="177.122" width="749.66" height="271.382" filterUnits="userSpaceOnUse" color-interpolation-filters="sRGB">
<feFlood flood-opacity="0" result="BackgroundImageFix"/>
<feBlend mode="normal" in="SourceGraphic" in2="BackgroundImageFix" result="shape"/>
<feGaussianBlur stdDeviation="25" result="effect1_foregroundBlur"/>
</filter>
<linearGradient id="paint0_linear" x1="697.582" y1="3.00523e-06" x2="686.759" y2="825.393" gradientUnits="userSpaceOnUse">
<stop stop-color="#4097FD"/>
<stop offset="0.481981" stop-color="#CC5803" stop-opacity="0.68"/>
<stop offset="1" stop-color="#FDCA40" stop-opacity="0.75"/>
</linearGradient>
<linearGradient id="paint1_linear" x1="742.077" y1="724.821" x2="742.077" y2="361.592" gradientUnits="userSpaceOnUse">
<stop stop-color="#808080" stop-opacity="0.25"/>
<stop offset="0.54" stop-color="#808080" stop-opacity="0.12"/>
<stop offset="1" stop-color="#808080" stop-opacity="0.1"/>
</linearGradient>
</defs>
</svg>
