<svg width="453" height="383" viewBox="0 0 453 383" fill="none" xmlns="http://www.w3.org/2000/svg">
<g clip-path="url(#clip0)">
<path opacity="0.1" d="M42.2688 329.601C52.8892 329.601 61.4987 328.281 61.4987 326.653C61.4987 325.026 52.8892 323.706 42.2688 323.706C31.6484 323.706 23.0388 325.026 23.0388 326.653C23.0388 328.281 31.6484 329.601 42.2688 329.601Z" fill="#42DFF4"/>
<path opacity="0.1" d="M319.626 333.611C330.246 333.611 338.856 332.291 338.856 330.663C338.856 329.036 330.246 327.716 319.626 327.716C309.006 327.716 300.396 329.036 300.396 330.663C300.396 332.291 309.006 333.611 319.626 333.611Z" fill="#42DFF4"/>
<path opacity="0.1" d="M272.252 360.916C282.873 360.916 291.482 359.597 291.482 357.969C291.482 356.341 282.873 355.021 272.252 355.021C261.632 355.021 253.022 356.341 253.022 357.969C253.022 359.597 261.632 360.916 272.252 360.916Z" fill="#42DFF4"/>
<path opacity="0.1" d="M104.58 307.609C115.201 307.609 123.81 306.29 123.81 304.662C123.81 303.034 115.201 301.715 104.58 301.715C93.9599 301.715 85.3503 303.034 85.3503 304.662C85.3503 306.29 93.9599 307.609 104.58 307.609Z" fill="#42DFF4"/>
<path opacity="0.1" d="M110.303 383C171.221 383 220.606 372.363 220.606 359.241C220.606 346.119 171.221 335.481 110.303 335.481C49.3842 335.481 0 346.119 0 359.241C0 372.363 49.3842 383 110.303 383Z" fill="#42DFF4"/>
<path opacity="0.1" d="M437.667 264.045C434.69 271.216 430.783 278.09 425.316 283.363C418.656 289.787 410.383 293.291 401.525 294.966C398.914 295.453 396.278 295.794 393.629 295.988C386.629 296.526 379.462 296.169 372.587 295.421C355.749 293.584 339.142 290.034 323.026 284.825C320.378 283.971 317.746 283.072 315.13 282.128C311.181 280.714 307.269 279.196 303.392 277.575C287.599 270.98 271.272 262.569 254.472 265.178C246.329 266.445 238.679 270.283 230.518 271.425C224.79 272.177 218.97 271.763 213.406 270.209C210.713 269.489 208.074 268.579 205.51 267.485C199.73 264.974 194.231 261.862 189.104 258.202C176.795 249.606 165.749 238.949 152.79 231.504C138.502 223.294 122.686 219.39 106.573 216.48C103.95 216.007 101.318 215.555 98.6766 215.125C91.2215 213.895 83.7478 212.758 76.381 211.412C69.2836 210.103 62.0607 208.502 55.883 204.566C51.475 201.758 47.7683 197.868 44.3682 193.77C38.0961 186.175 32.7162 177.887 28.334 169.068C28.1017 168.604 27.8741 168.14 27.6512 167.676C20.8278 153.686 16.2386 138.435 13.4238 122.654C13.3402 122.19 13.2612 121.726 13.1823 121.262C10.5347 105.792 9.56854 89.7975 9.86117 73.9192L9.88904 72.5268C10.0702 64.6874 10.5579 56.8806 11.2825 49.1851C11.8027 43.7732 12.4995 38.1571 15.305 33.6085C18.1105 29.0599 22.6811 26.1405 27.2331 23.7084C47.3642 13.0007 66.6452 10.0209 88.2813 15.21C91.7557 16.0408 95.2161 16.9366 98.6766 17.8649C101.31 18.5704 103.944 19.2991 106.573 20.0324C124.748 25.0962 142.878 30.4849 161.666 32.1001C163.481 32.2579 165.297 32.3785 167.115 32.4621C170.71 32.6292 174.305 32.6663 177.9 32.5735C187.161 32.3138 196.39 31.3643 205.51 29.7329C208.148 29.2781 210.78 28.7737 213.406 28.2198C224.74 25.8574 235.971 22.7059 247.021 19.2201C249.279 18.5085 251.533 17.7844 253.784 17.048C258.856 15.391 263.929 13.7015 269.01 12.0585C284.181 7.1432 299.425 2.65495 315.13 0.844801C316.474 0.693181 317.817 0.558581 319.161 0.440999C320.448 0.329605 321.739 0.241418 323.026 0.176438C347.389 -1.12316 372.03 4.74823 393.629 16.7648C396.31 18.2532 398.942 19.8375 401.525 21.5176C405.108 23.8476 408.581 26.354 411.944 29.0367C418.837 34.5368 425.288 40.7981 430.203 48.3218C434.992 55.6506 438.099 63.8798 439.887 72.5314C439.985 72.9955 440.078 73.4597 440.161 73.9238C442.786 87.8898 441.968 102.868 439.023 116.862C438.712 118.328 438.382 119.8 438.039 121.266C437.932 121.73 437.82 122.195 437.709 122.659C434.532 135.891 430.472 149.087 431.531 162.617C431.666 164.32 431.88 166.009 432.158 167.68C432.237 168.144 432.316 168.609 432.404 169.073C434.476 180.11 439.186 190.581 442.01 201.512C447.311 222.282 445.789 244.206 437.667 264.045Z" fill="#42DFF4"/>
<path opacity="0.1" d="M401.525 73.9237H440.166C440.083 73.4595 439.99 72.9954 439.892 72.5312H401.525V21.5175C398.943 19.8404 396.31 18.2561 393.629 16.7647V72.5312H323.026V0.17627C321.739 0.241249 320.448 0.329436 319.161 0.44083C317.875 0.552224 316.472 0.691466 315.13 0.844632V72.5312H214.335L214.093 72.2667L269.01 12.0536C263.929 13.6967 258.857 15.3862 253.784 17.0432L213.406 61.3176V28.215C210.777 28.7658 208.145 29.2702 205.51 29.7281V62.8446L177.9 32.5687C174.305 32.6553 170.71 32.6182 167.115 32.4573L203.419 72.2667L203.178 72.5312H106.564V20.0322C103.935 19.2989 101.301 18.5702 98.6674 17.8647V72.5312H9.8798L9.85193 73.9237H98.6766V121.266H13.173C13.252 121.73 13.331 122.194 13.4146 122.658H98.6766V167.68H27.642C27.8649 168.144 28.0925 168.608 28.3248 169.073H98.6766V215.143C101.315 215.576 103.947 216.028 106.573 216.499V169.073H205.51V267.471C208.074 268.565 210.713 269.475 213.406 270.195V169.073H315.13V282.123C317.749 283.07 320.382 283.969 323.026 284.82V169.073H393.629V295.983C396.278 295.789 398.914 295.448 401.525 294.962V169.073H432.405C432.316 168.608 432.237 168.144 432.158 167.68H401.502V122.658H437.686C437.797 122.194 437.909 121.73 438.016 121.266H401.525V73.9237ZM393.629 73.9237V121.266H323.026V73.9237H393.629ZM315.13 121.266H213.406V73.9237H315.13V121.266ZM106.573 73.9237H204.116L205.51 75.1908V121.266H106.573V73.9237ZM106.573 167.68V122.658H205.51V167.68H106.573ZM213.406 167.68V122.658H315.13V167.68H213.406ZM393.629 167.68H323.026V122.658H393.629V167.68Z" fill="#42DFF4"/>
<path opacity="0.1" d="M359.684 41.3225H359.071C359.287 41.1979 359.468 41.0215 359.599 40.8092C359.729 40.5968 359.805 40.3553 359.818 40.1065C359.818 39.1504 358.643 38.366 357.208 38.366H338.907C337.472 38.366 336.292 39.1504 336.292 40.1065C336.292 41.0673 337.472 41.8517 338.907 41.8517H339.52C339.304 41.9766 339.123 42.1531 338.993 42.3654C338.862 42.5777 338.786 42.819 338.772 43.0677C338.772 43.8846 339.627 44.5762 340.77 44.7618H335.493C334.053 44.7618 332.878 45.5462 332.878 46.5024C332.878 47.4585 334.053 48.2475 335.493 48.2475H353.799C355.239 48.2475 356.414 47.4631 356.414 46.5024C356.414 45.6855 355.559 44.9986 354.412 44.8129H359.684C361.119 44.8129 362.294 44.0285 362.294 43.0677C362.294 42.1069 361.119 41.3225 359.684 41.3225Z" fill="#42DFF4"/>
<path opacity="0.1" d="M161.271 57.9248H160.658C160.873 57.7987 161.053 57.6218 161.184 57.4098C161.314 57.1978 161.39 56.9571 161.406 56.7088C161.406 55.748 160.231 54.9636 158.791 54.9636H140.485C139.045 54.9636 137.87 55.748 137.87 56.7088C137.87 57.6649 139.045 58.4493 140.485 58.4493H141.094C140.88 58.5758 140.7 58.7528 140.571 58.9648C140.441 59.1768 140.366 59.4174 140.351 59.6654C140.351 60.4869 141.205 61.1738 142.348 61.3595H137.081C135.641 61.3595 134.466 62.1439 134.466 63.1047C134.466 64.0654 135.641 64.8452 137.081 64.8452H155.386C156.826 64.8452 158.001 64.0608 158.001 63.1047C158.001 62.2831 157.142 61.5962 155.999 61.4105H161.271C162.707 61.4105 163.882 60.6262 163.882 59.6654C163.882 58.7046 162.707 57.9248 161.271 57.9248Z" fill="#42DFF4"/>
<path opacity="0.1" d="M387.767 128.966H387.154C387.368 128.84 387.549 128.663 387.679 128.451C387.809 128.239 387.886 127.999 387.901 127.75C387.901 126.794 386.726 126.01 385.286 126.01H366.981C365.541 126.01 364.366 126.794 364.366 127.75C364.366 128.706 365.541 129.491 366.981 129.491H367.589C367.375 129.617 367.195 129.794 367.065 130.006C366.936 130.218 366.86 130.459 366.846 130.707C366.846 131.524 367.701 132.215 368.843 132.401H363.571C362.136 132.401 360.961 133.185 360.961 134.142C360.961 135.098 362.136 135.887 363.571 135.887H381.882C383.317 135.887 384.497 135.102 384.497 134.142C384.497 133.325 383.637 132.638 382.495 132.452H387.767C389.202 132.452 390.377 131.668 390.377 130.707C390.377 129.746 389.202 128.966 387.767 128.966Z" fill="#42DFF4"/>
<path d="M105.602 279.167L319.626 303.2V310.018L105.059 285.168L105.602 279.167Z" fill="#EAECF0"/>
<path d="M105.277 304.5H101.217V203.744L104.139 204.631L104.171 207.652L105.277 304.5Z" fill="#EAECF0"/>
<path d="M107.065 302.875L105.277 304.5L104.172 207.652L104.139 204.631H106.252L106.28 207.833L107.065 302.875Z" fill="#D3DAE1"/>
<path d="M43.1188 300.276L102.355 279.654V281.604L43.1188 302.063V300.276Z" fill="#D3DAE1"/>
<path d="M44.1778 306.77L43.1188 302.063L102.355 281.604V285.66L44.1778 306.77Z" fill="#EAECF0"/>
<path d="M319.626 197.325V330.478H316.537L316.379 206.956L316.375 203.006L319.626 197.325Z" fill="#EAECF0"/>
<path d="M321.897 196.675V329.341L319.626 330.478V197.325L321.897 196.675Z" fill="#D3DAE1"/>
<path d="M272.252 327.558L316.5 302.847L319.626 304.662L272.252 330.478V327.558Z" fill="#D3DAE1"/>
<path d="M273.637 336.001L272.252 330.478L319.626 304.662V310.019L273.637 336.001Z" fill="#EAECF0"/>
<path d="M266.971 218.597L267.134 359.222H271.523L270.873 216.972L266.971 218.597Z" fill="#EAECF0"/>
<path d="M273.637 215.673V358.085L271.523 359.222L270.873 216.972L271.133 216.852L273.637 215.673Z" fill="#D3DAE1"/>
<path d="M42.5521 327.721H38.8129L37.5309 201.929L37.5123 199.762H41.0889L41.1168 202.236L42.5521 327.721Z" fill="#EAECF0"/>
<path d="M45.1486 326.746L42.5521 327.721L41.1169 202.236L41.089 199.762H43.8527L43.8759 202.477L45.1486 326.746Z" fill="#D3DAE1"/>
<path opacity="0.1" d="M271.133 216.852L273.637 215.673V221.196L271.198 222.008L271.133 216.852Z" fill="black"/>
<path opacity="0.1" d="M321.897 196.675V205.118L319.626 205.879L316.379 206.956L316.375 203.006L319.626 197.325L321.897 196.675Z" fill="black"/>
<path d="M321.897 180.435V203.818L271.198 220.708L270.873 195.7L321.897 180.435Z" fill="#D48A9B"/>
<path d="M36.8621 178.81L103.493 166.149L321.897 180.435L270.873 195.701L36.8621 178.81Z" fill="#EFC6CD"/>
<path opacity="0.1" d="M43.8526 199.762L43.8759 202.477L41.1168 202.236L37.5309 201.929L37.5123 199.762H43.8526Z" fill="black"/>
<path opacity="0.1" d="M106.28 207.833L104.171 207.652L101.217 207.402V203.744L104.139 204.631H106.252L106.28 207.833Z" fill="black"/>
<path d="M36.8621 178.81V200.574L271.198 220.708L270.873 195.7L36.8621 178.81Z" fill="#D48A9B"/>
<path d="M222.663 204.686H192.058V193.589L222.663 195.742V204.686Z" fill="#D48A9B"/>
<path opacity="0.1" d="M222.663 204.686H192.058V193.589L222.663 195.742V204.686Z" fill="black"/>
<path opacity="0.1" d="M150.941 191.156V208.692L268.434 217.622V198.949L222.608 196.35L218.056 200.411L199.369 199.112L192.708 194.238L150.941 191.156Z" fill="black"/>
<path d="M150.291 190.502V208.042L267.784 216.972V198.3L221.957 195.701L217.41 199.762L198.719 198.462L192.058 193.589L150.291 190.502Z" fill="white"/>
<path d="M77.8163 185.796L105.602 187.745L105.277 196.568H87.134L74.9968 191.802L77.8163 185.796Z" fill="#D48A9B"/>
<path opacity="0.1" d="M77.8163 185.796L105.602 187.745L105.277 196.568H87.134L74.9968 191.802L77.8163 185.796Z" fill="black"/>
<path opacity="0.1" d="M40.7638 183.359V199.112L147.369 207.555V190.827L106.252 188.395L101.868 191.639L85.2899 190.669L78.4666 186.445L40.7638 183.359Z" fill="black"/>
<path d="M40.1135 182.709V198.462L146.719 206.905V190.182L105.602 187.745L101.217 190.994L84.6397 190.019L77.8163 185.796L40.1135 182.709Z" fill="white"/>
<path opacity="0.1" d="M44.8931 301.45L45.6223 301.2L45.2554 306.38L44.8931 306.509V301.45Z" fill="black"/>
<path opacity="0.1" d="M268.448 182.77L283.391 183.749L258.629 191.157L246.018 190.242L268.448 182.77Z" fill="black"/>
<path d="M268.448 182.12L283.391 183.099L258.629 190.502L246.018 189.592L268.448 182.12Z" fill="white"/>
<path d="M266.66 183.795C267.25 183.545 267.877 184.018 268.518 184.139C268.876 184.208 269.247 184.139 269.605 184.208C270.339 184.306 271.068 184.798 271.765 184.547" fill="#D3DAE1"/>
<path d="M265.889 184.246C266.474 183.99 267.106 184.464 267.747 184.584C268.105 184.654 268.476 184.584 268.838 184.654C269.572 184.751 270.297 185.243 270.994 184.993" fill="#D3DAE1"/>
<path d="M264.124 185.137C264.714 184.886 265.345 185.359 265.982 185.48C266.339 185.55 266.711 185.48 267.073 185.55C267.807 185.647 268.532 186.139 269.229 185.889" fill="#D3DAE1"/>
<path d="M23.2246 346.551C25.6334 346.551 27.5862 344.6 27.5862 342.193C27.5862 339.786 25.6334 337.834 23.2246 337.834C20.8158 337.834 18.863 339.786 18.863 342.193C18.863 344.6 20.8158 346.551 23.2246 346.551Z" fill="#535461"/>
<path d="M31.0281 363.599C33.4369 363.599 35.3897 361.648 35.3897 359.241C35.3897 356.834 33.4369 354.882 31.0281 354.882C28.6192 354.882 26.6665 356.834 26.6665 359.241C26.6665 361.648 28.6192 363.599 31.0281 363.599Z" fill="#535461"/>
<path d="M108.844 366.686C111.253 366.686 113.206 364.734 113.206 362.327C113.206 359.92 111.253 357.969 108.844 357.969C106.436 357.969 104.483 359.92 104.483 362.327C104.483 364.734 106.436 366.686 108.844 366.686Z" fill="#535461"/>
<path d="M126.23 344.439C128.639 344.439 130.592 342.488 130.592 340.081C130.592 337.674 128.639 335.723 126.23 335.723C123.821 335.723 121.869 337.674 121.869 340.081C121.869 342.488 123.821 344.439 126.23 344.439Z" fill="#535461"/>
<path d="M77.0173 265.224H71.5549V299.325H77.0173V265.224Z" fill="#535461"/>
<path opacity="0.1" d="M77.0173 293.801H71.5549V299.325H77.0173V293.801Z" fill="black"/>
<path d="M78.0717 295.101H70.5005V332.938H78.0717V295.101Z" fill="#3A3768"/>
<path d="M125.287 332.692L75.7168 330.664V338.633H133.244C132.672 336.956 131.606 335.492 130.186 334.431C128.766 333.371 127.058 332.765 125.287 332.692Z" fill="#3A3768"/>
<path d="M26.1462 332.692L75.7167 330.664V338.633H18.1895C18.7608 336.956 19.8266 335.491 21.2467 334.431C22.6669 333.37 24.3749 332.764 26.1462 332.692Z" fill="#3A3768"/>
<path d="M70.5005 331.476L30.9258 350.97C29.2519 351.799 27.8433 353.08 26.8585 354.667C25.8736 356.253 25.3519 358.083 25.3519 359.951V360.545L71.5688 340.41L78.0717 339.923L116.504 364.444C116.749 362.631 116.493 360.786 115.763 359.109C115.034 357.432 113.859 355.986 112.365 354.929L78.0717 330.668L70.5005 331.476Z" fill="#3A3768"/>
<path opacity="0.1" d="M77.0173 265.219V268.895C76.0605 268.936 75.0851 268.956 74.0911 268.956C73.2317 268.956 72.3864 268.956 71.5549 268.909V265.219H77.0173Z" fill="black"/>
<path d="M74.0911 267.656C85.222 267.656 94.2453 265.019 94.2453 261.766C94.2453 258.513 85.222 255.876 74.0911 255.876C62.9601 255.876 53.9368 258.513 53.9368 261.766C53.9368 265.019 62.9601 267.656 74.0911 267.656Z" fill="#3A3768"/>
<path opacity="0.1" d="M94.0688 261.766C94.0495 262.094 93.9632 262.414 93.8155 262.707C93.6677 263 93.4615 263.259 93.2095 263.47C90.7198 265.893 83.0232 267.647 73.9192 267.647C65.0149 267.647 57.4669 265.958 54.7961 263.623C54.5001 263.406 54.2543 263.128 54.0756 262.808C53.8968 262.487 53.7893 262.132 53.7603 261.766C53.7603 258.517 62.7853 255.876 73.9192 255.876C85.053 255.876 94.0688 258.513 94.0688 261.766Z" fill="black"/>
<path opacity="0.1" d="M94.2407 261.766C94.2214 262.094 94.1351 262.414 93.9873 262.707C93.8396 263 93.6334 263.259 93.3814 263.47C90.8174 262.829 89.043 262.3 89.043 262.3C89.043 262.3 71.2762 263.293 54.9679 263.632C54.6719 263.415 54.4262 263.137 54.2475 262.817C54.0687 262.496 53.9612 262.141 53.9321 261.776C53.9321 258.527 62.9572 255.886 74.0911 255.886C85.2249 255.886 94.2407 258.513 94.2407 261.766Z" fill="black"/>
<path d="M23.2246 184.19C23.2246 184.19 29.8901 202.379 29.5649 213.259C29.2398 224.138 24.0375 244.598 24.0375 244.598C24.0375 244.598 18.8398 261.163 32.1661 262.625C45.4923 264.087 89.043 261.65 89.043 261.65C89.043 261.65 105.3 266.519 110.493 264.407C112.514 263.59 114.265 261.789 115.649 259.891C116.407 258.856 116.946 257.679 117.234 256.429C117.521 255.179 117.551 253.884 117.322 252.623C117.092 251.361 116.608 250.16 115.899 249.091C115.19 248.023 114.27 247.11 113.197 246.408C110.77 244.897 108.128 243.764 105.361 243.047C104.778 242.889 104.176 242.816 103.572 242.829L46.7883 243.948C46.7883 243.948 40.4526 242.973 41.5906 236.642C42.7286 230.311 44.6748 210.822 44.6748 210.822C44.6748 210.822 45 187.114 33.6246 180.458C22.2492 173.802 23.2246 184.19 23.2246 184.19Z" fill="#3A3768"/>
<path opacity="0.1" d="M23.2246 184.134C23.2246 184.134 29.8901 202.319 29.5649 213.199C29.2398 224.078 24.0375 244.542 24.0375 244.542C24.0375 244.542 18.8398 261.103 32.1661 262.565C45.4923 264.027 89.0431 261.585 89.0431 261.585C89.0431 261.585 105.3 266.459 110.493 264.37C112.514 263.549 114.265 261.748 115.649 259.854C116.407 258.819 116.946 257.641 117.234 256.391C117.522 255.141 117.552 253.846 117.322 252.584C117.093 251.322 116.609 250.12 115.899 249.051C115.19 247.982 114.271 247.068 113.197 246.366C110.769 244.859 108.127 243.726 105.361 243.006C104.778 242.847 104.176 242.775 103.572 242.792L46.7883 243.892C46.7883 243.892 40.4526 242.918 41.5906 236.582C42.7286 230.246 44.6748 210.766 44.6748 210.766C44.6748 210.766 45 187.058 33.6246 180.398C22.2492 173.737 23.2246 184.134 23.2246 184.134Z" fill="black"/>
<path d="M24.5252 183.54C24.5252 183.54 31.1906 201.73 30.8655 212.609C30.5403 223.489 25.338 243.948 25.338 243.948C25.338 243.948 20.1404 260.513 33.462 261.975C46.7836 263.437 90.339 261.001 90.339 261.001C90.339 261.001 106.596 265.869 111.794 263.785C113.814 262.964 115.565 261.163 116.95 259.265C117.708 258.23 118.247 257.052 118.534 255.802C118.822 254.553 118.852 253.258 118.623 251.996C118.393 250.735 117.909 249.533 117.2 248.465C116.49 247.396 115.571 246.483 114.497 245.781C112.072 244.262 109.43 243.121 106.661 242.398C106.079 242.24 105.476 242.166 104.873 242.18L48.0888 243.298C48.0888 243.298 41.7532 242.323 42.8912 235.993C44.0292 229.662 45.9754 210.172 45.9754 210.172C45.9754 210.172 46.3005 186.464 34.9251 179.808C23.5497 173.153 24.5252 183.54 24.5252 183.54Z" fill="#3A3768"/>
<path d="M139.83 339.9V345.771C139.83 345.771 167.9 346.277 174.082 346.277C180.264 346.277 188.774 343.242 189.28 340.809C189.787 338.377 182.187 336.354 179.349 336.256C176.511 336.159 176.414 335.04 172.763 333.114C170.705 332.028 167.579 328.876 165.247 326.338C163.45 324.379 162.126 322.787 162.126 322.787C162.126 322.787 147.025 322.485 142.669 324.913C141.665 325.474 140.973 326.57 140.499 327.93C138.929 332.464 139.83 339.9 139.83 339.9Z" fill="#434175"/>
<path opacity="0.1" d="M140.499 327.93C143.667 326.83 162.2 326.403 165.247 326.338C163.45 324.379 162.126 322.787 162.126 322.787C162.126 322.787 147.025 322.485 142.669 324.913C141.665 325.474 140.973 326.565 140.499 327.93Z" fill="black"/>
<path d="M59.0693 234.289L60.7043 235.278L61.3175 235.649L63.7003 237.079C76.4367 244.751 111.176 265.54 113.08 265.391C113.577 265.35 115.073 265.127 117.14 264.788C117.688 264.7 118.278 264.607 118.896 264.5C126.853 263.177 140.077 260.787 141.554 260.128C143.579 259.2 143.175 263.266 142.362 266.709C141.549 270.153 140.945 286.668 141.856 288.784C142.766 290.901 142.362 294.354 142.362 294.354L141.15 312.882L141.962 316.818C141.962 316.818 139.227 319.046 140.341 320.36C141.456 321.673 140.444 327.35 140.444 327.35C143.695 326.133 165.675 325.73 165.675 325.73C165.675 325.73 164.746 317.626 165.573 315.704C166.399 313.783 165.777 302.337 165.777 302.337C165.777 302.337 166.283 293.63 165.373 291.606C164.462 289.582 165.675 276.619 165.675 276.619C165.675 276.619 166.488 268.923 166.687 253.226C166.887 237.529 157.769 237.028 157.769 237.028C157.769 237.028 156.557 236.93 154.708 236.754C151.099 236.406 145.079 235.747 141.057 234.897C140.233 234.724 139.419 234.507 138.618 234.247C133.653 232.558 116.936 232.493 114.2 233.709C111.566 234.879 108.932 233.797 108.737 233.709L106.61 230.265L86.2839 231.996L84.1333 232.182L64.123 233.885L62.7295 234.006L59.0693 234.289Z" fill="#565387"/>
<path opacity="0.1" d="M140.541 249.819C146.445 252.697 152.079 242.5 154.704 236.749C151.094 236.401 145.075 235.742 141.052 234.893C138.409 239.307 134.879 247.067 140.541 249.819Z" fill="black"/>
<path d="M122.807 180.927C122.929 181.622 123.171 182.291 123.522 182.904C125.705 187.323 132.027 196.42 132.027 196.42C133.907 197.596 135.495 199.183 136.672 201.061C138.395 203.999 138.902 210.882 138.902 210.882C138.902 210.882 142.752 226.171 144.573 228.302C145.502 229.365 145.079 229.996 144.448 230.362C143.152 231.083 142.055 232.111 141.252 233.356C138.595 237.622 134.354 246.092 140.323 248.998C148.428 252.948 156.032 232.247 156.032 232.247C156.032 232.247 154.508 217.566 154.104 215.036C153.7 212.507 151.266 202.073 151.266 202.073C151.266 202.073 149.543 197.617 148.53 194.48C147.518 191.342 144.48 187.694 144.48 187.694C144.48 187.694 139.004 176.759 137.485 175.139C136.779 174.387 135.789 173.44 134.935 172.642C133.945 171.714 133.128 170.99 133.128 170.99C133.128 170.99 122.705 178.504 122.807 180.927Z" fill="#EE8E9E"/>
<path d="M54.104 338.684L72.5443 346.885C72.5443 346.885 96.4424 347.391 100.623 346.277C104.803 345.163 103.874 340.508 98.3933 339.594C92.9123 338.679 91.6071 336.256 89.7816 335.142C88.5507 334.391 84.1798 329.531 81.4718 326.454C80.1666 324.973 79.2423 323.901 79.2423 323.901C79.2423 323.901 75.6936 314.484 65.8649 316.609C64.0678 317.001 62.4118 317.875 61.076 319.139C55.7762 324.04 55.3163 333.736 55.3163 333.736L54.104 338.684Z" fill="#434175"/>
<path opacity="0.1" d="M61.3175 235.649L63.7003 237.079C76.4367 244.751 111.176 265.54 113.08 265.391C113.577 265.35 115.073 265.127 117.14 264.788C117.688 264.7 118.278 264.607 118.896 264.5L118.966 264.384C119.988 262.603 120.769 260.694 121.288 258.708C123.415 250.608 112.876 244.431 112.876 244.431L110.646 242.699C108.115 238.439 89.8744 234.41 89.8744 234.41L87.5241 232.809L86.2653 231.964L85.9356 231.746L83.0836 229.829L68.7958 230.841L64.5504 233.565L64.0859 233.853L62.5345 234.869L61.3175 235.649Z" fill="black"/>
<path opacity="0.1" d="M61.0759 319.139C64.9544 332.548 81.1559 328.166 81.1559 328.166L81.4625 326.468C80.1572 324.987 79.2329 323.915 79.2329 323.915C79.2329 323.915 75.6842 314.497 65.8555 316.623C64.0632 317.012 62.4108 317.882 61.0759 319.139Z" fill="black"/>
<path d="M56.8399 258.285C62.8179 258.285 78.2065 265.475 78.2065 265.475C81.3465 267.907 85.6012 267.095 85.6012 267.095C85.6012 267.095 78.1182 274.688 78.3273 277.83C78.5363 280.973 74.0679 286.134 74.0679 286.134L60.2864 313.37C61.3037 332.71 81.1607 327.345 81.1607 327.345L81.9735 322.787C83.1905 322.179 85.0159 316.103 85.0159 316.103C85.0159 316.103 85.0159 313.676 86.2283 312.966C87.4406 312.256 89.9767 304.964 89.9767 304.964C89.9767 304.964 95.4484 295.751 95.1419 294.539C94.8353 293.328 99.0947 287.15 99.0947 287.15C99.0947 287.15 106.29 280.063 105.983 278.796C105.677 277.529 111.771 271.045 111.771 271.045C113.974 269.342 115.804 267.206 117.149 264.769C118.17 262.989 118.951 261.082 119.472 259.098C121.186 252.572 114.683 247.294 112.086 245.489C111.459 245.053 111.06 244.821 111.06 244.821L108.83 243.089C107.678 241.149 103.28 239.256 98.8206 237.775C95.6063 236.703 92.3642 235.839 90.2879 235.324C88.8944 234.985 88.0584 234.795 88.0584 234.795L85.708 233.217L84.8812 232.66L84.1241 232.154L81.2675 230.237L74.9132 230.701L66.9797 231.263L62.7389 233.992L60.7137 235.292L52.7942 240.397C52.7942 240.397 52.5851 242.342 52.5201 244.96C52.5201 245.159 52.5201 245.364 52.5201 245.577C52.4133 250.836 52.9846 258.285 56.8399 258.285Z" fill="#565387"/>
<path d="M87.3384 144.877L89.475 152.47C89.475 152.47 93.2281 165.536 93.6322 166.446C94.0364 167.355 103.851 176.573 104.274 176.773C104.696 176.972 110.029 180.022 110.029 180.022C110.029 180.022 110.451 163.313 110.029 158.458C109.994 157.39 110.083 156.321 110.294 155.274C110.939 151.463 112.574 145.88 113.931 141.577C115.064 137.971 116.007 135.269 116.007 135.269C116.007 135.269 92.2945 134.253 93.1074 136.583C93.4139 137.465 93.3117 138.936 93.0191 140.412C92.5268 142.844 91.5095 145.276 90.8778 145.091C90.2607 144.95 89.6296 144.88 88.9966 144.882C88.1327 144.845 87.3384 144.877 87.3384 144.877Z" fill="#EE8E9E"/>
<path opacity="0.1" d="M93.0283 140.403C95.9241 142.816 99.5213 144.233 103.286 144.443C107.051 144.653 110.784 143.645 113.93 141.568C115.064 137.961 116.007 135.26 116.007 135.26C116.007 135.26 92.2944 134.244 93.1073 136.574C93.4231 137.455 93.321 138.927 93.0283 140.403Z" fill="black"/>
<path d="M86.7299 126.348C86.729 129.814 87.7566 133.202 89.6828 136.084C91.6089 138.966 94.3471 141.212 97.5511 142.539C100.755 143.866 104.281 144.214 107.682 143.538C111.084 142.863 114.209 141.194 116.662 138.744C119.114 136.294 120.785 133.172 121.462 129.773C122.139 126.374 121.792 122.851 120.465 119.649C119.138 116.447 116.89 113.71 114.007 111.785C111.123 109.859 107.733 108.832 104.264 108.832C101.959 108.821 99.6744 109.266 97.5423 110.142C95.4102 111.019 93.473 112.309 91.8426 113.937C90.2123 115.566 88.921 117.501 88.0434 119.632C87.1659 121.762 86.7195 124.045 86.7299 126.348Z" fill="#EE8E9E"/>
<path opacity="0.1" d="M87.3384 144.877L89.475 152.47C89.475 152.47 93.2281 165.536 93.6322 166.446C94.0364 167.355 103.851 176.573 104.274 176.773C104.696 176.972 110.029 180.022 110.029 180.022C110.029 180.022 110.451 163.313 110.029 158.458C109.994 157.39 110.083 156.321 110.294 155.274L108.9 160.885L109.002 172.127L109.81 172.735L107.99 175.468V173.44C107.99 173.44 101.487 167.165 100.488 164.529C99.4895 161.892 95.8432 157.13 95.8432 157.13C95.8432 157.13 91.6628 150.168 91.5885 148.938C91.5095 148.01 89.763 145.801 88.9966 144.882C88.1327 144.844 87.3384 144.877 87.3384 144.877Z" fill="black"/>
<path opacity="0.1" d="M122.807 180.927C122.929 181.622 123.171 182.291 123.522 182.904C125.738 182.681 133.277 181.27 134.949 172.656C133.959 171.727 133.142 171.003 133.142 171.003C133.142 171.003 122.705 178.504 122.807 180.927Z" fill="black"/>
<path opacity="0.1" d="M52.4968 245.545C54.5406 244.097 56.4868 242.124 57.648 241.581C59.3713 240.769 62.005 238.137 62.005 238.137C62.005 238.137 62.6738 237.673 63.7004 237.079C65.5816 235.979 68.6658 234.382 71.0254 234.187C73.1388 234.011 80.1712 233.561 85.6987 233.217L92.9122 232.753C92.9122 232.753 99.4987 230.432 102.337 231.941C104.369 232.954 106.51 233.733 108.719 234.261C108.719 234.261 108.719 234.039 108.719 233.658L106.592 230.214L84.1148 232.131L81.2581 230.214L66.9704 231.226L62.7296 233.955L59.0694 234.266L60.7044 235.255L52.7848 240.36C52.7848 240.36 52.5433 242.625 52.4968 245.545Z" fill="black"/>
<path d="M49.5287 246.44C50.6017 246.12 51.6075 245.607 52.4968 244.927C54.5359 243.484 56.4775 241.516 57.634 240.973C59.3573 240.161 61.991 237.529 61.991 237.529C61.991 237.529 67.3651 233.881 71.0114 233.579C72.0054 233.495 74.0863 233.352 76.5853 233.189L84.8579 232.66L89.1498 232.391L92.8982 232.163C92.8982 232.163 99.4847 229.843 102.323 231.351C104.355 232.364 106.496 233.143 108.705 233.672C108.705 233.672 108.807 226.584 109.634 223.646C110.461 220.708 111.557 215.343 111.557 215.343C111.557 215.343 112.486 207.954 113.382 204.612C114.279 201.27 117.841 182.64 119.667 181.405C121.492 180.17 122.5 182.333 122.5 182.333C122.5 182.333 134.661 182.129 134.865 168.766C134.865 168.766 129.189 163.095 128.785 161.679C128.381 160.263 123.011 154.995 123.011 154.995C123.011 154.995 119.969 149.323 116.508 149.221C114.881 149.127 113.249 149.178 111.631 149.375L108.705 161.27L108.807 172.512L109.62 173.12L107.794 175.854V173.863C107.794 173.863 101.292 167.583 100.298 164.951C99.3036 162.319 95.6527 157.548 95.6527 157.548C95.6527 157.548 91.5001 150.586 91.3979 149.356C91.2958 148.126 88.4577 144.886 88.4577 144.886C87.8854 144.817 87.3068 144.817 86.7344 144.886C86.4789 144.903 86.2228 144.867 85.982 144.78C84.3456 144.258 82.6039 144.159 80.919 144.492C77.4167 145.22 72.0937 146.548 70.6259 148.14C68.3963 150.572 65.1542 152.902 61.5033 163.025L81.1605 170.112L79.4791 173.31L63.835 203.015C63.835 203.015 63.3148 203.86 62.6134 204.96C61.6844 206.39 60.4814 208.26 59.6778 209.286C58.2611 211.11 58.6652 216.879 58.6652 216.879C58.6652 216.879 58.3633 219.613 57.3507 220.629C56.3381 221.646 56.5332 225.382 56.5332 225.382L53.8995 235.204C53.8995 235.204 51.4656 237.431 51.4656 238.452C51.4656 239.474 49.5426 242.3 49.5426 242.3C49.5426 242.3 46.6024 247.146 49.5287 246.44Z" fill="#DFE5EE"/>
<path opacity="0.1" d="M62.6088 204.96C62.7442 205.519 62.8481 206.084 62.92 206.654C62.92 206.654 70.9232 225.387 71.9357 226.501C72.247 226.844 73.4268 228.529 74.9039 230.678L76.5992 233.18C79.6602 237.724 83.1021 242.885 83.1021 242.885L90.599 249.467C90.599 249.467 106.912 250.771 112.096 245.48C111.469 245.043 111.069 244.811 111.069 244.811L108.84 243.08C107.688 241.14 103.289 239.246 98.8298 237.766C94.7237 237.793 91.3654 238.128 91.3654 238.128L90.2971 235.315L89.1823 232.382L83.4969 217.492C83.4969 217.492 79.8414 198.662 78.6244 197.747C77.4075 196.833 77.6954 194.002 77.6954 194.002C77.6954 194.002 79.925 186.005 79.1121 184.891C78.2993 183.777 80.4313 175.571 80.4313 175.571C80.2198 174.77 79.8911 174.005 79.4559 173.301L63.8118 203.006C63.8118 203.006 63.3101 203.846 62.6088 204.96Z" fill="black"/>
<path d="M80.6497 174.953C80.6497 174.953 78.5223 183.155 79.3352 184.269C80.148 185.383 77.9138 193.38 77.9138 193.38C77.9138 193.38 77.6119 196.216 78.8428 197.125C80.0737 198.035 83.7153 216.87 83.7153 216.87L91.5652 237.529C91.5652 237.529 116.132 235.097 113.601 242.792C111.069 250.488 90.7988 248.868 90.7988 248.868L83.3019 242.286C83.3019 242.286 73.1667 226.998 72.1541 225.884C71.1415 224.77 63.1337 206.037 63.1337 206.037C63.1337 206.037 62.7296 202.291 61.0063 200.365C59.2831 198.439 60.6022 195.19 60.6022 195.19C60.6022 195.19 58.4748 170.697 60.7044 167.764C62.934 164.83 78.3272 166.144 80.6497 174.953Z" fill="#EE8E9E"/>
<path opacity="0.1" d="M153.31 253.728C153.31 253.728 146.923 255.858 145.214 258.893C143.505 261.929 153.31 253.728 153.31 253.728Z" fill="black"/>
<path opacity="0.1" d="M150.063 247.048C149.864 247.35 141.322 255.913 141.856 257.983C142.39 260.054 150.063 247.048 150.063 247.048Z" fill="black"/>
<path opacity="0.1" d="M103.15 253.124C103.15 253.124 93.6229 257.612 92.8101 259.566C91.9972 261.52 103.15 253.124 103.15 253.124Z" fill="black"/>
<path opacity="0.1" d="M102.541 258.893C102.541 258.893 93.9434 262.537 92.7868 263.451C91.6302 264.366 102.541 258.893 102.541 258.893Z" fill="black"/>
<path opacity="0.1" d="M98.5883 266.691C98.5883 266.691 94.7795 269.527 92.68 267.299C90.5805 265.071 98.5883 266.691 98.5883 266.691Z" fill="black"/>
<path opacity="0.1" d="M112.876 192.772C112.672 193.078 100.005 215.858 96.6607 217.58C93.3164 219.302 112.876 192.772 112.876 192.772Z" fill="black"/>
<path opacity="0.1" d="M112.268 201.382C112.268 201.888 99.9029 228.302 97.8684 228.617C95.8339 228.933 112.268 201.382 112.268 201.382Z" fill="black"/>
<path opacity="0.1" d="M65.2471 218.392C65.2471 218.392 59.283 231.133 56.9606 231.88C54.6381 232.628 65.2471 218.392 65.2471 218.392Z" fill="black"/>
<path opacity="0.1" d="M64.2345 212.72C64.2345 212.72 62.1768 217.176 60.9273 217.176C59.6779 217.176 64.2345 212.72 64.2345 212.72Z" fill="black"/>
<path opacity="0.1" d="M86.7299 126.349C86.7285 128.442 87.1046 130.519 87.84 132.48C87.7751 130.206 88.1802 127.943 89.03 125.833C89.8799 123.723 91.1561 121.81 92.7791 120.215C94.402 118.62 96.3367 117.376 98.4624 116.562C100.588 115.748 102.859 115.381 105.133 115.483C105.983 115.52 106.991 115.72 107.335 116.49C107.47 116.904 107.54 117.336 107.544 117.771C107.799 119.739 109.797 120.969 111.673 121.61C113.55 122.25 115.64 122.659 117.001 124.102C118.246 125.425 118.599 127.323 119.212 129.036C119.557 130.085 120.142 131.038 120.921 131.821C121.714 129.412 121.974 126.86 121.684 124.342C121.394 121.823 120.56 119.397 119.24 117.231C117.92 115.066 116.145 113.213 114.038 111.799C111.932 110.386 109.543 109.446 107.038 109.045C104.532 108.644 101.969 108.792 99.5263 109.477C97.0833 110.162 94.8181 111.369 92.8873 113.014C90.9566 114.659 89.4061 116.703 88.343 119.005C87.2799 121.308 86.7295 123.813 86.7299 126.349Z" fill="black"/>
<path d="M119.472 110.489C118.032 108.535 115.477 107.857 113.257 106.873C110.511 105.63 108.087 103.773 106.171 101.447C104.256 99.1209 102.899 96.3868 102.207 93.4548C101.322 94.7552 100.907 96.318 101.03 97.8857C101.153 99.4534 101.807 100.932 102.885 102.079C98.8484 101.805 94.3893 101.341 91.6534 98.3655C91.031 100.51 92.8936 102.947 91.8764 104.933C91.0031 106.641 88.6249 106.79 87.0875 107.95C85.4478 109.166 84.9044 111.371 84.8022 113.408C84.7 115.446 84.9137 117.534 84.3098 119.484C83.8453 120.964 82.9163 122.324 82.8234 123.87C82.8129 125.022 83.0671 126.16 83.5666 127.198C84.7128 129.963 86.2659 132.541 88.1744 134.847C87.6549 132.374 87.7082 129.816 88.3301 127.367C88.9519 124.918 90.126 122.644 91.7624 120.718C93.3989 118.792 95.4544 117.266 97.7718 116.255C100.089 115.245 102.607 114.778 105.133 114.889C105.983 114.926 106.991 115.13 107.335 115.901C107.471 116.314 107.541 116.746 107.544 117.182C107.799 119.145 109.796 120.375 111.673 121.016C113.55 121.656 115.64 122.069 117.001 123.508C118.246 124.831 118.599 126.729 119.212 128.442C119.825 130.155 121.009 131.946 122.816 132.155C123.23 129.611 123.648 127.049 123.392 124.469C123.113 121.707 121.255 120.143 120.605 117.739C119.899 115.218 121.237 112.884 119.472 110.489Z" fill="#603556"/>
<path opacity="0.1" d="M68.1084 159.562L61.7263 163.41C61.7263 163.41 59.9008 169.583 58.4749 170.372C58.4749 170.372 71.2437 163.285 80.868 179.585C80.868 179.585 80.5661 177.46 81.8806 176.448C83.1951 175.436 82.8932 171.082 82.8932 171.082C83.2475 170.393 83.5578 169.681 83.8221 168.952C84.7047 166.747 79.9436 153.993 68.1084 159.562Z" fill="black"/>
<path d="M67.8854 159.154L61.4986 163.002C61.4986 163.002 59.6732 169.179 58.2472 169.992C58.2472 169.992 71.0161 162.9 80.6403 179.205C80.6403 179.205 80.3384 177.079 81.6576 176.067C82.9767 175.055 82.6702 170.697 82.6702 170.697C83.0269 170.01 83.3372 169.3 83.5991 168.571C84.5002 166.343 79.7206 153.584 67.8854 159.154Z" fill="#DFE5EE"/>
<g opacity="0.1">
<path opacity="0.1" d="M92.1829 103.471C92.1597 101.819 91.175 99.9993 91.6534 98.3655L91.737 98.4537C91.8531 100.143 92.7914 101.921 92.1829 103.471Z" fill="black"/>
<path opacity="0.1" d="M85.0066 112.183C84.909 114.039 85.0762 115.896 84.6582 117.701C84.8115 116.286 84.7279 114.828 84.8022 113.399C84.8329 112.721 84.9215 112.047 85.067 111.385C85.0391 111.668 85.0159 111.918 85.0066 112.183Z" fill="black"/>
<path opacity="0.1" d="M82.8234 123.861C82.85 123.492 82.9169 123.128 83.0232 122.775C83.0406 123.882 83.2956 124.972 83.771 125.973C84.8201 128.502 86.211 130.876 87.905 133.028C87.9603 133.636 88.0502 134.24 88.1744 134.838C86.2659 132.532 84.7128 129.953 83.5666 127.189C83.0671 126.151 82.8129 125.012 82.8234 123.861Z" fill="black"/>
<path opacity="0.1" d="M103.089 100.862C102.699 100.839 102.3 100.811 101.905 100.779C101.02 99.1853 100.779 97.3137 101.231 95.5481C101.146 96.5149 101.267 97.4888 101.588 98.4051C101.908 99.3214 102.42 100.159 103.089 100.862Z" fill="black"/>
<path opacity="0.1" d="M91.96 119.488C93.6095 117.578 95.6676 116.062 97.9823 115.053C100.297 114.043 102.809 113.567 105.333 113.659C106.183 113.701 107.191 113.9 107.539 114.671C107.672 115.085 107.743 115.517 107.748 115.952C108.004 117.915 109.996 119.15 111.877 119.785C113.759 120.421 115.84 120.839 117.201 122.283C118.45 123.605 118.803 125.504 119.416 127.212C120.029 128.92 121.209 130.711 123.011 130.925L122.816 132.141C121.009 131.946 119.825 130.154 119.212 128.428C118.599 126.701 118.246 124.817 117.001 123.494C115.64 122.055 113.55 121.637 111.673 121.002C109.797 120.366 107.799 119.145 107.544 117.168C107.541 116.732 107.471 116.3 107.335 115.887C106.972 115.116 105.983 114.912 105.133 114.875C101.185 114.691 97.302 115.929 94.1905 118.364C91.0791 120.8 88.9459 124.27 88.1791 128.145C88.5832 124.957 89.8956 121.952 91.96 119.488Z" fill="black"/>
</g>
<path d="M200.567 157.646V175.807L183.177 174.415V157.646H200.567Z" fill="#3A3768"/>
<path opacity="0.1" d="M200.567 174.322V175.807L183.177 174.415V172.93L200.567 174.322Z" fill="black"/>
<path d="M205.881 177.112L178.829 175.719C178.829 175.017 179.108 174.345 179.605 173.848C180.101 173.352 180.775 173.073 181.477 173.073L203.234 174.466C203.936 174.466 204.609 174.745 205.106 175.241C205.602 175.737 205.881 176.41 205.881 177.112Z" fill="#3A3768"/>
<path d="M238.92 162.635L145.349 159.85C144.975 159.851 144.604 159.778 144.258 159.635C143.913 159.492 143.598 159.283 143.334 159.018C143.069 158.754 142.86 158.44 142.717 158.095C142.574 157.749 142.501 157.379 142.501 157.005V101.772C142.501 101.399 142.575 101.029 142.718 100.684C142.861 100.339 143.071 100.026 143.336 99.762C143.6 99.4981 143.914 99.289 144.259 99.1465C144.605 99.0041 144.975 98.931 145.349 98.9316L238.92 101.716C239.675 101.716 240.398 102.016 240.932 102.548C241.466 103.081 241.767 103.803 241.768 104.557V159.79C241.768 160.544 241.468 161.268 240.934 161.802C240.4 162.335 239.676 162.635 238.92 162.635Z" fill="#3A3768"/>
<path d="M239.469 158.597L144.592 155.812V106.047L239.469 108.832V158.597Z" fill="#42DFF4"/>
<path d="M192.03 104.302C192.492 104.302 192.866 103.932 192.866 103.476C192.866 103.019 192.492 102.649 192.03 102.649C191.568 102.649 191.194 103.019 191.194 103.476C191.194 103.932 191.568 104.302 192.03 104.302Z" fill="white"/>
<path opacity="0.1" d="M200.549 161.085L183.214 160.806V161.396H200.549V161.085Z" fill="black"/>
<path opacity="0.1" d="M168.982 178.175L192.722 179.729L187.664 186.993L161.564 184.208L168.982 178.175Z" fill="black"/>
<path d="M168.518 177.71L192.258 179.265L187.199 186.529L161.1 183.744L168.518 177.71Z" fill="#3A3768"/>
<path d="M169.567 178.249L190.27 179.511L185.862 185.429L163.097 183.159L169.567 178.249Z" fill="#D5E1F4"/>
<path opacity="0.1" d="M410.346 373.267C426.815 373.267 440.166 371.22 440.166 368.695C440.166 366.17 426.815 364.123 410.346 364.123C393.876 364.123 380.525 366.17 380.525 368.695C380.525 371.22 393.876 373.267 410.346 373.267Z" fill="#42DFF4"/>
<path d="M427.105 260.792C427.105 260.792 430.416 265.122 425.572 271.662C420.727 278.201 416.746 283.729 418.349 287.795C418.349 287.795 425.66 275.649 431.605 275.482C437.551 275.315 433.663 268.083 427.105 260.792Z" fill="#42DFF4"/>
<path opacity="0.1" d="M427.105 260.792C427.391 261.21 427.618 261.666 427.778 262.147C433.584 268.965 436.678 275.324 431.099 275.482C425.901 275.63 419.668 284.913 418.172 287.262C418.222 287.442 418.281 287.62 418.349 287.795C418.349 287.795 425.66 275.649 431.605 275.482C437.551 275.315 433.663 268.083 427.105 260.792Z" fill="black"/>
<path d="M433.264 266.31C433.264 267.833 433.092 269.095 432.883 269.095C432.674 269.095 432.497 267.856 432.497 266.31C432.497 264.765 432.711 265.503 432.925 265.503C433.138 265.503 433.264 264.788 433.264 266.31Z" fill="#FFD037"/>
<path d="M435.377 268.13C434.039 268.858 432.869 269.299 432.771 269.114C432.674 268.928 433.672 268.185 435.01 267.457C436.348 266.728 435.823 267.262 435.939 267.457C436.055 267.652 436.719 267.401 435.377 268.13Z" fill="#FFD037"/>
<path d="M409.598 260.792C409.598 260.792 406.281 265.122 411.126 271.662C415.971 278.201 419.951 283.729 418.349 287.795C418.349 287.795 411.042 275.649 405.092 275.482C399.142 275.315 403.053 268.083 409.598 260.792Z" fill="#42DFF4"/>
<path opacity="0.1" d="M409.598 260.792C409.308 261.209 409.08 261.665 408.92 262.147C403.118 268.965 400.025 275.324 405.603 275.482C410.801 275.63 417.034 284.913 418.525 287.262C418.478 287.443 418.419 287.621 418.349 287.795C418.349 287.795 411.042 275.649 405.092 275.482C399.142 275.315 403.053 268.083 409.598 260.792Z" fill="black"/>
<path d="M403.439 266.31C403.439 267.833 403.606 269.095 403.82 269.095C404.033 269.095 404.2 267.856 404.2 266.31C404.2 264.765 403.987 265.503 403.778 265.503C403.569 265.503 403.439 264.788 403.439 266.31Z" fill="#FFD037"/>
<path d="M401.321 268.13C402.663 268.858 403.829 269.299 403.931 269.114C404.033 268.928 403.002 268.185 401.688 267.457C400.373 266.728 400.879 267.262 400.759 267.457C400.638 267.652 399.983 267.401 401.321 268.13Z" fill="#FFD037"/>
<path opacity="0.1" d="M418.349 320.926C437.486 320.926 453 318.546 453 315.611C453 312.676 437.486 310.297 418.349 310.297C399.212 310.297 383.698 312.676 383.698 315.611C383.698 318.546 399.212 320.926 418.349 320.926Z" fill="#42DFF4"/>
<path d="M436.185 281.957L436.018 283.312L435.786 285.219L435.688 286.018L435.456 287.925L435.359 288.724L435.126 290.631L432.474 312.353C432.237 314.293 429.065 315.802 425.237 315.802H411.461C407.633 315.802 404.47 314.293 404.233 312.353L401.576 290.631L401.344 288.724L401.246 287.925L401.01 286.018L400.912 285.219L400.68 283.312L400.517 281.957C400.382 280.861 402.096 279.933 404.261 279.933H432.442C434.592 279.933 436.32 280.861 436.185 281.957Z" fill="#65617D"/>
<path d="M436.018 283.312L435.786 285.219H400.917L400.684 283.312H436.018Z" fill="#9D9CB5"/>
<path d="M435.688 286.018L435.456 287.93H401.246L401.009 286.018H435.688Z" fill="#9D9CB5"/>
<path d="M435.359 288.724L435.126 290.636H401.576L401.344 288.724H435.359Z" fill="#9D9CB5"/>
</g>
<defs>
<clipPath id="clip0">
<rect width="453" height="383" fill="white"/>
</clipPath>
</defs>
</svg>
